<svg width="145" height="120" viewBox="0 0 145 120" fill="none" xmlns="http://www.w3.org/2000/svg">
<mask id="mask0_3_1661" style="mask-type:alpha" maskUnits="userSpaceOnUse" x="0" y="0" width="145" height="120">
<path d="M142.44 43.4214C137.3 26.7215 124.082 13.3534 108.447 6.29647C93.5261 -0.417483 74.6714 -3.75244 60.5264 6.60794C51.2177 13.4194 45.9477 24.3367 37.4208 31.9788C33.1827 35.7762 28.5585 37.0127 23.4942 39.2842C11.2103 44.8215 0.929971 55.4996 0.0722181 69.5851C-1.31411 93.15 17.4678 109.428 38.4274 114.774C66.1223 121.834 86.8223 121.834 105.845 114.207C115.723 110.246 125.785 105.238 132.9 97.0355C143.662 84.6333 146.647 67.0147 144.197 51.1013C143.8 48.5022 143.213 45.9354 142.44 43.4214Z" fill="white"/>
</mask>
<g mask="url(#mask0_3_1661)">
<path opacity="0.1" d="M142.44 43.4214C137.3 26.7215 124.082 13.3534 108.447 6.29647C93.5261 -0.417483 74.6714 -3.75244 60.5264 6.60794C51.2177 13.4194 45.9477 24.3367 37.4208 31.9788C33.1827 35.7762 28.5585 37.0127 23.4942 39.2842C11.2103 44.8215 0.929971 55.4996 0.0722181 69.5851C-1.31411 93.15 17.4678 109.428 38.4274 114.774C66.1223 121.834 86.8223 121.834 105.845 114.207C115.723 110.246 125.785 105.238 132.9 97.0355C143.662 84.6333 146.647 67.0147 144.197 51.1013C143.8 48.5022 143.213 45.9354 142.44 43.4214Z" fill="white"/>
<path d="M46.3868 119.496H34.657L36.2282 110.489V108.597C36.2307 101.283 37.8631 94.0618 41.0082 87.4506V87.3845L46.3868 119.463V119.496Z" fill="#FFB748" stroke="#263238" stroke-width="1.15269" stroke-linecap="round" stroke-linejoin="round"/>
<path d="M109.567 119.496H97.8035L101.96 94.5323L103.165 87.2936C106.333 93.9215 107.974 101.168 107.97 108.506L109.575 119.496H109.567Z" fill="#FFB748" stroke="#263238" stroke-width="1.15269" stroke-linecap="round" stroke-linejoin="round"/>
<path d="M103.032 86.5334C103.032 86.5334 102.558 89.9957 101.968 94.5158C101.095 101.126 99.9731 110.001 99.6821 113.687C99.5907 114.877 99.4494 116.926 99.2831 119.471H45.6468C43.9176 106.539 41.3239 89.4586 41.0247 87.4589V87.2688L59.829 82.1951L62.3894 81.501C63.1071 81.0545 63.8976 80.7358 64.7254 80.559C65.7849 80.3098 66.8641 80.1522 67.9509 80.088H68.3915H68.4663C71.015 79.9804 73.5682 80.0549 76.1061 80.3111C77.7687 80.4598 79.29 80.6581 80.4954 80.8317H80.5536C81.5844 80.9887 83.2055 81.344 85.1258 81.7985C92.1089 83.4346 103.032 86.5334 103.032 86.5334Z" fill="#FFB748"/>
<path opacity="0.2" d="M59.0393 95.8545L66.9617 91.4667C67.7348 91.037 68.7324 90.6403 69.4557 91.1609C70.1789 91.6815 70.0293 92.7392 70.4865 93.4581C70.8129 93.8578 71.2565 94.1465 71.7555 94.2843C72.2546 94.422 72.7844 94.4018 73.2714 94.2266C74.2773 93.9622 75.1585 91.7476 76.1394 91.4006C79.3649 90.3511 82.7317 93.9704 85.5582 95.8462C85.1093 91.4832 84.6632 87.1201 84.2198 82.7571C84.2198 82.9802 65.9309 82.6579 64.2683 83.0215C58.8564 84.2362 59.6877 91.4005 59.0393 95.8545Z" fill="black"/>
<path d="M103.032 86.5334C103.032 86.5334 102.558 89.9957 101.968 94.5158C101.095 101.126 99.9731 110.001 99.6821 113.687C99.5907 114.877 99.4494 116.926 99.2831 119.471H45.6468C43.9176 106.539 41.3239 89.4586 41.0247 87.4589V87.2688L59.829 82.1951L62.3894 81.501C63.1071 81.0545 63.8976 80.7358 64.7254 80.559C65.7849 80.3098 66.8641 80.1522 67.9509 80.088H68.3915H68.4663C71.015 79.9804 73.5682 80.0549 76.1061 80.3111C77.7687 80.4598 79.29 80.6581 80.4954 80.8317H80.5536C81.5844 80.9887 83.2055 81.344 85.1258 81.7985C92.1089 83.4346 103.032 86.5334 103.032 86.5334Z" stroke="#263238" stroke-width="1.15269" stroke-linecap="round" stroke-linejoin="round"/>
<path d="M66.5878 75.4935C66.5878 75.4935 62.1569 76.8156 61.2757 77.6916C60.3945 78.5675 59.7294 83.228 58.8316 85.6161C57.9338 88.0042 55.0741 92.2268 55.9636 92.4334C56.8531 92.64 70.4285 88.2108 70.4285 88.2108L73.0055 98.6392L74.6515 88.186C74.6515 88.186 87.5951 93.301 88.0274 92.6317C88.4596 91.9624 85.1759 84.0543 84.9598 80.749C84.7437 77.4437 79.8639 76.3447 76.9875 76.1381C74.1112 75.9315 66.5878 75.4935 66.5878 75.4935Z" fill="#263238"/>
<path d="M64.6838 70.1637V83.0297L72.6811 87.0705L72.7559 97.7964L72.6811 87.0705L80.4539 82.848V69.4117L64.6838 70.1637Z" fill="white" stroke="#263238" stroke-width="1.15269" stroke-linecap="round" stroke-linejoin="round"/>
<path d="M57.2937 56.8679C56.7963 57.5819 56.4772 58.4034 56.3626 59.2643C56.3242 60.3425 56.6587 61.4011 57.3103 62.2639C57.9587 63.1177 58.7128 63.8867 59.5548 64.5528C59.8782 64.8619 60.2485 65.1185 60.6522 65.3131C60.8636 65.4251 61.1023 65.4763 61.3415 65.4609C61.5806 65.4455 61.8107 65.3642 62.0058 65.226C62.201 65.0878 62.3536 64.8982 62.4463 64.6786C62.5391 64.4589 62.5684 64.2179 62.5309 63.9827C62.4802 63.498 62.3627 63.0225 62.1818 62.5696C61.5167 60.603 61.7246 58.4958 61.1593 56.5952C60.5191 54.4137 58.2247 55.3557 57.2937 56.8679Z" fill="white" stroke="#263238" stroke-width="1.15269" stroke-linecap="round" stroke-linejoin="round"/>
<path d="M88.6923 56.8679C89.1895 57.5812 89.5061 58.4033 89.615 59.2643C89.6544 60.3439 89.3166 61.4038 88.659 62.2639C88.0114 63.1156 87.2603 63.8844 86.4228 64.5528C86.0982 64.8642 85.7247 65.121 85.3171 65.3131C85.1118 65.4052 84.8879 65.4486 84.6628 65.44C84.4378 65.4314 84.2178 65.371 84.0203 65.2635C83.8235 65.1152 83.6671 64.9204 83.5655 64.6966C83.4638 64.4729 83.4201 64.2275 83.4384 63.9827C83.488 63.4969 83.6085 63.021 83.7958 62.5696C84.4526 60.603 84.2447 58.4958 84.81 56.5952C85.4584 54.4137 87.7612 55.3557 88.6923 56.8679Z" fill="white" stroke="#263238" stroke-width="1.15269" stroke-linecap="round" stroke-linejoin="round"/>
<path d="M64.6758 72.7005C64.6758 72.7005 67.1115 81.8811 71.9996 82.0794C76.8878 82.2777 80.4707 73.6508 80.4707 73.6508C80.4707 73.6508 75.4163 70.0067 64.6758 72.7005Z" fill="#263238"/>
<path d="M86.2896 54.5543C86.2896 64.71 80.2792 78.7081 72.8722 78.7081C65.4652 78.7081 59.4465 64.71 59.4465 54.5543C59.4465 44.3987 65.4569 36.1766 72.8722 36.1766C80.2875 36.1766 86.2896 44.3904 86.2896 54.5543Z" fill="white" stroke="#263238" stroke-width="1.15269" stroke-linecap="round" stroke-linejoin="round"/>
<path d="M68.0009 56.2729C68.4165 56.2729 68.7491 57.0993 68.7491 58.1818C68.7491 59.2643 68.4165 60.0989 68.0009 60.0989C67.5852 60.0989 67.2444 59.2725 67.2444 58.1818C67.2444 57.091 67.552 56.2729 68.0009 56.2729Z" fill="#263238"/>
<path d="M77.3449 56.2729C77.7605 56.2729 78.0931 57.0993 78.0931 58.1818C78.0931 59.2643 77.7605 60.0989 77.3449 60.0989C76.9292 60.0989 76.5884 59.2725 76.5884 58.1818C76.5884 57.091 76.9292 56.2729 77.3449 56.2729Z" fill="#263238"/>
<path d="M74.2439 55.3145L73.7535 56.2978C73.7535 56.2978 74.086 61.4541 74.2273 62.5697C74.3686 63.6852 73.5456 64.9413 72.3236 64.2802L71.0933 63.6191" stroke="#263238" stroke-width="1.15269" stroke-linecap="round" stroke-linejoin="round"/>
<path d="M69.1399 68.6019C69.1399 69.6183 76.6217 69.6183 76.6217 68.6019" stroke="#263238" stroke-width="1.15269" stroke-linecap="round" stroke-linejoin="round"/>
<path d="M60.095 61.4046L61.6662 61.7103C61.1236 60.0626 60.7612 58.3616 60.5855 56.6366C60.4442 55.174 62.5557 52.9842 62.5557 51.9596C62.5557 46.3984 65.5983 46.5553 66.2218 47.3734C66.3049 46.357 71.0933 41.4486 74.6679 48.2494C75.5824 49.9847 85.3088 51.5547 85.2755 53.0917C85.2187 55.8472 84.9407 58.5939 84.4442 61.3054C85.2339 61.4542 85.9322 60.6361 86.032 59.8346C86.1318 59.033 86.3313 55.9425 87.0046 55.4963C87.1562 55.7928 87.3996 56.0331 87.6989 56.1819C87.9982 56.3306 88.3376 56.38 88.6673 56.3226C88.2177 55.3574 87.9689 54.3118 87.9357 53.2487C87.9856 52.1827 88.5426 52.8851 89.5983 52.5876C90.1387 52.4306 94.686 49.3814 95.2513 47.7535C93.1896 48.0097 91.2443 46.6049 90.0639 44.9027C88.8834 43.2004 88.2433 41.2007 87.2457 39.391C84.7518 34.8793 79.7639 31.6731 74.6014 31.8714C69.439 32.0697 64.4844 36.0031 63.7029 41.0933C63.1991 40.8891 62.6482 40.8273 62.1113 40.9148C61.5744 41.0023 61.0722 41.2357 60.6603 41.5891C59.8533 42.3124 59.1881 43.1782 58.6984 44.1425C57.616 45.7717 56.8256 47.5749 56.3624 49.4723C56.005 51.3811 57.9585 54.075 59.4466 55.3393C59.6877 54.8931 59.5547 61.4046 60.095 61.4046Z" fill="#263238"/>
<path d="M60.81 43.8779C59.7548 44.6475 58.9626 45.7205 58.5405 46.9519" stroke="#5C5C5C" stroke-width="1.15269" stroke-linecap="round" stroke-linejoin="round"/>
<path d="M60.9597 45.7207C60.5756 46.1047 60.2532 46.545 60.0037 47.0263" stroke="#5C5C5C" stroke-width="1.15269" stroke-linecap="round" stroke-linejoin="round"/>
<path d="M61.8822 46.7784C61.5299 47.1288 61.27 47.5602 61.1257 48.0345" stroke="#5C5C5C" stroke-width="1.15269" stroke-linecap="round" stroke-linejoin="round"/>
<path d="M72.4399 42.1923C72.9776 42.2606 73.483 42.4853 73.8927 42.8381C74.3023 43.191 74.598 43.6562 74.7427 44.1755" stroke="#5C5C5C" stroke-width="1.15269" stroke-linecap="round" stroke-linejoin="round"/>
<path d="M72.5564 40.0272C73.4954 40.228 74.3607 40.682 75.0573 41.3394C75.7539 41.9968 76.2548 42.8322 76.5051 43.754" stroke="#5C5C5C" stroke-width="1.15269" stroke-linecap="round" stroke-linejoin="round"/>
<path d="M76.6133 40.1182C77.0103 40.4805 77.3309 40.9176 77.5564 41.4042C77.7819 41.8908 77.9078 42.4171 77.9268 42.9525" stroke="#5C5C5C" stroke-width="1.15269" stroke-linecap="round" stroke-linejoin="round"/>
<path d="M78.916 40.5726C79.3417 41.0946 79.5632 41.7521 79.5395 42.4236" stroke="#5C5C5C" stroke-width="1.15269" stroke-linecap="round" stroke-linejoin="round"/>
<path d="M80.6035 41.0189C80.74 41.1736 80.8424 41.355 80.9039 41.5514C80.9655 41.7478 80.9849 41.9549 80.961 42.1592" stroke="#5C5C5C" stroke-width="1.15269" stroke-linecap="round" stroke-linejoin="round"/>
<path d="M82.3826 41.1924C82.4408 41.399 82.499 41.5973 82.5655 41.8039" stroke="#5C5C5C" stroke-width="1.15269" stroke-linecap="round" stroke-linejoin="round"/>
<path d="M64.0024 55.0088C64.5262 54.5708 64.8753 53.9593 65.4323 53.5627C65.8108 53.3261 66.2355 53.1722 66.6783 53.1109C67.1211 53.0496 67.572 53.0825 68.0011 53.2074C68.8604 53.4564 69.6782 53.8294 70.4285 54.3146" stroke="#263238" stroke-width="1.15269" stroke-linecap="round" stroke-linejoin="round"/>
<path d="M75.5908 54.3063C76.3411 53.8211 77.1589 53.4481 78.0182 53.1991C78.4473 53.0742 78.8982 53.0413 79.341 53.1026C79.7838 53.1639 80.2085 53.3178 80.587 53.5544C81.1357 53.951 81.4931 54.5625 82.0169 55.0005" stroke="#263238" stroke-width="1.15269" stroke-linecap="round" stroke-linejoin="round"/>
<path d="M67.6516 78.204C67.82 81.0801 68.9627 83.8149 70.8938 85.9632L67.6516 78.204Z" fill="white"/>
<path d="M67.6516 78.204C67.82 81.0801 68.9627 83.8149 70.8938 85.9632" stroke="#263238" stroke-width="1.15269" stroke-linecap="round" stroke-linejoin="round"/>
<path d="M67.6685 47.2495C67.9746 46.4954 68.3921 45.7908 68.9071 45.1589C69.1384 44.8492 69.4367 44.5951 69.78 44.4152C69.9536 44.3264 70.1484 44.2863 70.3432 44.2994C70.5381 44.3125 70.7256 44.3783 70.8856 44.4896" stroke="#263238" stroke-width="1.15269" stroke-linecap="round" stroke-linejoin="round"/>
<path d="M69.1897 47.58C69.5594 46.8751 70.1022 46.2745 70.7678 45.8339C71.4335 45.3933 72.2003 45.127 72.9971 45.0597" stroke="#263238" stroke-width="1.15269" stroke-linecap="round" stroke-linejoin="round"/>
<path d="M70.8606 47.6957C71.376 47.0098 75.4079 44.787 76.3306 48.2163" stroke="#263238" stroke-width="1.15269" stroke-linecap="round" stroke-linejoin="round"/>
<path d="M64.7338 48.4145C64.036 48.3725 63.3381 48.4934 62.6958 48.7675C62.0534 49.0415 61.4845 49.4611 61.0344 49.9928" stroke="#263238" stroke-width="1.15269" stroke-linecap="round" stroke-linejoin="round"/>
<path d="M63.5782 49.8937C62.833 50.0808 62.148 50.4537 61.588 50.9771C61.028 51.5005 60.6114 52.1571 60.3777 52.885" stroke="#263238" stroke-width="1.15269" stroke-linecap="round" stroke-linejoin="round"/>
<path d="M36.4109 110.381C36.3523 112.212 36.8854 114.014 37.9321 115.521" stroke="#263238" stroke-width="1.15269" stroke-linecap="round" stroke-linejoin="round"/>
<path d="M44.7241 103.134C45.4553 108.523 45.7721 113.96 45.6718 119.397" stroke="#263238" stroke-width="1.15269" stroke-linecap="round" stroke-linejoin="round"/>
<path d="M103.165 99.2838C101.985 104.159 100.802 109.037 99.6157 113.918" stroke="#263238" stroke-width="1.15269" stroke-linecap="round" stroke-linejoin="round"/>
<path d="M106.241 111.051C105.187 114.252 103.534 117.227 101.37 119.818" stroke="#263238" stroke-width="1.15269" stroke-miterlimit="10"/>
<path d="M40.21 100.11C40.7253 104.891 42.2523 109.509 44.6907 113.662" stroke="#263238" stroke-width="1.15269" stroke-miterlimit="10"/>
<path d="M72.7558 97.7962L72.4399 111.265H75.5906L75.7985 88.3843" stroke="#263238" stroke-width="1.15269" stroke-miterlimit="10"/>
<path d="M74.0446 109.514C74.467 109.514 74.8094 109.173 74.8094 108.754C74.8094 108.334 74.467 107.993 74.0446 107.993C73.6222 107.993 73.2798 108.334 73.2798 108.754C73.2798 109.173 73.6222 109.514 74.0446 109.514Z" stroke="#263238" stroke-width="1.15269" stroke-miterlimit="10"/>
<path d="M74.9671 99.168C74.9654 99.318 74.9192 99.4642 74.8342 99.5881C74.7491 99.7121 74.6291 99.8082 74.4892 99.8645C74.3494 99.9208 74.1958 99.9346 74.048 99.9044C73.9002 99.8741 73.7647 99.8011 73.6586 99.6944C73.5525 99.5878 73.4804 99.4523 73.4516 99.3051C73.4228 99.1578 73.4384 99.0054 73.4965 98.867C73.5546 98.7285 73.6526 98.6103 73.7782 98.5271C73.9038 98.4439 74.0514 98.3995 74.2023 98.3995C74.3034 98.3995 74.4035 98.4195 74.4969 98.4582C74.5902 98.4969 74.6749 98.5537 74.746 98.6251C74.8172 98.6966 74.8733 98.7814 74.9113 98.8746C74.9492 98.9678 74.9682 99.0675 74.9671 99.168V99.168Z" stroke="#263238" stroke-width="1.15269" stroke-miterlimit="10"/>
</g>
</svg>
