<svg width="145" height="120" viewBox="0 0 145 120" fill="none" xmlns="http://www.w3.org/2000/svg">
<mask id="mask0_3_1469" style="mask-type:alpha" maskUnits="userSpaceOnUse" x="0" y="0" width="145" height="120">
<path d="M142.44 43.4214C137.3 26.7215 124.082 13.3534 108.447 6.29647C93.5261 -0.417483 74.6714 -3.75244 60.5264 6.60794C51.2177 13.4194 45.9477 24.3367 37.4208 31.9788C33.1827 35.7762 28.5585 37.0127 23.4942 39.2842C11.2103 44.8215 0.929971 55.4996 0.0722181 69.5851C-1.31411 93.15 17.4678 109.428 38.4274 114.774C66.1223 121.834 86.8223 121.834 105.845 114.207C115.723 110.246 125.785 105.238 132.9 97.0355C143.662 84.6333 146.647 67.0147 144.197 51.1013C143.8 48.5022 143.213 45.9354 142.44 43.4214Z" fill="white"/>
</mask>
<g mask="url(#mask0_3_1469)">
<path opacity="0.1" d="M142.44 43.4214C137.3 26.7215 124.082 13.3534 108.447 6.29647C93.5261 -0.417483 74.6714 -3.75244 60.5264 6.60794C51.2177 13.4194 45.9477 24.3367 37.4208 31.9788C33.1827 35.7762 28.5585 37.0127 23.4942 39.2842C11.2103 44.8215 0.929971 55.4996 0.0722181 69.5851C-1.31411 93.15 17.4678 109.428 38.4274 114.774C66.1223 121.834 86.8223 121.834 105.845 114.207C115.723 110.246 125.785 105.238 132.9 97.0355C143.662 84.6333 146.647 67.0147 144.197 51.1013C143.8 48.5022 143.213 45.9354 142.44 43.4214Z" fill="white"/>
<path d="M115.624 159.812C115.624 159.812 115.002 160.132 113.041 160.132C112.166 160.171 111.291 160.063 110.453 159.812L107.99 135.769L105.849 114.862H111.019L113.142 135.563L115.624 159.812Z" fill="#999999"/>
<path opacity="0.3" d="M113.142 135.563C111.396 135.707 109.678 135.775 107.99 135.769L105.849 114.862H111.019L113.142 135.563Z" fill="black" fill-opacity="0.7"/>
<path d="M115.624 159.812C115.624 159.812 115.002 160.132 113.041 160.132C112.166 160.171 111.291 160.063 110.453 159.812L107.99 135.769L105.849 114.862H111.019L113.142 135.563L115.624 159.812Z" stroke="#263238" stroke-width="0.463799" stroke-linecap="round" stroke-linejoin="round"/>
<path d="M77.4069 114.862L76.0256 128.281L72.8024 159.812C72.8024 159.812 72.1808 160.132 70.2193 160.132C69.3447 160.171 68.4698 160.063 67.6316 159.812L71.1172 125.782L72.2361 114.862H77.4069Z" fill="#999999"/>
<path opacity="0.3" d="M72.236 114.862H77.4069L76.0255 128.281C74.1837 127.421 72.5445 126.569 71.1125 125.782L72.236 114.862Z" fill="black" fill-opacity="0.7"/>
<path d="M77.4069 114.862L76.0256 128.281L72.8024 159.812C72.8024 159.812 72.1808 160.132 70.2193 160.132C69.3447 160.171 68.4698 160.063 67.6316 159.812L71.1172 125.782L72.2361 114.862H77.4069Z" stroke="#263238" stroke-width="0.463799" stroke-linecap="round" stroke-linejoin="round"/>
<path d="M94.2136 114.862V159.812C94.2136 159.812 93.592 160.132 91.6304 160.132C90.7559 160.171 89.881 160.063 89.0427 159.812V114.862H94.2136Z" fill="#999999"/>
<path opacity="0.3" d="M94.2136 114.862V122.345C92.4887 122.224 90.7559 122.281 89.0427 122.514V114.862H94.2136Z" fill="black" fill-opacity="0.7"/>
<path d="M94.2136 114.862V159.812C94.2136 159.812 93.592 160.132 91.6304 160.132C90.7559 160.171 89.881 160.063 89.0427 159.812V114.862H94.2136Z" stroke="#263238" stroke-width="0.463799" stroke-linecap="round" stroke-linejoin="round"/>
<path d="M113.52 108.381V115.42C113.512 115.716 113.399 116 113.201 116.221C113.003 116.442 112.733 116.586 112.438 116.628C98.6144 118.281 84.6415 118.281 70.8179 116.628C70.5231 116.586 70.2527 116.442 70.0547 116.221C69.8566 116 69.7437 115.716 69.7358 115.42V108.381C69.7437 108.085 69.8566 107.801 70.0547 107.58C70.2527 107.359 70.5231 107.214 70.8179 107.172C84.6417 105.525 98.6141 105.525 112.438 107.172C112.733 107.214 113.003 107.359 113.201 107.58C113.399 107.801 113.512 108.085 113.52 108.381Z" fill="#BFBFBF"/>
<path opacity="0.3" d="M113.52 108.381V112.335C109.376 113.965 102.801 113.777 95.9078 113.557C84.6222 113.205 83.8763 111.017 79.5388 111.553C77.5819 111.795 73.4286 111.736 69.7358 111.31V108.381C69.7437 108.085 69.8566 107.801 70.0547 107.58C70.2527 107.359 70.5231 107.214 70.8179 107.172C84.6417 105.525 98.6141 105.525 112.438 107.172C112.733 107.214 113.003 107.359 113.201 107.58C113.399 107.801 113.512 108.085 113.52 108.381Z" fill="black" fill-opacity="0.7"/>
<path d="M112.438 116.628C98.6144 118.281 84.6415 118.281 70.8179 116.628C70.5231 116.586 70.2527 116.442 70.0547 116.221C69.8566 116 69.7437 115.716 69.7358 115.42V108.381C69.7437 108.085 69.8566 107.801 70.0547 107.58C70.2527 107.359 70.5231 107.214 70.8179 107.172C84.6417 105.525 98.6141 105.525 112.438 107.172C112.733 107.214 113.003 107.359 113.201 107.58C113.399 107.801 113.512 108.085 113.52 108.381V115.42C113.512 115.716 113.399 116 113.201 116.221C113.003 116.442 112.733 116.586 112.438 116.628V116.628Z" stroke="#263238" stroke-width="0.463799" stroke-linecap="round" stroke-linejoin="round"/>
<path d="M85.3408 48.9494L71.0208 63.7466C67.3648 60.1857 57.4882 48.8075 57.4882 48.8075L53.9841 53.8146C53.9841 53.8146 59.3299 62.6939 62.484 67.8612C65.6381 73.0286 69.5289 75.2209 69.6486 75.4497C69.7684 75.6786 85.3039 64.4651 85.3039 64.4651L85.3408 48.9494Z" fill="white" stroke="#263238" stroke-width="0.463799" stroke-linecap="round" stroke-linejoin="round"/>
<path d="M55.3054 53.8147C55.3054 53.8147 52.6947 54.3685 51.5298 52.9863C50.3648 51.6041 45.4749 48.2812 45.4749 48.2812L48.1961 39.2235L55.7889 45.1735L57.5801 49.6543" fill="white"/>
<path d="M55.3054 53.8147C55.3054 53.8147 52.6947 54.3685 51.5298 52.9863C50.3648 51.6041 45.4749 48.2812 45.4749 48.2812L48.1961 39.2235L55.7889 45.1735L57.5801 49.6543" stroke="#263238" stroke-width="0.463799" stroke-linecap="round" stroke-linejoin="round"/>
<path d="M85.3405 47.4344C82.7896 47.3749 74.4094 58.6387 74.4094 58.6387L73.4885 59.3711C73.4885 59.3711 75.9335 67.9894 78.8251 70.6394L81.5372 69.3304H83.1349L85.3405 47.4344Z" fill="#263238"/>
<path d="M121.62 67.8613C121.62 67.8613 124.184 81.7431 123.632 83.9126C123.079 86.0821 122.347 89.3454 119.027 89.3454C115.707 89.3454 114.81 77.8802 114.81 77.8802L112.991 72.4474L121.62 67.8613Z" fill="white" stroke="#263238" stroke-width="0.463799" stroke-linecap="round" stroke-linejoin="round"/>
<path d="M109.473 112.312C107.774 115.209 100.121 114.761 100.121 114.761L99.9875 115.315L91.4185 151.17L92.5052 152.543L91.4185 156.255C90.2858 157.464 80.2987 155.619 79.2304 154.122L80.202 151.175C80.202 151.175 80.7407 116.605 81.5833 110.179V110.147C81.6144 109.851 81.6745 109.558 81.7629 109.273L64.5191 111.402C64.5191 111.402 66.2503 143.509 67.71 145.298C69.1696 147.088 67.8896 149.976 67.8896 149.976L68.8105 154.351C68.8105 154.351 64.2888 154.036 59.8409 153.894C58.92 153.866 57.9991 153.848 57.1427 153.843C56.9908 153.446 56.8647 153.039 56.7651 152.626C56.5303 151.733 57.4281 149.967 57.4281 149.967L56.6039 148.9C56.6039 148.9 57.0368 145.738 57.0368 144.749C57.0368 143.76 45.9445 108.051 47.0082 105.763C50.5536 98.0781 69.0775 93.0618 77.3288 91.1807C79.7599 90.6223 81.3025 90.3385 81.3025 90.3385L107.695 92.0045L108.363 92.032L110.61 92.1739C110.61 92.1739 111.176 109.424 109.473 112.312Z" fill="#FFB748"/>
<path opacity="0.3" d="M101.742 96.4854C101.742 96.4854 86.7267 97.8172 82.6195 103.14C81.9932 103.946 81.786 109.269 81.786 109.269L64.5422 111.397C64.5422 111.397 66.2735 143.504 67.7331 145.294C69.1927 147.083 67.9127 149.971 67.9127 149.971L68.8336 154.347C68.8336 154.347 64.312 154.031 59.864 153.889C58.2755 152.196 58.7497 150.685 58.7497 150.685C62.9537 151.573 65.3572 149.912 65.3572 149.912C65.3572 149.912 60.4995 146.172 61.0566 143.76C61.6137 141.348 60.3521 132.776 60.3521 132.776C59.7213 136.396 58.9339 137.293 58.9339 137.293L59.2516 129.114C59.2516 129.114 49.8585 119.375 54.1867 113.553C58.5149 107.731 78.3557 102.11 76.1686 101.392C73.9814 100.673 73.8663 98.3207 73.8663 98.3207C77.2644 97.5381 82.1222 98.2612 81.7814 97.2177C81.5236 96.4396 78.7241 92.9062 77.3243 91.167C79.7555 90.6086 81.298 90.3248 81.298 90.3248L107.691 91.9908L96.0231 92.9977L101.742 96.4854Z" fill="black" fill-opacity="0.7"/>
<path opacity="0.3" d="M109.473 112.312C107.774 115.21 100.121 114.761 100.121 114.761C100.692 113.699 102.723 112.161 103.16 110.642C103.855 108.198 105.2 113.447 105.2 113.447C109.979 111.475 108.474 93.515 108.345 92.0549L110.592 92.1968C110.592 92.1968 111.176 109.424 109.473 112.312Z" fill="black" fill-opacity="0.7"/>
<path d="M109.473 112.312C107.774 115.209 100.121 114.761 100.121 114.761L99.9875 115.315L91.4185 151.17L92.5052 152.543L91.4185 156.255C90.2858 157.464 80.2987 155.619 79.2304 154.122L80.202 151.175C80.202 151.175 80.7407 116.605 81.5833 110.179V110.147C81.6144 109.851 81.6745 109.558 81.7629 109.273L64.5191 111.402C64.5191 111.402 66.2503 143.509 67.71 145.298C69.1696 147.088 67.8896 149.976 67.8896 149.976L68.8105 154.351C68.8105 154.351 64.2888 154.036 59.8409 153.894C58.92 153.866 57.9991 153.848 57.1427 153.843C56.9908 153.446 56.8647 153.039 56.7651 152.626C56.5303 151.733 57.4281 149.967 57.4281 149.967L56.6039 148.9C56.6039 148.9 57.0368 145.738 57.0368 144.749C57.0368 143.76 45.9445 108.051 47.0082 105.763C50.5536 98.0781 69.0775 93.0618 77.3288 91.1807C79.7599 90.6223 81.3025 90.3385 81.3025 90.3385L107.695 92.0045L108.363 92.032L110.61 92.1739C110.61 92.1739 111.176 109.424 109.473 112.312Z" stroke="#263238" stroke-width="0.463799" stroke-linecap="round" stroke-linejoin="round"/>
<path d="M81.7858 109.269C81.7858 109.269 81.6661 103.561 83.1211 102.472C84.5762 101.383 91.5013 101.204 93.3247 101.557C95.1481 101.909 99.3336 106.083 99.3336 106.083" stroke="#263238" stroke-width="0.463799" stroke-linecap="round" stroke-linejoin="round"/>
<path d="M96.8105 97.2223C96.8105 97.2223 85.8564 99.2133 83.1213 102.472" stroke="#263238" stroke-width="0.463799" stroke-linecap="round" stroke-linejoin="round"/>
<path d="M88.6559 99.378C88.6559 99.378 75.068 99.9364 69.9893 97.2223" stroke="#263238" stroke-width="0.463799" stroke-linecap="round" stroke-linejoin="round"/>
<path d="M57.4648 116.235C59.675 117.864 64.542 111.397 64.542 111.397C64.542 111.397 59.454 112.171 59.2652 111.397C59.0764 110.624 61.0702 110.624 61.0702 110.624" stroke="#263238" stroke-width="0.463799" stroke-linecap="round" stroke-linejoin="round"/>
<path d="M100.121 114.761C100.121 114.761 103.16 111.708 103.16 110.642C103.16 109.575 104.238 112.367 103.16 113.576" stroke="#263238" stroke-width="0.463799" stroke-linecap="round" stroke-linejoin="round"/>
<path d="M94.2366 120.217C94.2366 120.217 87.7489 135.247 83.1213 136.877" stroke="#263238" stroke-width="0.463799" stroke-linecap="round" stroke-linejoin="round"/>
<path d="M119.478 55.1329C117.613 51.1464 105.637 48.9403 99.8217 48.1164C94.0062 47.2926 87.8085 47.5535 85.3175 47.4345C82.8265 47.3155 81.132 61.0508 81.132 61.0508C81.132 61.0508 82.0529 80.4844 82.1957 84.6128C82.3519 84.9272 82.41 85.2809 82.3624 85.6283C82.3148 85.9758 82.1637 86.3012 81.9286 86.5626C81.4044 87.1511 81.0819 87.89 81.0077 88.6726L79.2488 90.2287C79.2488 90.2287 86.5791 93.3227 90.4147 96.9797C94.8396 101.2 99.8217 87.0249 110.955 103.845C110.955 103.845 112.622 100.829 112.36 100.142C112.097 99.4558 113.115 94.0642 112.88 93.4554C112.645 92.8467 112.995 75.2027 112.995 75.2027L114.188 75.9945C114.188 75.9945 116.821 72.7311 123.061 75.2988L123.714 72.1407L122.793 71.2802C122.793 71.2802 121.279 58.9866 119.478 55.1329Z" fill="#263238"/>
<path d="M107.967 40.5278C107.967 40.5278 104.523 42.5783 105.914 49.7641C105.914 49.7641 100.72 53.0686 95.9448 49.2148C95.9448 49.2148 97.3814 43.6218 96.2948 42.4273" fill="white"/>
<path d="M107.967 40.5278C107.967 40.5278 104.523 42.5783 105.914 49.7641C105.914 49.7641 100.72 53.0686 95.9448 49.2148C95.9448 49.2148 97.3814 43.6218 96.2948 42.4273" stroke="#263238" stroke-width="0.463799" stroke-linecap="round" stroke-linejoin="round"/>
<path d="M100.466 25.868C100.466 25.868 97.5195 25.273 96.2947 28.8521C95.5772 31.0364 95.7003 33.4076 96.6401 35.507L102.377 30.6692L100.466 25.868Z" fill="#263238"/>
<path d="M106.834 42.6011C110.896 38.2622 113.994 30.843 108.405 27.5293C97.6254 21.1217 93.3708 32.3168 94.6877 43.0176C95.0929 46.3085 99.6191 45.0818 102.948 44.0703" fill="white"/>
<path d="M106.834 42.6011C110.896 38.2622 113.994 30.843 108.405 27.5293C97.6254 21.1217 93.3708 32.3168 94.6877 43.0176C95.0929 46.3085 99.6191 45.0818 102.948 44.0703" stroke="#263238" stroke-width="0.463799" stroke-linecap="round" stroke-linejoin="round"/>
<path d="M99.6145 32.358C99.6145 32.358 101.415 32.9393 101.829 33.9371" stroke="#263238" stroke-width="0.463799" stroke-linecap="round" stroke-linejoin="round"/>
<path d="M96.9854 31.7403C96.7741 31.6237 96.5364 31.5625 96.2947 31.5625C96.053 31.5625 95.8153 31.6237 95.604 31.7403" stroke="#263238" stroke-width="0.463799" stroke-linecap="round" stroke-linejoin="round"/>
<path d="M100.686 34.9802C100.736 34.6549 100.606 34.3657 100.397 34.3342C100.189 34.3027 99.979 34.5409 99.9294 34.8663C99.8798 35.1916 100.009 35.4808 100.218 35.5123C100.427 35.5438 100.636 35.3056 100.686 34.9802Z" fill="#263238"/>
<path d="M96.7632 33.8082C96.8128 33.4829 96.6836 33.1937 96.4747 33.1622C96.2657 33.1307 96.0561 33.3689 96.0065 33.6943C95.9569 34.0196 96.0861 34.3088 96.2951 34.3403C96.5041 34.3718 96.7136 34.1336 96.7632 33.8082Z" fill="#263238"/>
<path d="M105.407 37.2921C105.407 37.2921 103.565 39.6767 102.359 40.409C101.59 40.8448 100.684 40.9756 99.8219 40.7751C99.8219 40.7751 98.4406 38.894 96.2949 38.7567C95.7583 38.3765 95.1377 38.1301 94.4853 38.0381L94.7477 35.292C94.7477 35.292 92.8093 41.1276 92.8553 43.2513C92.9013 45.3749 98.063 47.1188 100.72 46.6611C103.377 46.2034 104.91 42.2169 105.909 38.4226C105.987 38.1251 105.407 37.2921 105.407 37.2921Z" fill="#263238"/>
<path d="M97.1926 32.9897C97.1926 33.5024 94.2504 36.4957 94.1813 37.1868C94.1122 37.8779 96.7091 38.0472 96.7091 38.0472" fill="white"/>
<path d="M97.1926 32.9897C97.1926 33.5024 94.2504 36.4957 94.1813 37.1868C94.1122 37.8779 96.7091 38.0472 96.7091 38.0472" stroke="#263238" stroke-width="0.463799" stroke-linecap="round" stroke-linejoin="round"/>
<path d="M94.7017 40.0428C94.7017 40.0428 96.723 41.1367 98.574 40.9994" stroke="white" stroke-width="0.463799" stroke-linecap="round" stroke-linejoin="round"/>
<path d="M105.453 29.493C106.158 28.9758 104.532 27.8407 103.561 27.8407C102.589 27.8407 99.085 27.4745 99.085 27.4745C99.085 27.4745 97.5149 25.2273 99.4764 24.0373C101.438 22.8473 104.482 23.3782 104.482 23.3782C104.094 23.4215 103.734 23.6018 103.469 23.8862C103.469 23.8862 105.96 23.932 107.019 24.8474C108.078 25.7628 108.681 26.6369 109.837 27.3235C110.992 28.01 112.42 31.4061 111.821 34.1889C111.222 36.9716 109.441 41.8644 106.613 43.21C106.613 43.21 105.669 43.0635 106.282 42.4456C109.141 39.5576 106.604 33.7083 105.909 38.3951L104.988 37.7863C105.01 37.2679 105.09 36.7536 105.227 36.2531C105.499 34.999 102.129 31.9233 105.453 29.493Z" fill="#263238"/>
<path d="M106.696 37.0174C106.696 37.0174 108.538 35.0493 109.555 35.8045C110.573 36.5597 109.744 38.9855 109.141 39.5851C108.538 40.1846 108.082 40.2853 107.248 41.2373C106.415 42.1893 105.453 41.8003 105.637 41.0131" fill="white"/>
<path d="M106.696 37.0174C106.696 37.0174 108.538 35.0493 109.555 35.8045C110.573 36.5597 109.744 38.9855 109.141 39.5851C108.538 40.1846 108.082 40.2853 107.248 41.2373C106.415 42.1893 105.453 41.8003 105.637 41.0131" stroke="#263238" stroke-width="0.463799" stroke-linecap="round" stroke-linejoin="round"/>
<path d="M123.632 83.9126C123.074 86.0866 122.347 89.3454 119.027 89.3454C115.707 89.3454 105.932 79.5691 105.932 79.5691L110.053 76.292L114.809 77.8802C114.809 77.8802 118.396 78.6033 119.791 79.8116" fill="white"/>
<path d="M123.632 83.9126C123.074 86.0866 122.347 89.3454 119.027 89.3454C115.707 89.3454 105.932 79.5691 105.932 79.5691L110.053 76.292L114.809 77.8802C114.809 77.8802 118.396 78.6033 119.791 79.8116" stroke="#263238" stroke-width="0.463799" stroke-linecap="round" stroke-linejoin="round"/>
<path d="M105.914 51.0822C105.914 51.0822 99.9507 54.0983 95.908 51.5627" stroke="white" stroke-width="0.463799" stroke-linecap="round" stroke-linejoin="round"/>
<path d="M84.217 85.844C84.217 85.844 92.938 92.4897 99.3843 92.3661" stroke="white" stroke-width="0.463799" stroke-linecap="round" stroke-linejoin="round"/>
<path d="M104.707 74.8319C104.707 74.8319 98.1825 85.9675 88.1033 83.4319" stroke="white" stroke-width="0.463799" stroke-linecap="round" stroke-linejoin="round"/>
<path d="M114.772 54.4005C114.772 54.4005 107.801 60.7075 110.034 65.971" stroke="white" stroke-width="0.463799" stroke-linecap="round" stroke-linejoin="round"/>
<path d="M117.963 62.9777L116.964 61.7419C116.964 61.7419 108.547 62.7123 104.781 67.6919C104.781 67.6919 97.8509 64.4377 91.6349 66.0214L91.4507 68.2412L105.08 76.3423L110.412 74.182L117.963 62.9777Z" fill="white" stroke="#263238" stroke-width="0.463799" stroke-linecap="round" stroke-linejoin="round"/>
<path d="M119.331 62.2408L117.894 71.7608C117.894 71.7608 109.96 75.2256 108.303 78.0083L107.911 78.0633L106.07 78.3196L105.061 78.0266C102.6 77.3118 100.092 76.7659 97.556 76.3927C96.6786 76.2589 95.7888 76.2251 94.9038 76.292L89.5349 67.9757C89.5349 67.9757 97.823 66.8361 103.579 68.7904L106.341 68.5982L106.443 68.5112C107.221 67.8476 113.004 63.2798 119.331 62.2408Z" fill="#FFB748"/>
<path opacity="0.3" d="M107.811 75.8433L106.402 68.5203C107.221 67.8566 113.004 63.2888 119.331 62.2499L117.894 71.7699C117.894 71.7699 109.961 75.2346 108.303 78.0174L107.912 78.0723L107.811 75.8433Z" fill="black" fill-opacity="0.7"/>
<path opacity="0.3" d="M105.08 76.3606L105.039 78.0266C102.577 77.3118 100.07 76.7658 97.5332 76.3926C98.0673 70.3007 103.685 69.3304 103.685 69.3304L105.08 76.3606Z" fill="black" fill-opacity="0.7"/>
<path d="M119.331 62.2408L117.894 71.7608C117.894 71.7608 109.96 75.2256 108.303 78.0083L107.911 78.0633L106.07 78.3196L105.061 78.0266C102.6 77.3118 100.092 76.7659 97.556 76.3927C96.6786 76.2589 95.7888 76.2251 94.9038 76.292L89.5349 67.9757C89.5349 67.9757 97.823 66.8361 103.579 68.7904L106.341 68.5982L106.443 68.5112C107.221 67.8476 113.004 63.2798 119.331 62.2408Z" stroke="#263238" stroke-width="0.463799" stroke-linecap="round" stroke-linejoin="round"/>
<path d="M110.688 76.974C110.688 76.0129 111.195 73.2255 111.536 72.9692C111.876 72.7129 111.747 70.8592 112.387 70.0262C113.027 69.1932 111.678 69.1978 110.909 69.5685C110.14 69.9393 108.953 71.9348 108.566 72.2552C107.892 72.6475 107.122 72.8471 106.342 72.8319C105.762 72.7678 102.304 70.4519 101.654 70.5434C101.245 70.5938 97.3998 70.159 97.3998 70.159C97.3998 70.159 96.4789 70.992 97.013 71.3124C97.5472 71.6327 98.4312 72.2048 98.4312 72.2048C98.4312 72.2048 97.3998 72.8456 98.1734 73.6145C98.7423 74.2744 99.1981 75.0228 99.5225 75.8298C99.5225 75.8298 104.933 80.1641 107.774 80.3426" fill="white"/>
<path d="M110.688 76.974C110.688 76.0129 111.195 73.2255 111.536 72.9692C111.876 72.7129 111.747 70.8592 112.387 70.0262C113.027 69.1932 111.678 69.1978 110.909 69.5685C110.14 69.9393 108.953 71.9348 108.566 72.2552C107.892 72.6475 107.122 72.8471 106.342 72.8319C105.762 72.7678 102.304 70.4519 101.654 70.5434C101.245 70.5938 97.3998 70.159 97.3998 70.159C97.3998 70.159 96.4789 70.992 97.013 71.3124C97.5472 71.6327 98.4312 72.2048 98.4312 72.2048C98.4312 72.2048 97.3998 72.8456 98.1734 73.6145C98.7423 74.2744 99.1981 75.0228 99.5225 75.8298C99.5225 75.8298 104.933 80.1641 107.774 80.3426" stroke="#263238" stroke-width="0.463799" stroke-linecap="round" stroke-linejoin="round"/>
<path d="M98.4309 72.2002C99.185 72.2859 99.9203 72.4914 100.609 72.8089" stroke="#263238" stroke-width="0.463799" stroke-linecap="round" stroke-linejoin="round"/>
<path d="M101.277 73.7244C101.277 73.7244 101.037 74.6947 100.973 74.8411C100.908 74.9876 101.765 75.9396 101.641 76.3698C101.516 76.8001 102.515 77.9763 102.515 77.9763" stroke="#263238" stroke-width="0.463799" stroke-linecap="round" stroke-linejoin="round"/>
<path d="M100.305 74.8319C100.305 74.8319 98.3667 73.8662 98.1733 73.6099" stroke="#263238" stroke-width="0.463799" stroke-linecap="round" stroke-linejoin="round"/>
<path opacity="0.3" d="M81.6064 110.143C81.6375 109.846 81.6977 109.554 81.786 109.269L81.6064 110.143Z" fill="black" fill-opacity="0.7"/>
<path opacity="0.3" d="M99.9873 115.315C99.9767 115.121 100.023 114.929 100.122 114.761L99.9873 115.315Z" fill="black" fill-opacity="0.7"/>
<path d="M84.2173 49.9518C84.2173 49.9518 80.5659 59.307 83.1214 66.6484" stroke="white" stroke-width="0.463799" stroke-linecap="round" stroke-linejoin="round"/>
<path d="M56.8985 51.0823C56.8985 51.0823 58.8416 47.7961 57.87 45.8052C56.8985 43.8142 55.204 39.2235 55.3053 37.109C55.3053 37.109 53.4313 37.109 53.9838 40.0245C54.1382 41.0869 54.1382 42.1659 53.9838 43.2284C53.9838 43.2284 52.8833 46.6702 53.795 48.7985" fill="white"/>
<path d="M56.8985 51.0823C56.8985 51.0823 58.8416 47.7961 57.87 45.8052C56.8985 43.8142 55.204 39.2235 55.3053 37.109C55.3053 37.109 53.4313 37.109 53.9838 40.0245C54.1382 41.0869 54.1382 42.1659 53.9838 43.2284C53.9838 43.2284 52.8833 46.6702 53.795 48.7985" stroke="#263238" stroke-width="0.463799" stroke-linecap="round" stroke-linejoin="round"/>
<path d="M70.9976 63.7466C71.5696 64.8146 71.819 66.0241 71.7159 67.2296" stroke="#263238" stroke-width="0.463799" stroke-linecap="round" stroke-linejoin="round"/>
<path d="M111.246 67.994L110.154 67.0283L109.234 68.4975L109.114 66.6667C109.097 66.347 109.011 66.0347 108.861 65.7513L110.67 64.7902L110.827 64.9366C111.018 65.3504 111.13 65.7958 111.158 66.2502L111.246 67.994Z" fill="white" stroke="#263238" stroke-width="0.463799" stroke-linecap="round" stroke-linejoin="round"/>
<path d="M107.976 66.3693C108.718 65.9665 110.421 65.0328 111.499 64.4882C111.572 64.4516 111.522 64.2822 111.443 64.3051C110.091 64.5847 108.855 65.2606 107.893 66.2457C107.847 66.2961 107.903 66.4013 107.976 66.3693Z" fill="#263238"/>
</g>
</svg>
