<svg width="330" height="327" fill="none" xmlns="http://www.w3.org/2000/svg"><g clip-path="url(#a)"><path fill-rule="evenodd" clip-rule="evenodd" d="M59.443 69.326s21.691 2.834 41.905 11.443c10.107 4.23 20.235 8.525 27.452 12.819 5.845 5.69 11.584 8.609 11.584 8.609 7.238 5.69 18.822 4.231 24.582-2.92 7.238-8.524 5.825-18.508-2.89-24.261-1.392-1.396-23.084-18.593-47.73-27.118C88.372 36.455 66.68 33.6 65.203 33.6c-10.107-1.46-18.822 5.69-20.214 14.3-1.478 9.983 4.261 18.592 14.454 21.427Zm60.727-34.331c11.585 1.46 23.105 8.588 23.105 8.588 7.238 5.69 18.801 2.855 24.647-5.669 5.76-7.15 2.869-18.593-5.846-24.347-1.392-1.396-15.846-9.984-33.276-12.84-8.63-2.834-18.737 2.856-21.692 12.84-1.391 10.048 4.347 18.572 13.062 21.428Zm-92.61 78.582c1.478 0 26.06 2.919 59.336 17.197 36.167 15.674 53.49 34.267 53.49 34.267v-1.459c5.846 8.588 15.953 11.443 24.582 4.294 8.716-5.69 10.172-17.134 4.347-24.262-1.392-2.856-21.691-25.743-66.487-44.336-39.1-18.509-68.03-19.968-69.422-19.968-10.128-1.46-18.822 5.69-20.3 14.278-1.412 10.005 5.825 18.593 14.455 19.989Zm234.366 132.881c-27.516 30.037-54.968 38.561-70.921 40.021-1.391-17.134 1.478-47.171 28.929-77.123 26.06-27.202 56.445-35.727 73.79-38.646-1.478 20.053-8.694 51.465-31.798 75.748Zm-122.931 40.021c-15.931-1.46-43.383-9.984-70.92-40.021-23.083-24.283-30.32-55.695-31.798-75.748 18.822 2.919 47.751 11.444 73.789 38.646 27.452 29.952 30.321 59.989 28.929 77.123Zm190.897-135.737c0-8.588-7.238-15.738-15.932-17.134-2.891 0-66.487-4.294-120.063 51.401-12.998 14.278-23.105 30.037-28.929 44.315-5.76-14.278-14.454-30.037-28.929-44.315-53.49-55.695-117.108-51.401-119.977-51.401-8.716 1.396-14.476 8.546-15.953 17.134 0 2.856-4.347 69.994 41.926 119.999 53.576 58.593 107.066 55.758 124.411 55.758 14.453 0 67.965 2.835 121.454-55.758 46.338-50.005 41.992-117.143 41.992-119.999Z" fill="#FFB748"/></g><defs><clipPath id="a"><path fill="#fff" d="M0 0h330v327H0z"/></clipPath></defs></svg>