<svg width="145" height="120" viewBox="0 0 145 120" fill="none" xmlns="http://www.w3.org/2000/svg">
<mask id="mask0_3_1553" style="mask-type:alpha" maskUnits="userSpaceOnUse" x="0" y="0" width="145" height="120">
<path d="M142.44 43.4214C137.3 26.7215 124.082 13.3534 108.447 6.29647C93.5261 -0.417483 74.6714 -3.75244 60.5264 6.60794C51.2177 13.4194 45.9477 24.3367 37.4208 31.9788C33.1827 35.7762 28.5585 37.0127 23.4942 39.2842C11.2103 44.8215 0.929971 55.4996 0.0722181 69.5851C-1.31411 93.15 17.4678 109.428 38.4274 114.774C66.1223 121.834 86.8223 121.834 105.845 114.207C115.723 110.246 125.785 105.238 132.9 97.0355C143.662 84.6333 146.647 67.0147 144.197 51.1013C143.8 48.5022 143.213 45.9354 142.44 43.4214Z" fill="white"/>
</mask>
<g mask="url(#mask0_3_1553)">
<path opacity="0.1" d="M142.44 43.4214C137.3 26.7215 124.082 13.3534 108.447 6.29647C93.5261 -0.417483 74.6714 -3.75244 60.5264 6.60794C51.2177 13.4194 45.9477 24.3367 37.4208 31.9788C33.1827 35.7762 28.5585 37.0127 23.4942 39.2842C11.2103 44.8215 0.929971 55.4996 0.0722181 69.5851C-1.31411 93.15 17.4678 109.428 38.4274 114.774C66.1223 121.834 86.8223 121.834 105.845 114.207C115.723 110.246 125.785 105.238 132.9 97.0355C143.662 84.6333 146.647 67.0147 144.197 51.1013C143.8 48.5022 143.213 45.9354 142.44 43.4214Z" fill="white"/>
<path d="M101.695 83.9947L87.87 77.5953C85.9108 77.1926 83.9516 76.7742 81.9924 76.3715C80.5238 76.0726 78.8842 75.7265 77.3143 75.8303C75.507 75.953 73.6934 76.5602 71.9083 76.8749C70.5156 77.1203 69.1103 77.3122 67.7239 77.5953L53.9018 83.9947L39.0256 114.302H114.568L101.695 83.9947Z" fill="#FFB748" stroke="#263238" stroke-width="0.438873" stroke-miterlimit="10"/>
<path d="M53.5315 113.754L57.5639 94.9937" stroke="#263238" stroke-width="0.438873" stroke-miterlimit="10"/>
<path d="M56.6996 99.1466L55.6931 93.1311" stroke="#263238" stroke-width="0.438873" stroke-miterlimit="10"/>
<path d="M101.654 113.754L97.6218 94.9937" stroke="#263238" stroke-width="0.438873" stroke-miterlimit="10"/>
<path d="M98.4858 99.1466L99.4955 93.1311" stroke="#263238" stroke-width="0.438873" stroke-miterlimit="10"/>
<path d="M69.5881 70.076V75.9216C69.5881 75.9216 74.3928 81.4368 75.2221 81.9308C76.109 82.4118 77.1122 82.6404 78.1213 82.5915C78.8683 82.5097 82.1822 80.2854 82.5937 79.7914C83.0052 79.2974 84.996 75.5912 84.996 75.5912L84.7491 69.4153L69.5881 70.076Z" fill="white" stroke="#263238" stroke-width="0.438873" stroke-miterlimit="10"/>
<path d="M69.5691 70.79C69.5691 70.79 74.5573 77.0478 76.7255 77.1327C79.0107 77.2208 84.6636 70.79 84.6636 70.79H69.5691Z" fill="#263238"/>
<path d="M68.4298 61.5938C68.4298 61.5938 67.1036 60.2756 66.2744 61.512C65.4451 62.7485 65.6128 63.6514 66.7713 65.4636C67.9297 67.2758 69.009 66.9455 69.2591 66.1212C69.5091 65.2969 68.4298 61.5938 68.4298 61.5938Z" fill="white" stroke="#263238" stroke-width="0.438873" stroke-miterlimit="10"/>
<path d="M85.8413 61.5938C85.8413 61.5938 87.1675 60.2756 87.9967 61.512C88.826 62.7485 88.6582 63.6514 87.4998 65.4636C86.3414 67.2758 85.262 66.9455 85.0152 66.1212C84.7683 65.2969 85.8413 61.5938 85.8413 61.5938Z" fill="white" stroke="#263238" stroke-width="0.438873" stroke-miterlimit="10"/>
<path d="M83.8124 49.7327C80.2896 47.48 73.8169 47.4391 70.2529 49.7327C67.4359 51.5449 67.6828 54.0965 67.7683 58.627C67.7683 58.627 68.5121 68.9181 69.009 70.0728C69.3825 70.9348 72.6331 73.2756 74.2441 74.3956C74.8379 74.8127 75.546 75.0389 76.273 75.0438C76.5041 75.0438 76.7541 75.0438 77.0105 75.0438C77.2669 75.0438 77.5137 75.0438 77.7448 75.0438C78.4622 75.0397 79.1616 74.8204 79.7515 74.4145C81.372 73.3008 84.6891 70.9537 85.0658 70.0759C85.5658 68.9213 86.3318 58.6301 86.3318 58.6301C86.4014 54.0996 86.6515 51.5481 83.8124 49.7327Z" fill="white" stroke="#263238" stroke-width="0.438873" stroke-miterlimit="10"/>
<path d="M83.8124 49.7327C80.2896 47.48 73.8169 47.4391 70.2529 49.7327C67.4359 51.5449 67.6828 54.0965 67.7683 58.627C67.7683 58.627 67.8347 59.5457 67.9392 60.8639L68.3475 60.6846V56.9689C68.3475 56.9689 69.756 56.0628 70.1706 54.9113C70.5852 53.7598 70.9144 51.9476 71.826 51.6173C72.7375 51.2869 75.3076 53.0865 78.3715 52.344C81.4353 51.6015 82.0969 50.7112 83.3408 52.193C84.5847 53.6749 84.4169 55.7325 84.9233 56.475L85.9172 57.9568L85.6703 61.4994L86.0881 61.6379C86.2305 59.9138 86.3255 58.6175 86.3255 58.6175C86.4014 54.0996 86.6515 51.5481 83.8124 49.7327Z" fill="#263238" stroke="#263238" stroke-width="0.438873" stroke-miterlimit="10"/>
<path d="M76.1177 56.7708C75.9246 56.7103 75.7248 56.6733 75.5227 56.6607C73.3662 56.4431 71.194 56.4252 69.0341 56.6072C67.8789 56.7047 67.8282 56.9029 68.1416 57.8846C68.2929 58.5202 68.3778 59.1696 68.3948 59.8226C68.4132 60.4802 68.6591 61.1113 69.0911 61.6096C69.5694 62.0163 70.1742 62.2464 70.8034 62.2609C71.5869 62.3007 72.3723 62.2648 73.1488 62.1539C73.9116 62.0658 74.7314 61.9557 75.3043 61.4618C75.8772 60.9678 76.1399 60.1215 76.219 59.3381C76.2981 58.5547 76.2665 57.7493 76.4722 56.9847C76.3713 56.8883 76.2503 56.8153 76.1177 56.7708Z" fill="#9C9C9C" stroke="#263238" stroke-width="0.877746" stroke-linecap="round" stroke-linejoin="round"/>
<path d="M78.2354 56.7708C78.4285 56.7103 78.6283 56.6733 78.8304 56.6607C80.9869 56.4431 83.1591 56.4252 85.3189 56.6072C86.4742 56.7047 86.5248 56.9029 86.2115 57.8846C86.0601 58.5202 85.9753 59.1696 85.9583 59.8226C85.9398 60.4802 85.6939 61.1113 85.262 61.6096C84.7837 62.0163 84.1788 62.2464 83.5496 62.2609C82.7662 62.3008 81.9807 62.2649 81.2043 62.1539C80.4415 62.0658 79.6217 61.9557 79.0488 61.4618C78.4759 60.9678 78.2132 60.1215 78.1341 59.3381C78.0549 58.5547 78.0866 57.7493 77.8809 56.9847C77.9817 56.8883 78.1028 56.8153 78.2354 56.7708Z" fill="#9C9C9C" stroke="#263238" stroke-width="0.877746" stroke-linecap="round" stroke-linejoin="round"/>
<path d="M76.4724 56.9846H77.6245" stroke="#263238" stroke-width="0.877746" stroke-linecap="round" stroke-linejoin="round"/>
<path d="M76.4661 58.2273C76.4661 58.2273 77.2099 57.0726 77.9568 58.2273" stroke="#263238" stroke-width="0.877746" stroke-linecap="round" stroke-linejoin="round"/>
<path d="M67.9328 56.818C67.9328 56.818 67.1858 58.3911 67.9328 61.8519" stroke="#263238" stroke-width="0.877746" stroke-linecap="round" stroke-linejoin="round"/>
<path d="M86.3159 56.818C86.3159 56.818 87.0597 58.3911 86.3159 61.8519" stroke="#263238" stroke-width="0.877746" stroke-linecap="round" stroke-linejoin="round"/>
<path d="M70.4175 55.6631C70.4175 55.6631 73.1427 54.6721 74.8075 55.8299" stroke="#263238" stroke-width="0.877746" stroke-linecap="round" stroke-linejoin="round"/>
<path d="M79.283 55.912C79.283 55.912 81.0301 54.062 83.1761 55.3362" stroke="#263238" stroke-width="0.877746" stroke-linecap="round" stroke-linejoin="round"/>
<path d="M74.8899 63.1574C75.0131 63.4526 75.2143 63.7091 75.4723 63.8999C75.7888 64.0635 76.9631 64.0635 78.0392 63.9817C78.3624 63.9517 78.6739 63.8466 78.9488 63.675C79.2237 63.5034 79.4542 63.2701 79.6218 62.9938" stroke="#263238" stroke-width="0.438873" stroke-miterlimit="10"/>
<path d="M75.719 66.6149H78.7006" stroke="#263238" stroke-width="0.438873" stroke-miterlimit="10"/>
<path d="M74.9878 81.6035C74.9878 81.6035 76.5704 82.3429 77.3902 82.2611C78.2099 82.1793 79.5425 81.5186 79.5425 81.5186L81.125 83.4975L78.786 86.6248H76.2191L73.4844 83.4975L74.9878 81.6035Z" fill="white" stroke="#263238" stroke-width="0.438873" stroke-miterlimit="10"/>
<path d="M84.3914 114.327L78.7859 86.6246H76.2158L72.1328 114.327H84.3914Z" fill="white" stroke="#263238" stroke-width="0.438873" stroke-miterlimit="10"/>
<path d="M75.6369 81.5091L71.576 87.1093C71.576 87.1093 67.3537 79.9455 66.9391 78.7939C66.5244 77.6424 67.5183 76.3242 67.5183 76.3242C67.5183 76.3242 68.9268 73.9362 69.2591 74.018C69.5914 74.0998 75.6369 81.5091 75.6369 81.5091Z" fill="white" stroke="#263238" stroke-width="0.438873" stroke-miterlimit="10"/>
<path d="M78.5994 81.5091L82.6602 87.1093C82.6602 87.1093 86.8857 79.9455 87.3003 78.7939C87.715 77.6424 86.7179 76.3242 86.7179 76.3242C86.7179 76.3242 85.3095 73.9362 84.9803 74.018C84.6511 74.0998 78.5994 81.5091 78.5994 81.5091Z" fill="white" stroke="#263238" stroke-width="0.438873" stroke-miterlimit="10"/>
<path d="M49.787 106.647L54.2182 114.302H38.3925L37.655 106.855L49.787 106.647Z" fill="white" stroke="#263238" stroke-width="0.438873" stroke-miterlimit="10"/>
<path d="M43.0359 98.9894C43.0359 98.9894 47.9957 100.669 49.5782 101.088C51.1608 101.506 53.2688 101.717 53.5853 102.346C53.9018 102.976 56.225 104.234 57.3835 104.549C58.5419 104.863 60.8651 104.445 61.0772 105.493C61.2892 106.54 60.5486 107.591 59.2825 108.324C58.0165 109.057 54.7469 108.85 53.7974 108.428C52.8478 108.006 51.8983 106.647 50.7367 106.54C49.5751 106.433 48.3122 107.906 46.9385 108.22C45.5648 108.535 42.1908 108.428 41.2413 108.428C40.2917 108.428 35.7561 108.85 34.7021 108.639C33.6481 108.428 30.9039 106.962 30.2709 106.962C29.6379 106.962 29.1093 104.445 30.5874 103.394C32.0655 102.343 37.3386 101.403 38.0761 101.088L43.0359 98.9894Z" fill="white" stroke="#263238" stroke-width="0.438873" stroke-miterlimit="10"/>
<path d="M29.8467 103.501C29.8467 103.501 27.2101 104.76 26.8936 105.282C26.5771 105.804 26.7892 108.743 27.2101 110.316C27.6311 111.889 28.4762 113.884 29.3213 113.987C30.1664 114.091 30.3753 113.147 30.2708 111.785C30.1664 110.423 29.6378 107.17 29.7422 106.333C29.8467 105.496 29.8467 103.501 29.8467 103.501Z" fill="white" stroke="#263238" stroke-width="0.438873" stroke-miterlimit="10"/>
<path d="M35.544 102.45C35.544 102.45 31.5369 102.031 31.0083 102.031C30.4797 102.031 29.2137 103.079 29.0048 104.445C28.7959 105.81 29.3213 111.574 29.6378 112.099C29.9543 112.625 32.4864 112.625 32.8029 112.203C33.1195 111.782 33.2239 106.225 33.2239 106.225L35.0185 106.018L35.544 102.45Z" fill="white" stroke="#263238" stroke-width="0.438873" stroke-miterlimit="10"/>
<path d="M39.2376 99.5148C39.2376 99.5148 38.1837 98.9894 36.4935 99.411C34.8033 99.8326 34.1734 100.562 34.1734 102.45C34.1734 104.338 34.069 107.695 34.702 108.639C35.335 109.583 36.2846 111.785 37.022 112.203C37.7595 112.622 39.4497 112.729 39.8707 112.1C40.2916 111.47 39.5542 107.169 39.5542 106.018C39.5542 104.866 39.2376 99.5148 39.2376 99.5148Z" fill="white" stroke="#263238" stroke-width="0.438873" stroke-miterlimit="10"/>
<path d="M45.78 100.248C45.78 100.248 41.4533 97.7307 40.7158 97.7307C39.9783 97.7307 38.6047 98.8854 38.1837 99.8292C37.7628 100.773 37.8672 105.389 37.8672 106.122C37.8672 106.855 39.5542 110.315 39.6587 110.737C39.7631 111.159 39.5542 112.31 40.3993 112.414C41.2444 112.518 43.7734 112.625 43.9854 111.052C44.1975 109.479 42.9314 105.282 42.9314 105.282L43.2479 102.346" fill="white"/>
<path d="M45.78 100.248C45.78 100.248 41.4533 97.7307 40.7158 97.7307C39.9783 97.7307 38.6047 98.8854 38.1837 99.8292C37.7628 100.773 37.8672 105.389 37.8672 106.122C37.8672 106.855 39.5542 110.315 39.6587 110.737C39.7631 111.159 39.5542 112.31 40.3993 112.414C41.2444 112.518 43.7734 112.625 43.9854 111.052C44.1975 109.479 42.9314 105.282 42.9314 105.282L43.2479 102.346" stroke="#263238" stroke-width="0.438873" stroke-miterlimit="10"/>
<path d="M43.0356 104.548C43.5374 104.493 44.0219 104.333 44.458 104.08C44.8941 103.827 45.2721 103.486 45.5678 103.079" stroke="#263238" stroke-width="0.438873" stroke-miterlimit="10"/>
<path d="M104.851 106.647L100.42 114.302H116.246L116.983 106.855L104.851 106.647Z" fill="white" stroke="#263238" stroke-width="0.438873" stroke-miterlimit="10"/>
<path d="M111.602 98.9894C111.602 98.9894 106.639 100.669 105.057 101.088C103.474 101.506 101.366 101.717 101.05 102.346C100.733 102.976 98.4099 104.234 97.2515 104.549C96.093 104.863 93.7698 104.445 93.5577 105.493C93.3457 106.54 94.0863 107.591 95.3524 108.324C96.6184 109.057 99.888 108.85 100.838 108.428C101.787 108.006 102.737 106.647 103.898 106.54C105.06 106.433 106.323 107.906 107.696 108.22C109.07 108.535 112.444 108.428 113.394 108.428C114.343 108.428 118.879 108.85 119.933 108.639C120.987 108.428 123.731 106.962 124.364 106.962C124.997 106.962 125.526 104.445 124.048 103.394C122.569 102.343 117.296 101.403 116.559 101.088L111.602 98.9894Z" fill="white" stroke="#263238" stroke-width="0.438873" stroke-miterlimit="10"/>
<path d="M124.997 103.501C124.997 103.501 127.637 104.76 127.953 105.282C128.27 105.804 128.058 108.743 127.637 110.316C127.216 111.889 126.371 113.884 125.526 113.987C124.681 114.091 124.472 113.147 124.576 111.785C124.681 110.423 125.209 107.17 125.105 106.333C125 105.496 124.997 103.501 124.997 103.501Z" fill="#9C9C9C" stroke="#263238" stroke-width="0.438873" stroke-miterlimit="10"/>
<path d="M119.3 102.45C119.3 102.45 123.31 102.031 123.839 102.031C124.367 102.031 125.63 103.079 125.842 104.445C126.054 105.81 125.526 111.574 125.209 112.099C124.893 112.625 122.36 112.625 122.044 112.203C121.727 111.782 121.623 106.225 121.623 106.225L119.828 106.018L119.3 102.45Z" fill="white" stroke="#263238" stroke-width="0.438873" stroke-miterlimit="10"/>
<path d="M115.401 99.5148C115.401 99.5148 116.455 98.9894 118.145 99.411C119.835 99.8326 120.465 100.562 120.465 102.45C120.465 104.338 120.569 107.695 119.936 108.639C119.303 109.583 118.354 111.785 117.616 112.203C116.879 112.622 115.188 112.729 114.768 112.1C114.347 111.47 115.084 107.169 115.084 106.018C115.084 104.866 115.401 99.5148 115.401 99.5148Z" fill="white" stroke="#263238" stroke-width="0.438873" stroke-miterlimit="10"/>
<path d="M108.855 100.248C108.855 100.248 113.181 97.7307 113.919 97.7307C114.656 97.7307 116.03 98.8854 116.451 99.8292C116.872 100.773 116.768 105.389 116.768 106.122C116.768 106.855 115.081 110.315 114.976 110.737C114.872 111.159 115.081 112.31 114.235 112.414C113.39 112.518 110.861 112.625 110.649 111.052C110.437 109.479 111.703 105.282 111.703 105.282L111.387 102.346" fill="white"/>
<path d="M108.855 100.248C108.855 100.248 113.181 97.7307 113.919 97.7307C114.656 97.7307 116.03 98.8854 116.451 99.8292C116.872 100.773 116.768 105.389 116.768 106.122C116.768 106.855 115.081 110.315 114.976 110.737C114.872 111.159 115.081 112.31 114.235 112.414C113.39 112.518 110.861 112.625 110.649 111.052C110.437 109.479 111.703 105.282 111.703 105.282L111.387 102.346" stroke="#263238" stroke-width="0.438873" stroke-miterlimit="10"/>
<path d="M111.602 104.548C111.1 104.493 110.616 104.333 110.18 104.08C109.744 103.827 109.366 103.486 109.07 103.079" stroke="#263238" stroke-width="0.438873" stroke-miterlimit="10"/>
<path d="M30.8469 112.729H26.0327C25.8352 112.729 25.675 112.888 25.675 113.084V114.009C25.675 114.205 25.8352 114.365 26.0327 114.365H30.8469C31.0444 114.365 31.2045 114.205 31.2045 114.009V113.084C31.2045 112.888 31.0444 112.729 30.8469 112.729Z" fill="#263238" stroke="#263238" stroke-width="0.438873" stroke-miterlimit="10"/>
<path d="M37.8449 112.729H33.0308C32.8332 112.729 32.6731 112.888 32.6731 113.084V114.009C32.6731 114.205 32.8332 114.365 33.0308 114.365H37.8449C38.0425 114.365 38.2026 114.205 38.2026 114.009V113.084C38.2026 112.888 38.0425 112.729 37.8449 112.729Z" fill="#263238" stroke="#263238" stroke-width="0.438873" stroke-miterlimit="10"/>
<path d="M44.8432 112.729H40.029C39.8315 112.729 39.6714 112.888 39.6714 113.084V114.009C39.6714 114.205 39.8315 114.365 40.029 114.365H44.8432C45.0408 114.365 45.2009 114.205 45.2009 114.009V113.084C45.2009 112.888 45.0408 112.729 44.8432 112.729Z" fill="#263238" stroke="#263238" stroke-width="0.438873" stroke-miterlimit="10"/>
<path d="M51.8413 112.729H47.0271C46.8296 112.729 46.6694 112.888 46.6694 113.084V114.009C46.6694 114.205 46.8296 114.365 47.0271 114.365H51.8413C52.0388 114.365 52.1989 114.205 52.1989 114.009V113.084C52.1989 112.888 52.0388 112.729 51.8413 112.729Z" fill="#263238" stroke="#263238" stroke-width="0.438873" stroke-miterlimit="10"/>
<path d="M58.8393 112.729H54.0251C53.8276 112.729 53.6675 112.888 53.6675 113.084V114.009C53.6675 114.205 53.8276 114.365 54.0251 114.365H58.8393C59.0368 114.365 59.197 114.205 59.197 114.009V113.084C59.197 112.888 59.0368 112.729 58.8393 112.729Z" fill="#263238" stroke="#263238" stroke-width="0.438873" stroke-miterlimit="10"/>
<path d="M65.8374 112.729H61.0232C60.8257 112.729 60.6655 112.888 60.6655 113.084V114.009C60.6655 114.205 60.8257 114.365 61.0232 114.365H65.8374C66.0349 114.365 66.195 114.205 66.195 114.009V113.084C66.195 112.888 66.0349 112.729 65.8374 112.729Z" fill="#263238" stroke="#263238" stroke-width="0.438873" stroke-miterlimit="10"/>
<path d="M72.8357 112.729H68.0215C67.8239 112.729 67.6638 112.888 67.6638 113.084V114.009C67.6638 114.205 67.8239 114.365 68.0215 114.365H72.8357C73.0332 114.365 73.1933 114.205 73.1933 114.009V113.084C73.1933 112.888 73.0332 112.729 72.8357 112.729Z" fill="#263238" stroke="#263238" stroke-width="0.438873" stroke-miterlimit="10"/>
<path d="M79.8337 112.729H75.0195C74.822 112.729 74.6619 112.888 74.6619 113.084V114.009C74.6619 114.205 74.822 114.365 75.0195 114.365H79.8337C80.0312 114.365 80.1914 114.205 80.1914 114.009V113.084C80.1914 112.888 80.0312 112.729 79.8337 112.729Z" fill="#263238" stroke="#263238" stroke-width="0.438873" stroke-miterlimit="10"/>
<path d="M86.832 112.729H82.0178C81.8203 112.729 81.6602 112.888 81.6602 113.084V114.009C81.6602 114.205 81.8203 114.365 82.0178 114.365H86.832C87.0295 114.365 87.1897 114.205 87.1897 114.009V113.084C87.1897 112.888 87.0295 112.729 86.832 112.729Z" fill="#263238" stroke="#263238" stroke-width="0.438873" stroke-miterlimit="10"/>
<path d="M93.83 112.729H89.0159C88.8183 112.729 88.6582 112.888 88.6582 113.084V114.009C88.6582 114.205 88.8183 114.365 89.0159 114.365H93.83C94.0276 114.365 94.1877 114.205 94.1877 114.009V113.084C94.1877 112.888 94.0276 112.729 93.83 112.729Z" fill="#263238" stroke="#263238" stroke-width="0.438873" stroke-miterlimit="10"/>
<path d="M100.825 112.729H96.0107C95.8132 112.729 95.6531 112.888 95.6531 113.084V114.009C95.6531 114.205 95.8132 114.365 96.0107 114.365H100.825C101.022 114.365 101.183 114.205 101.183 114.009V113.084C101.183 112.888 101.022 112.729 100.825 112.729Z" fill="#263238" stroke="#263238" stroke-width="0.438873" stroke-miterlimit="10"/>
<path d="M107.823 112.729H103.009C102.811 112.729 102.651 112.888 102.651 113.084V114.009C102.651 114.205 102.811 114.365 103.009 114.365H107.823C108.02 114.365 108.181 114.205 108.181 114.009V113.084C108.181 112.888 108.02 112.729 107.823 112.729Z" fill="#263238" stroke="#263238" stroke-width="0.438873" stroke-miterlimit="10"/>
<path d="M114.821 112.729H110.007C109.81 112.729 109.649 112.888 109.649 113.084V114.009C109.649 114.205 109.81 114.365 110.007 114.365H114.821C115.019 114.365 115.179 114.205 115.179 114.009V113.084C115.179 112.888 115.019 112.729 114.821 112.729Z" fill="#263238" stroke="#263238" stroke-width="0.438873" stroke-miterlimit="10"/>
<path d="M121.819 112.729H117.005C116.808 112.729 116.647 112.888 116.647 113.084V114.009C116.647 114.205 116.808 114.365 117.005 114.365H121.819C122.017 114.365 122.177 114.205 122.177 114.009V113.084C122.177 112.888 122.017 112.729 121.819 112.729Z" fill="#263238" stroke="#263238" stroke-width="0.438873" stroke-miterlimit="10"/>
<path d="M128.818 112.729H124.003C123.806 112.729 123.646 112.888 123.646 113.084V114.009C123.646 114.205 123.806 114.365 124.003 114.365H128.818C129.015 114.365 129.175 114.205 129.175 114.009V113.084C129.175 112.888 129.015 112.729 128.818 112.729Z" fill="#263238" stroke="#263238" stroke-width="0.438873" stroke-miterlimit="10"/>
<path d="M131.144 113.767H23.7063V118.338H131.144V113.767Z" fill="#263238" stroke="#263238" stroke-width="0.438873" stroke-miterlimit="10"/>
<path d="M7.9502 118.339H146.9" stroke="#263238" stroke-width="0.438873" stroke-miterlimit="10"/>
</g>
</svg>
