<svg width="145" height="120" viewBox="0 0 145 120" fill="none" xmlns="http://www.w3.org/2000/svg">
<mask id="mask0_3_1752" style="mask-type:alpha" maskUnits="userSpaceOnUse" x="0" y="0" width="145" height="120">
<path d="M142.44 43.4214C137.3 26.7215 124.082 13.3534 108.447 6.29647C93.5261 -0.417483 74.6714 -3.75244 60.5264 6.60794C51.2177 13.4194 45.9477 24.3367 37.4208 31.9788C33.1827 35.7762 28.5585 37.0127 23.4942 39.2842C11.2103 44.8215 0.929971 55.4996 0.0722181 69.5851C-1.31411 93.15 17.4678 109.428 38.4274 114.774C66.1223 121.834 86.8223 121.834 105.845 114.207C115.723 110.246 125.785 105.238 132.9 97.0355C143.662 84.6333 146.647 67.0147 144.197 51.1013C143.8 48.5022 143.213 45.9354 142.44 43.4214Z" fill="white"/>
</mask>
<g mask="url(#mask0_3_1752)">
<path opacity="0.1" d="M142.44 43.4214C137.3 26.7215 124.082 13.3534 108.447 6.29647C93.5261 -0.417483 74.6714 -3.75244 60.5264 6.60794C51.2177 13.4194 45.9477 24.3367 37.4208 31.9788C33.1827 35.7762 28.5585 37.0127 23.4942 39.2842C11.2103 44.8215 0.929971 55.4996 0.0722181 69.5851C-1.31411 93.15 17.4678 109.428 38.4274 114.774C66.1223 121.834 86.8223 121.834 105.845 114.207C115.723 110.246 125.785 105.238 132.9 97.0355C143.662 84.6333 146.647 67.0147 144.197 51.1013C143.8 48.5022 143.213 45.9354 142.44 43.4214Z" fill="white"/>
<path d="M111.374 88.1937C107.844 82.2072 93.242 77.0006 77.0214 76.3491H76.8923L75.2985 76.3047H73.6799L72.0862 76.3491H71.9472C55.7316 76.9907 41.1345 82.2023 37.6044 88.1937C33.836 94.5848 28.2554 104.87 28.2554 104.87C31.3833 109.904 43.3986 110.58 43.3986 110.58L44.039 124.122H104.939L105.58 110.58C105.58 110.58 117.595 109.904 120.723 104.87C120.723 104.87 115.142 94.5848 111.374 88.1937Z" fill="#FFB748" stroke="#263238" stroke-width="0.688436" stroke-linecap="round" stroke-linejoin="round"/>
<path d="M56.5804 119.227C56.5804 119.227 28.5035 123.91 26.4827 120.085C26.268 119.658 26.1302 119.197 26.0756 118.723C25.4153 114.109 29.4419 105.008 29.4419 105.008C32.5648 104.712 35.8417 105.502 38.4632 106.489C40.2965 107.127 42.0532 107.964 43.7013 108.986L43.4928 109.44L43.4232 109.583L49.982 109.79L55.8506 109.978H55.9846L56.5804 119.227Z" fill="white"/>
<path opacity="0.2" d="M43.4928 109.44C37.0681 109.563 34.6303 110.427 34.6303 110.427C35.6509 108.886 36.9506 107.547 38.4633 106.479C40.297 107.12 42.0537 107.961 43.7013 108.986L43.4928 109.44Z" fill="#92E3A9"/>
<path opacity="0.2" d="M56.5805 119.227C56.5805 119.227 28.5036 123.91 26.4828 120.085C26.2681 119.658 26.1303 119.197 26.0757 118.723C26.767 119.004 27.4999 119.171 28.2454 119.217C31.9195 119.345 50.4488 117.07 50.4488 117.07L49.982 109.795V109.558C51.7595 109.647 53.7157 109.781 55.8655 109.983H55.9996L56.5805 119.227Z" fill="#92E3A9"/>
<path d="M56.5804 119.227C56.5804 119.227 28.5035 123.91 26.4827 120.085C26.268 119.658 26.1302 119.197 26.0756 118.723C25.4153 114.109 29.4419 105.008 29.4419 105.008C32.5648 104.712 35.8417 105.502 38.4632 106.489C40.2965 107.127 42.0532 107.964 43.7013 108.986L43.4927 109.44L43.4232 109.583L49.982 109.79L55.8506 109.978H55.9846L56.5804 119.227Z" stroke="#263238" stroke-width="0.688436" stroke-linecap="round" stroke-linejoin="round"/>
<path d="M43.4234 109.583C43.4234 109.583 36.7902 109.405 33.9651 110.693" stroke="#263238" stroke-width="0.688436" stroke-linecap="round" stroke-linejoin="round"/>
<path d="M103.107 107.713C103.107 107.713 100.506 95.7594 105.545 89.9753" stroke="#263238" stroke-width="0.688436" stroke-linecap="round" stroke-linejoin="round"/>
<path d="M107.521 95.9271C107.521 95.9271 104.11 98.3947 103.49 102.387" stroke="#263238" stroke-width="0.688436" stroke-linecap="round" stroke-linejoin="round"/>
<path d="M43.4233 88.5835C46.237 94.7882 46.9191 101.741 45.3646 108.369" stroke="#263238" stroke-width="0.688436" stroke-linecap="round" stroke-linejoin="round"/>
<path d="M40.0818 92.7192C40.0818 92.7192 43.7211 94.9203 45.3645 98.3553" stroke="#263238" stroke-width="0.688436" stroke-linecap="round" stroke-linejoin="round"/>
<path d="M85.5858 77.7704C85.5858 77.7704 80.2038 91.4262 64.1868 84.0233" stroke="#263238" stroke-width="0.688436" stroke-linecap="round" stroke-linejoin="round"/>
<path d="M110.54 87.0291C108.196 88.573 106.428 90.8392 105.506 93.4794" stroke="#263238" stroke-width="0.688436" stroke-linecap="round" stroke-linejoin="round"/>
<path d="M38.4285 87.0291C40.3325 88.1809 41.8324 89.8889 42.7232 91.9199" stroke="#263238" stroke-width="0.688436" stroke-linecap="round" stroke-linejoin="round"/>
<path d="M62.0718 77.3263C62.0718 77.3263 63.8542 84.5959 74.092 84.7637" stroke="#263238" stroke-width="0.688436" stroke-linecap="round" stroke-linejoin="round"/>
<path d="M95.4217 84.7635C95.4217 84.7635 76.386 103.241 62.9011 103.912" stroke="#263238" stroke-width="0.688436" stroke-linecap="round" stroke-linejoin="round"/>
<path d="M52.2263 87.8877C52.2263 87.8877 54.8627 93.7705 59.6738 95.9272" stroke="#263238" stroke-width="0.688436" stroke-linecap="round" stroke-linejoin="round"/>
<path d="M92.532 119.227C92.532 119.227 120.609 123.91 122.63 120.085C122.844 119.658 122.982 119.197 123.037 118.723C123.697 114.109 119.671 105.008 119.671 105.008C116.548 104.712 113.271 105.502 110.649 106.489C108.817 107.129 107.062 107.968 105.416 108.991L105.625 109.445L105.694 109.588L99.1354 109.795L93.2668 109.983H93.1327L92.532 119.227Z" fill="white"/>
<path opacity="0.2" d="M105.619 109.44C112.044 109.563 114.482 110.427 114.482 110.427C113.461 108.886 112.162 107.547 110.649 106.479C108.817 107.119 107.062 107.958 105.416 108.981L105.619 109.44Z" fill="#92E3A9"/>
<path opacity="0.2" d="M92.532 119.227C92.532 119.227 120.609 123.91 122.63 120.085C122.844 119.658 122.982 119.197 123.037 118.723C122.345 119.004 121.613 119.171 120.867 119.217C117.193 119.345 98.6637 117.07 98.6637 117.07L99.1304 109.795V109.558C97.353 109.647 95.3968 109.781 93.2469 109.983H93.1129L92.532 119.227Z" fill="#92E3A9"/>
<path d="M92.532 119.227C92.532 119.227 120.609 123.91 122.63 120.085C122.844 119.658 122.982 119.197 123.037 118.723C123.697 114.109 119.671 105.008 119.671 105.008C116.548 104.712 113.271 105.502 110.649 106.489C108.817 107.129 107.062 107.968 105.416 108.991L105.625 109.445L105.694 109.588L99.1354 109.795L93.2668 109.983H93.1327L92.532 119.227Z" stroke="#263238" stroke-width="0.688436" stroke-linecap="round" stroke-linejoin="round"/>
<path d="M105.689 109.583C105.689 109.583 112.322 109.405 115.123 110.693" stroke="#263238" stroke-width="0.688436" stroke-linecap="round" stroke-linejoin="round"/>
<path d="M83.997 77.8001C82.9328 79.4736 81.4335 80.8302 79.6577 81.7267C77.8819 82.6232 75.8954 83.0263 73.9082 82.8933C68.1339 82.607 64.1868 78.2542 64.1868 78.2542C66.2621 76.5811 66.57 72.5342 66.426 69.8643C66.426 69.8001 66.426 69.7458 66.426 69.6866C66.426 69.5138 66.4011 69.3411 66.3912 69.1931C66.2998 68.061 66.1222 66.9375 65.86 65.8322L83.1431 66.6909C82.5087 68.3544 82.1272 70.1026 82.011 71.8778C81.967 72.6552 82.0119 73.435 82.1451 74.2023V74.2764C82.6267 76.8279 83.997 77.8001 83.997 77.8001Z" fill="white" stroke="#263238" stroke-width="0.688436" stroke-miterlimit="10"/>
<path d="M45.3647 116.922V118.758C45.3647 119.035 45.4756 119.301 45.673 119.497C45.8704 119.694 46.1382 119.804 46.4173 119.804H102.055C102.334 119.804 102.602 119.694 102.799 119.497C102.997 119.301 103.107 119.035 103.107 118.758V116.922H45.3647Z" fill="#757575" stroke="#263238" stroke-width="0.688436" stroke-linecap="round" stroke-linejoin="round"/>
<path d="M109.939 89.9112L102.785 116.522C102.7 116.794 102.555 117.045 102.361 117.255C102.167 117.465 101.929 117.629 101.663 117.736C101.48 117.81 101.284 117.849 101.087 117.85H47.4003C47.2028 117.849 47.0073 117.81 46.8244 117.736C46.5584 117.629 46.3196 117.465 46.1256 117.255C45.9315 117.045 45.7869 116.794 45.7023 116.522L38.5329 89.9112C38.4755 89.7571 38.4578 89.5912 38.4813 89.4285C38.5047 89.2659 38.5687 89.1116 38.6673 88.9798C38.7659 88.8479 38.8961 88.7426 39.046 88.6734C39.196 88.6043 39.3609 88.5734 39.5259 88.5836H108.961C109.125 88.5759 109.288 88.6087 109.436 88.679C109.584 88.7493 109.712 88.8549 109.809 88.9864C109.906 89.1178 109.968 89.2711 109.991 89.4324C110.014 89.5938 109.996 89.7583 109.939 89.9112Z" fill="#BFBFBF" stroke="#263238" stroke-width="0.688436" stroke-miterlimit="10"/>
<path d="M108.767 91.3028L101.648 117.746C101.465 117.82 101.269 117.858 101.072 117.859H47.4003C47.2028 117.858 47.0073 117.82 46.8244 117.746L39.6996 91.3126C39.6423 91.1585 39.6245 90.9926 39.648 90.83C39.6715 90.6674 39.7354 90.5131 39.8341 90.3813C39.9327 90.2494 40.0629 90.1441 40.2128 90.0749C40.3627 90.0057 40.5276 89.9749 40.6926 89.9851H107.794C107.956 89.9789 108.118 90.0124 108.264 90.0825C108.41 90.1526 108.536 90.2573 108.633 90.3873C108.729 90.5173 108.791 90.6688 108.815 90.8284C108.838 90.9879 108.822 91.1508 108.767 91.3028Z" fill="#999999" stroke="#263238" stroke-width="0.688436" stroke-linecap="round" stroke-linejoin="round"/>
<path d="M77.8703 106.178C76.2815 106.178 74.9955 105.23 74.9955 104.065C74.9973 103.8 75.0637 103.539 75.1892 103.305C74.8747 103.248 74.5557 103.218 74.2359 103.217C72.0116 103.217 70.2043 104.544 70.2043 106.178C70.2043 107.811 72.0116 109.139 74.2359 109.139C76.4602 109.139 78.2675 107.816 78.2675 106.178C78.1384 106.168 78.0043 106.178 77.8703 106.178Z" fill="#BFBFBF" stroke="#263238" stroke-width="0.688436" stroke-miterlimit="10"/>
<path d="M83.1332 66.686C82.4989 68.3495 82.1173 70.0977 82.0012 71.8729C80.1244 73.7434 77.8256 75.1302 75.2885 74.7354C71.6194 74.1629 68.5659 71.4683 66.3813 69.1882C66.2899 68.0561 66.1123 66.9326 65.8501 65.8273L83.1332 66.686Z" fill="#263238"/>
<path d="M86.6533 54.18C86.6533 54.18 88.0485 52.6747 88.7336 53.1682C89.196 53.5446 89.5453 54.0403 89.7432 54.6009C89.9412 55.1615 89.9801 55.7654 89.8557 56.3465C89.4833 57.6247 87.8697 59.8505 87.7357 61.1485C87.6016 62.4465 86.7725 63.9221 85.8539 63.0634C84.9354 62.2047 86.6533 54.18 86.6533 54.18Z" fill="white" stroke="#263238" stroke-width="0.688436" stroke-miterlimit="10"/>
<path d="M61.8186 54.18C61.8186 54.18 60.4234 52.6747 59.7383 53.1682C59.2759 53.5446 58.9266 54.0403 58.7287 54.6009C58.5308 55.1615 58.4918 55.7654 58.6162 56.3465C58.9935 57.6247 60.6022 59.8505 60.7362 61.1485C60.8703 62.4465 61.6994 63.9221 62.618 63.0634C63.5365 62.2047 61.8186 54.18 61.8186 54.18Z" fill="white" stroke="#263238" stroke-width="0.688436" stroke-miterlimit="10"/>
<path d="M73.943 36.7782C91.4694 36.7782 87.3038 59.9738 84.0766 67.431C82.9445 70.0516 77.0759 73.4816 74.236 73.4816C71.5946 73.4816 65.5572 69.3804 64.4848 66.9227C61.2228 59.4359 57.2359 36.7782 73.943 36.7782Z" fill="white" stroke="#263238" stroke-width="0.688436" stroke-miterlimit="10"/>
<path d="M76.9121 55.2905C76.9121 55.2905 81.3806 54.4712 82.8701 56.2232" stroke="#263238" stroke-width="0.688436" stroke-linecap="round" stroke-linejoin="round"/>
<path d="M80.2932 58.6365C80.2932 59.1744 80.0201 59.6235 79.6825 59.6235C79.3449 59.6235 79.0718 59.1892 79.0718 58.6365C79.0718 58.0837 79.3449 57.6494 79.6825 57.6494C80.0201 57.6494 80.2932 58.1035 80.2932 58.6365Z" fill="#263238"/>
<path d="M71.5598 55.2903C71.5598 55.2903 67.4388 54.9251 65.6018 56.223" stroke="#263238" stroke-width="0.688436" stroke-linecap="round" stroke-linejoin="round"/>
<path d="M68.1787 58.6365C68.1787 59.1744 68.4518 59.6235 68.7894 59.6235C69.127 59.6235 69.4001 59.1892 69.4001 58.6365C69.4001 58.0837 69.127 57.6494 68.7894 57.6494C68.4518 57.6494 68.1787 58.1035 68.1787 58.6365Z" fill="#263238"/>
<path d="M81.1969 42.7302C76.805 44.1273 72.084 44.1273 67.6922 42.7302C67.6922 42.7302 65.3239 42.5969 64.3904 43.7764C63.457 44.956 64.3904 48.608 64.6387 50.0935C64.8869 51.5791 62.5882 52.6105 62.896 56.3662L62.0072 57.6593C62.0072 57.6593 59.5248 51.6185 60.1553 46.4217C60.7859 41.2249 64.0776 39.2064 64.0776 39.2064C64.0776 39.2064 65.5671 34.7153 74.4048 34.7647C83.9078 34.8042 84.871 39.9171 84.871 39.9171C84.871 39.9171 91.3254 44.1861 86.5491 58.1084L85.5114 56.3811C85.7583 54.5347 85.3321 52.6614 84.3099 51.1003C83.4808 49.8961 84.8064 46.2737 84.4936 44.418C84.1808 42.5624 81.1969 42.7302 81.1969 42.7302Z" fill="#263238"/>
<path d="M75.2786 57.6692C75.2786 57.6692 75.5417 61.6174 76.3162 63.1374C77.0908 64.6575 74.3849 64.8993 73.228 64.006" stroke="#263238" stroke-width="0.688436" stroke-linecap="round" stroke-linejoin="round"/>
<path d="M70.8647 67.1843C70.8647 67.7864 72.8507 68.5465 74.8367 68.5465C76.8227 68.5465 78.2824 67.7272 77.9895 67.4262" stroke="#263238" stroke-width="0.688436" stroke-linecap="round" stroke-linejoin="round"/>
<path d="M86.4449 45.252C86.4449 45.252 83.873 48.7067 78.0342 51.1299V49.4717C78.0342 49.4717 72.7565 52.5019 68 52.038L69.0774 49.8862C69.0774 49.8862 65.0657 54.1059 61.6746 53.943C58.2835 53.7801 57.3005 34.7301 74.4048 34.7301C88.3068 34.7301 86.4449 45.252 86.4449 45.252Z" fill="#263238"/>
<path d="M83.5652 46.402C83.5652 46.402 82.6516 51.4409 87.4329 55.1325C87.4329 55.1325 90.2629 52.1023 89.1706 46.402C88.0784 40.7018 85.5859 40.5242 85.5859 40.5242L83.5652 46.402Z" fill="#263238"/>
<path opacity="0.2" d="M81.4353 38.5353C81.4353 38.5353 79.6529 46.0615 73.0991 49.8863" stroke="white" stroke-width="0.688436" stroke-miterlimit="10"/>
<path opacity="0.2" d="M77.2646 38.5353C77.2646 38.5353 74.3601 45.9381 63.5613 47.172" stroke="white" stroke-width="0.688436" stroke-miterlimit="10"/>
<path opacity="0.2" d="M83.9972 41.3038C83.9972 41.3038 84.0419 45.1977 81.4353 47.1718" stroke="white" stroke-width="0.688436" stroke-miterlimit="10"/>
</g>
</svg>
