<svg width="92" height="13" viewBox="0 0 92 13" fill="none" xmlns="http://www.w3.org/2000/svg">
<path d="M6.536 7.552H2.664V12H0.072V0.799999H2.664V5.328H6.536V0.799999H9.112V12H6.536V7.552ZM18.8595 4.288V12H16.4115V10.896C16.1982 11.3013 15.8728 11.6213 15.4355 11.856C15.0088 12.08 14.4915 12.192 13.8835 12.192C13.3822 12.192 12.9502 12.1173 12.5875 11.968C12.2248 11.808 11.9368 11.5893 11.7235 11.312C11.4782 11.0133 11.3182 10.672 11.2435 10.288C11.1688 9.89333 11.1315 9.41867 11.1315 8.864V4.288H13.5635V8.24C13.5635 8.79467 13.6595 9.248 13.8515 9.6C14.0542 9.94133 14.4115 10.112 14.9235 10.112C15.4355 10.112 15.8088 9.936 16.0435 9.584C16.2888 9.232 16.4115 8.75733 16.4115 8.16V4.288H18.8595ZM30.6423 12V7.84C30.6423 7.31733 30.5463 6.912 30.3543 6.624C30.1729 6.32533 29.8743 6.176 29.4583 6.176C29.2769 6.176 29.1063 6.208 28.9462 6.272C28.7863 6.336 28.6476 6.44267 28.5303 6.592C28.4129 6.74133 28.3223 6.944 28.2583 7.2C28.1943 7.44533 28.1623 7.75467 28.1623 8.128V12H25.7943V7.824C25.7943 7.30133 25.7036 6.896 25.5223 6.608C25.3409 6.32 25.0476 6.176 24.6423 6.176C24.4503 6.176 24.2743 6.208 24.1143 6.272C23.9543 6.336 23.8156 6.448 23.6983 6.608C23.5809 6.75733 23.4849 6.96 23.4103 7.216C23.3463 7.472 23.3143 7.792 23.3143 8.176V12H20.9463V4.288H23.3143V5.408C23.4849 5.04533 23.7623 4.736 24.1463 4.48C24.5303 4.224 24.9943 4.096 25.5383 4.096C26.2103 4.096 26.7276 4.22933 27.0903 4.496C27.4529 4.76267 27.7143 5.09333 27.8743 5.488C28.0769 5.08267 28.3863 4.752 28.8023 4.496C29.2183 4.22933 29.7143 4.096 30.2903 4.096C30.8449 4.096 31.2983 4.18667 31.6503 4.368C32.0023 4.53867 32.2796 4.77333 32.4823 5.072C32.6849 5.36 32.8183 5.696 32.8823 6.08C32.9569 6.45333 32.9943 6.84267 32.9943 7.248V12H30.6423ZM38.7851 10.112C39.0625 10.112 39.3131 10.0587 39.5371 9.952C39.7611 9.84533 39.9531 9.70667 40.1131 9.536C40.2731 9.35467 40.3958 9.14667 40.4811 8.912C40.5771 8.66667 40.6251 8.41067 40.6251 8.144C40.6251 7.87733 40.5771 7.62667 40.4811 7.392C40.3958 7.15733 40.2731 6.94933 40.1131 6.768C39.9531 6.58667 39.7611 6.44267 39.5371 6.336C39.3131 6.22933 39.0625 6.176 38.7851 6.176C38.5078 6.176 38.2571 6.22933 38.0331 6.336C37.8091 6.44267 37.6171 6.58667 37.4571 6.768C37.2971 6.94933 37.1691 7.15733 37.0731 7.392C36.9878 7.62667 36.9451 7.87733 36.9451 8.144C36.9451 8.41067 36.9878 8.66667 37.0731 8.912C37.1691 9.14667 37.2971 9.35467 37.4571 9.536C37.6171 9.70667 37.8091 9.84533 38.0331 9.952C38.2571 10.0587 38.5078 10.112 38.7851 10.112ZM43.0731 4.288V12H40.6251V10.912C40.5291 11.0933 40.4011 11.264 40.2411 11.424C40.0811 11.5733 39.8945 11.7067 39.6811 11.824C39.4785 11.9307 39.2545 12.016 39.0091 12.08C38.7638 12.1547 38.5185 12.192 38.2731 12.192C37.7185 12.192 37.2065 12.0907 36.7371 11.888C36.2785 11.6747 35.8838 11.392 35.5531 11.04C35.2225 10.6773 34.9665 10.2507 34.7851 9.76C34.6038 9.25867 34.5131 8.72 34.5131 8.144C34.5131 7.568 34.6038 7.03467 34.7851 6.544C34.9665 6.04267 35.2225 5.616 35.5531 5.264C35.8838 4.90133 36.2785 4.61867 36.7371 4.416C37.2065 4.20267 37.7185 4.096 38.2731 4.096C38.5185 4.096 38.7638 4.13333 39.0091 4.208C39.2545 4.272 39.4785 4.36267 39.6811 4.48C39.8945 4.59733 40.0811 4.736 40.2411 4.896C40.4011 5.056 40.5291 5.22133 40.6251 5.392V4.288H43.0731ZM45.1494 4.288H47.5974V5.408C47.8107 4.992 48.1307 4.672 48.5574 4.448C48.9947 4.21333 49.5174 4.096 50.1254 4.096C50.6267 4.096 51.0587 4.176 51.4214 4.336C51.784 4.48533 52.072 4.69867 52.2854 4.976C52.5307 5.27467 52.6907 5.62133 52.7654 6.016C52.8507 6.4 52.8934 6.86933 52.8934 7.424V12H50.4454V8.048C50.4454 7.49333 50.344 7.04533 50.1414 6.704C49.9494 6.352 49.5974 6.176 49.0854 6.176C48.584 6.176 48.2107 6.352 47.9654 6.704C47.72 7.056 47.5974 7.53067 47.5974 8.128V12H45.1494V4.288ZM58.6601 10.112C58.9375 10.112 59.1881 10.0587 59.4121 9.952C59.6361 9.84533 59.8281 9.70667 59.9881 9.536C60.1481 9.35467 60.2708 9.14667 60.3561 8.912C60.4521 8.66667 60.5001 8.41067 60.5001 8.144C60.5001 7.87733 60.4521 7.62667 60.3561 7.392C60.2708 7.15733 60.1481 6.94933 59.9881 6.768C59.8281 6.58667 59.6361 6.44267 59.4121 6.336C59.1881 6.22933 58.9375 6.176 58.6601 6.176C58.3828 6.176 58.1321 6.22933 57.9081 6.336C57.6841 6.44267 57.4921 6.58667 57.3321 6.768C57.1721 6.94933 57.0441 7.15733 56.9481 7.392C56.8628 7.62667 56.8201 7.87733 56.8201 8.144C56.8201 8.41067 56.8628 8.66667 56.9481 8.912C57.0441 9.14667 57.1721 9.35467 57.3321 9.536C57.4921 9.70667 57.6841 9.84533 57.9081 9.952C58.1321 10.0587 58.3828 10.112 58.6601 10.112ZM60.5001 10.912C60.4041 11.0933 60.2761 11.264 60.1161 11.424C59.9561 11.5733 59.7695 11.7067 59.5561 11.824C59.3535 11.9307 59.1295 12.016 58.8841 12.08C58.6388 12.1547 58.3935 12.192 58.1481 12.192C57.5935 12.192 57.0815 12.0907 56.6121 11.888C56.1535 11.6747 55.7588 11.392 55.4281 11.04C55.0975 10.6773 54.8415 10.2507 54.6601 9.76C54.4788 9.25867 54.3881 8.72 54.3881 8.144C54.3881 7.568 54.4788 7.03467 54.6601 6.544C54.8415 6.04267 55.0975 5.616 55.4281 5.264C55.7588 4.90133 56.1535 4.61867 56.6121 4.416C57.0815 4.20267 57.5935 4.096 58.1481 4.096C58.3935 4.096 58.6388 4.13333 58.8841 4.208C59.1295 4.272 59.3535 4.36267 59.5561 4.48C59.7695 4.59733 59.9561 4.736 60.1161 4.896C60.2761 5.056 60.4041 5.22133 60.5001 5.392V0.799999H62.9481V12H60.5001V10.912ZM68.7684 12.208C68.107 12.208 67.5097 12.1013 66.9764 11.888C66.4537 11.664 66.0057 11.3707 65.6324 11.008C65.2697 10.6347 64.987 10.2027 64.7844 9.712C64.5924 9.22133 64.4964 8.69867 64.4964 8.144C64.4964 7.58933 64.5924 7.06667 64.7844 6.576C64.987 6.08533 65.2697 5.65867 65.6324 5.296C66.0057 4.92267 66.4537 4.62933 66.9764 4.416C67.5097 4.192 68.107 4.08 68.7684 4.08C69.4404 4.08 70.0377 4.192 70.5604 4.416C71.0937 4.62933 71.5417 4.92267 71.9044 5.296C72.2777 5.65867 72.5604 6.08533 72.7524 6.576C72.955 7.06667 73.0564 7.58933 73.0564 8.144C73.0564 8.69867 72.955 9.22133 72.7524 9.712C72.5604 10.2027 72.2777 10.6347 71.9044 11.008C71.5417 11.3707 71.0937 11.664 70.5604 11.888C70.0377 12.1013 69.4404 12.208 68.7684 12.208ZM68.7684 10.112C69.0457 10.112 69.2964 10.064 69.5204 9.968C69.755 9.86133 69.9524 9.71733 70.1124 9.536C70.2724 9.35467 70.395 9.14667 70.4804 8.912C70.5764 8.67733 70.6244 8.42133 70.6244 8.144C70.6244 7.87733 70.5764 7.62667 70.4804 7.392C70.395 7.14667 70.2724 6.93867 70.1124 6.768C69.9524 6.58667 69.755 6.44267 69.5204 6.336C69.2964 6.22933 69.0457 6.176 68.7684 6.176C68.491 6.176 68.2404 6.22933 68.0164 6.336C67.7924 6.44267 67.6004 6.58667 67.4404 6.768C67.2804 6.93867 67.1577 7.14667 67.0724 7.392C66.987 7.62667 66.9444 7.87733 66.9444 8.144C66.9444 8.42133 66.987 8.67733 67.0724 8.912C67.1577 9.14667 67.2804 9.35467 67.4404 9.536C67.6004 9.71733 67.7924 9.86133 68.0164 9.968C68.2404 10.064 68.491 10.112 68.7684 10.112ZM74.6025 4.288H77.0505V5.408C77.2638 4.992 77.5838 4.672 78.0105 4.448C78.4478 4.21333 78.9705 4.096 79.5785 4.096C80.0798 4.096 80.5118 4.176 80.8745 4.336C81.2372 4.48533 81.5252 4.69867 81.7385 4.976C81.9838 5.27467 82.1438 5.62133 82.2185 6.016C82.3038 6.4 82.3465 6.86933 82.3465 7.424V12H79.8985V8.048C79.8985 7.49333 79.7972 7.04533 79.5945 6.704C79.4025 6.352 79.0505 6.176 78.5385 6.176C78.0372 6.176 77.6638 6.352 77.4185 6.704C77.1732 7.056 77.0505 7.53067 77.0505 8.128V12H74.6025V4.288ZM86.2573 8.736C86.2679 8.97067 86.2999 9.19467 86.3533 9.408C86.4173 9.61067 86.5133 9.792 86.6413 9.952C86.7799 10.1013 86.9559 10.224 87.1693 10.32C87.3826 10.4053 87.6493 10.448 87.9693 10.448C88.3959 10.448 88.7159 10.3627 88.9293 10.192C89.1533 10.0213 89.3079 9.81333 89.3933 9.568H91.7933C91.7399 9.93067 91.6119 10.272 91.4093 10.592C91.2173 10.912 90.9559 11.1947 90.6253 11.44C90.3053 11.6747 89.9213 11.8613 89.4733 12C89.0359 12.1387 88.5399 12.208 87.9852 12.208C87.3133 12.208 86.7159 12.112 86.1933 11.92C85.6813 11.7173 85.2493 11.4347 84.8973 11.072C84.5453 10.7093 84.2786 10.2827 84.0973 9.792C83.9159 9.29067 83.8253 8.74133 83.8253 8.144C83.8253 7.57867 83.9106 7.05067 84.0813 6.56C84.2626 6.06933 84.5239 5.64267 84.8653 5.28C85.2173 4.90667 85.6439 4.61333 86.1453 4.4C86.6573 4.18667 87.2493 4.08 87.9213 4.08C88.5293 4.08 89.0733 4.176 89.5533 4.368C90.0439 4.56 90.4599 4.816 90.8013 5.136C91.1533 5.456 91.4199 5.82933 91.6013 6.256C91.7933 6.68267 91.8893 7.13067 91.8893 7.6C91.8893 7.76 91.8839 7.93067 91.8733 8.112C91.8733 8.29333 91.8519 8.50133 91.8093 8.736H86.2573ZM87.9053 5.712C87.4253 5.712 87.0306 5.85067 86.7213 6.128C86.4119 6.40533 86.2573 6.80533 86.2573 7.328H89.4893C89.4893 6.82667 89.3399 6.432 89.0413 6.144C88.7533 5.856 88.3746 5.712 87.9053 5.712Z" fill="url(#paint0_linear_3_7)"/>
<defs>
<linearGradient id="paint0_linear_3_7" x1="-1" y1="-6" x2="82.195" y2="-26.2943" gradientUnits="userSpaceOnUse">
<stop stop-color="#B66ED4"/>
<stop offset="1" stop-color="#FFDD3D"/>
</linearGradient>
</defs>
</svg>
