<svg width="95" height="195" viewBox="0 0 95 195" fill="none" xmlns="http://www.w3.org/2000/svg">
<path d="M14.7473 49.3363C15.2788 49.3363 25.4269 46.717 24.5664 28.8377C23.706 10.9583 17.4425 11.7429 17.1135 1.00006C17.1135 1.00006 8.97733 10.7179 6.43398 27.9393C3.89063 45.1607 12.6595 49.2098 14.7473 49.3363Z" fill="#263238" stroke="#263238" stroke-width="1.26535" stroke-linecap="round" stroke-linejoin="round"/>
<path d="M2.09404 101.785C0.714811 125.244 0.828658 193.51 5.77616 193.801C10.7237 194.092 18.8346 126.307 20.2138 102.848C21.593 79.3882 18.6448 60.1422 13.6467 59.8259C8.64854 59.5096 3.52388 78.3253 2.09404 101.785Z" fill="white" stroke="#263238" stroke-width="1.26535" stroke-linecap="round" stroke-linejoin="round"/>
<path d="M2.09404 101.785C0.714811 125.244 0.828658 193.51 5.77616 193.801C10.7237 194.092 18.8346 126.307 20.2138 102.848C21.593 79.3882 18.6448 60.1422 13.6467 59.8259C8.64854 59.5096 3.52388 78.3253 2.09404 101.785Z" fill="#BFBFBF" stroke="#263238" stroke-width="1.26535" stroke-linecap="round" stroke-linejoin="round"/>
<path d="M17.6963 68.8845L8.66461 68.3543C8.39324 68.3383 8.13933 68.2152 7.95871 68.0121C7.7781 67.809 7.68558 67.5424 7.70151 67.271L8.98747 45.3676L20.0655 46.018L18.7796 67.9214C18.7636 68.1928 18.6405 68.4467 18.4374 68.6273C18.2343 68.8079 17.9677 68.9004 17.6963 68.8845Z" fill="white" stroke="#263238" stroke-width="1.26535" stroke-linecap="round" stroke-linejoin="round"/>
<path opacity="0.5" d="M17.6963 68.8845L8.66461 68.3543C8.39324 68.3383 8.13933 68.2152 7.95871 68.0121C7.7781 67.809 7.68558 67.5424 7.70151 67.271L8.98747 45.3676L20.0655 46.018L18.7796 67.9214C18.7636 68.1928 18.6405 68.4467 18.4374 68.6273C18.2343 68.8079 17.9677 68.9004 17.6963 68.8845Z" fill="white" stroke="#263238" stroke-width="1.26535" stroke-linecap="round" stroke-linejoin="round"/>
<path d="M17.1516 1.03809C17.4806 11.7176 23.7567 10.9204 24.6045 28.8757C24.6945 30.6348 24.6607 32.398 24.5033 34.1522C24.0604 35.3543 23.4277 36.0882 22.4787 35.9237C18.6827 35.2404 20.5807 21.5747 17.8602 21.0559C15.1397 20.5371 16.2406 27.6863 12.7988 27.1295C9.35709 26.5728 9.10397 33.0134 6.1051 32.2922C6.16837 30.9636 6.28225 29.5717 6.49736 28.0406C9.0154 10.7813 17.1516 1.03809 17.1516 1.03809Z" fill="#FFB748" stroke="#263238" stroke-width="1.26535" stroke-linecap="round" stroke-linejoin="round"/>
<path d="M67.892 175.732C80.7353 165.609 92.6549 147.236 93.528 134.228C96.3624 91.915 65.4626 84.8797 58.2248 84.9429C50.987 85.0062 43.5847 87.5622 36.4861 90.6497C29.6559 93.4484 23.2031 97.0915 17.2782 101.494C11.1712 106.066 6.23974 112.025 2.89117 118.88C1.32214 122.309 0.271901 126.282 1.62582 129.382C3.42262 133.722 8.81298 134.507 13.558 134.443C18.3031 134.38 23.6049 134.038 26.7177 137.316C29.4002 140.137 29.59 145.022 28.1349 149.286C26.4519 153.539 23.9885 157.44 20.8718 160.788C18.4898 163.362 16.3151 166.121 14.3679 169.038C12.4285 171.883 11.4974 175.295 11.7233 178.73C11.9478 180.174 12.4871 181.55 13.3027 182.761C14.1184 183.972 15.1905 184.99 16.4431 185.74C18.9549 187.173 21.7399 188.061 24.6172 188.347C38.9282 190.334 55.0235 185.854 67.892 175.732ZM27.9324 166.178C27.2104 164.829 26.9872 163.269 27.3019 161.771C27.6167 160.274 28.4493 158.936 29.6533 157.991C30.2443 157.606 30.9125 157.356 31.6109 157.257C32.3094 157.158 33.021 157.214 33.6955 157.42C34.3701 157.627 34.9911 157.979 35.5148 158.451C36.0385 158.924 36.4521 159.505 36.7265 160.155C37.451 161.504 37.6757 163.065 37.3608 164.563C37.0459 166.061 36.2118 167.399 35.0057 168.342C34.4137 168.727 33.7444 168.978 33.0451 169.077C32.3458 169.175 31.6334 169.12 30.9579 168.913C30.2824 168.707 29.6603 168.355 29.1354 167.883C28.6105 167.41 28.1955 166.828 27.9197 166.178H27.9324Z" fill="white" stroke="#263238" stroke-width="1.26535" stroke-linecap="round" stroke-linejoin="round"/>
<path d="M67.8919 174.162C80.7352 164.04 92.6674 145.667 93.5405 132.659C96.3622 90.3459 65.4624 83.3106 58.2373 83.3738C51.0122 83.4371 43.5973 85.9931 36.4987 89.0805C29.6641 91.8784 23.2069 95.5214 17.278 99.9246C11.1711 104.496 6.23961 110.456 2.89104 117.31C1.30936 120.727 0.271774 124.7 1.6257 127.8C3.40983 132.14 8.81284 132.937 13.5452 132.862C18.2776 132.786 23.6681 132.457 26.7175 135.734C29.4001 138.556 29.5899 143.44 28.1221 147.704C26.4261 151.959 23.9499 155.86 20.821 159.206C18.4436 161.784 16.2692 164.543 14.3171 167.456C12.3875 170.305 11.4615 173.715 11.6852 177.149C11.9067 178.591 12.4432 179.967 13.2568 181.179C14.0703 182.39 15.1409 183.408 16.3923 184.159C18.9033 185.591 21.6892 186.475 24.5664 186.753C38.9281 188.752 55.0233 184.285 67.8919 174.162ZM27.9449 164.609C27.2204 163.261 26.9957 161.7 27.3106 160.201C27.6255 158.703 28.4597 157.365 29.6658 156.422C30.2567 156.037 30.925 155.786 31.6235 155.688C32.3219 155.589 33.0336 155.645 33.7081 155.851C34.3826 156.058 35.0036 156.409 35.5273 156.882C36.051 157.355 36.4647 157.936 36.7391 158.586C37.4652 159.941 37.6881 161.508 37.3685 163.012C37.0489 164.515 36.2073 165.856 34.9929 166.798C32.5634 168.43 29.4 167.456 27.9196 164.609H27.9449Z" fill="white" stroke="#263238" stroke-width="1.26535" stroke-linecap="round" stroke-linejoin="round"/>
<g opacity="0.5">
<path opacity="0.5" d="M67.8919 174.162C80.7352 164.04 92.6674 145.667 93.5405 132.659C96.3622 90.3459 65.4624 83.3106 58.2373 83.3738C51.0122 83.4371 43.5973 85.9931 36.4987 89.0805C29.6641 91.8784 23.2069 95.5214 17.278 99.9246C11.1711 104.496 6.23961 110.456 2.89104 117.31C1.30936 120.727 0.271774 124.7 1.6257 127.8C3.40983 132.14 8.81284 132.937 13.5452 132.862C18.2776 132.786 23.6681 132.457 26.7175 135.734C29.4001 138.556 29.5899 143.44 28.1221 147.704C26.4261 151.959 23.9499 155.86 20.821 159.206C18.4436 161.784 16.2692 164.543 14.3171 167.456C12.3875 170.305 11.4615 173.715 11.6852 177.149C11.9067 178.591 12.4432 179.967 13.2568 181.179C14.0703 182.39 15.1409 183.408 16.3923 184.159C18.9033 185.591 21.6892 186.475 24.5664 186.753C38.9281 188.752 55.0233 184.285 67.8919 174.162ZM27.9449 164.609C27.2204 163.261 26.9957 161.7 27.3106 160.201C27.6255 158.703 28.4597 157.365 29.6658 156.422C30.2567 156.037 30.925 155.786 31.6235 155.688C32.3219 155.589 33.0336 155.645 33.7081 155.851C34.3826 156.058 35.0036 156.409 35.5273 156.882C36.051 157.355 36.4647 157.936 36.7391 158.586C37.4652 159.941 37.6881 161.508 37.3685 163.012C37.0489 164.515 36.2073 165.856 34.9929 166.798C32.5634 168.43 29.4 167.456 27.9196 164.609H27.9449Z" fill="white" stroke="#263238" stroke-width="1.26535" stroke-linecap="round" stroke-linejoin="round"/>
</g>
<path d="M44.5463 131.774C43.2069 132.163 41.9442 132.779 40.8136 133.596C40.1518 134 39.5828 134.539 39.1434 135.177C38.9108 135.525 38.7633 135.923 38.7127 136.338C38.6622 136.754 38.71 137.175 38.8523 137.569C38.9973 137.834 39.1119 138.114 39.1939 138.404C39.3331 139.176 38.6372 139.796 38.498 140.555C38.4502 140.991 38.5485 141.43 38.7776 141.803C39.0067 142.176 39.3535 142.463 39.7634 142.618C40.524 142.838 41.3258 142.877 42.1042 142.732C42.6876 142.657 43.2796 142.692 43.8504 142.833C44.2553 142.959 44.6476 143.174 45.1158 143.339C46.0457 143.642 47.038 143.702 47.9975 143.511C48.9569 143.32 49.8513 142.886 50.5947 142.251C51.1089 141.905 51.5164 141.423 51.7715 140.859C51.9263 140.378 51.9758 139.869 51.9168 139.367C51.8579 138.864 51.6918 138.381 51.4298 137.949C50.9167 137.138 50.2708 136.419 49.5191 135.823C49.6104 135.182 49.6443 134.534 49.6204 133.887C49.5196 133.245 49.1918 132.662 48.6967 132.242C48.0781 131.873 47.3878 131.64 46.672 131.56C45.9563 131.479 45.2316 131.552 44.5463 131.774Z" fill="#FFB748"/>
<path d="M45.8117 121.866C44.4731 122.247 43.2132 122.864 42.0915 123.688C41.4288 124.095 40.8563 124.634 40.4087 125.27C40.1816 125.62 40.0373 126.017 39.9869 126.432C39.9364 126.846 39.9811 127.267 40.1176 127.661C40.2614 127.928 40.3801 128.208 40.4719 128.496C40.5985 129.268 39.9025 129.876 39.7633 130.647C39.7199 131.082 39.82 131.519 40.0486 131.892C40.2771 132.264 40.6214 132.552 41.0287 132.71C41.7956 132.921 42.6001 132.955 43.3822 132.811C43.9621 132.741 44.55 132.78 45.1157 132.925C45.5333 133.052 45.9129 133.267 46.3811 133.419C47.3116 133.727 48.306 133.79 49.2681 133.602C50.2302 133.414 51.1274 132.98 51.8727 132.343C52.2171 132.121 52.5128 131.832 52.742 131.492C52.9711 131.153 53.129 130.771 53.2059 130.368C53.2828 129.966 53.2772 129.552 53.1894 129.152C53.1016 128.752 52.9335 128.374 52.6952 128.041C52.1866 127.231 51.5449 126.512 50.7971 125.915C50.883 125.269 50.9127 124.617 50.8857 123.966C50.7781 123.33 50.4567 122.75 49.9747 122.322C49.3503 121.961 48.6577 121.735 47.9411 121.656C47.2244 121.578 46.4992 121.649 45.8117 121.866Z" fill="#FFB748"/>
<path d="M57.9084 169.329C58.8194 170.404 59.8697 171.328 60.8061 172.378C60.9405 172.514 61.0327 172.685 61.0717 172.872C61.0717 173.315 60.6036 173.517 60.224 173.454C58.7056 173.201 57.8324 171.341 57.1998 169.721C56.8581 169.924 56.8834 170.493 56.8961 170.987C56.9088 171.48 56.7316 172.024 56.3393 171.973C55.9471 171.923 55.9218 171.619 55.8206 171.328C55.0709 169.234 54.5656 167.06 54.3148 164.85C55.5549 164.268 57.0859 168.304 57.9084 169.329Z" fill="#FFB748"/>
<path d="M63.9061 164.116C63.7656 163.997 63.5986 163.913 63.4189 163.871C63.2393 163.83 63.0524 163.832 62.8738 163.878C62.6953 163.924 62.5304 164.012 62.3929 164.135C62.2555 164.258 62.1495 164.412 62.084 164.584C61.9437 164.957 61.9404 165.368 62.0748 165.744C62.2092 166.119 62.4726 166.435 62.8179 166.634C63.1285 166.755 63.4728 166.755 63.7839 166.636C64.095 166.517 64.3506 166.286 64.5009 165.989C64.6748 165.664 64.7658 165.301 64.7658 164.932C64.7658 164.563 64.6748 164.201 64.5009 163.875C64.3743 163.622 63.9188 163.534 63.982 163.875L63.9061 164.116Z" fill="#FFB748"/>
<path d="M60.439 163.914C60.3929 163.875 60.3384 163.849 60.28 163.836C60.2216 163.822 60.161 163.823 60.103 163.838C60.045 163.853 59.9914 163.881 59.9464 163.921C59.9014 163.96 59.8665 164.01 59.8443 164.065C59.7963 164.189 59.7941 164.326 59.8382 164.452C59.8823 164.577 59.9697 164.682 60.0847 164.749C60.1879 164.786 60.301 164.785 60.4032 164.745C60.5055 164.706 60.5901 164.63 60.6415 164.534C60.698 164.426 60.7275 164.307 60.7275 164.186C60.7275 164.064 60.698 163.945 60.6415 163.838C60.6415 163.749 60.4517 163.724 60.4643 163.838L60.439 163.914Z" fill="#FFB748"/>
<path d="M53.8973 161.155C53.7977 161.077 53.6814 161.023 53.5576 160.997C53.4338 160.972 53.3056 160.975 53.1832 161.007C53.0608 161.039 52.9474 161.098 52.8518 161.181C52.7562 161.264 52.6809 161.368 52.6319 161.484C52.5275 161.75 52.5225 162.045 52.6178 162.315C52.713 162.584 52.9022 162.811 53.1507 162.952C53.3716 163.041 53.618 163.043 53.8406 162.959C54.0633 162.874 54.2461 162.709 54.3528 162.496C54.4768 162.263 54.5417 162.002 54.5417 161.737C54.5417 161.473 54.4768 161.212 54.3528 160.978C54.2642 160.801 53.9352 160.738 53.9732 160.978L53.8973 161.155Z" fill="#FFB748"/>
<path d="M50.7338 164.015C49.9187 163.662 49.0277 163.519 48.1432 163.601C47.2586 163.683 46.4088 163.986 45.6724 164.483C44.9761 164.929 44.4124 165.554 44.0401 166.293C43.8503 166.685 43.7364 167.115 43.5213 167.482C42.471 169.253 39.9024 168.633 38.5611 170.127C38.3762 170.298 38.2507 170.525 38.203 170.773C38.1552 171.021 38.1875 171.277 38.2954 171.506C38.3955 171.712 38.5628 171.878 38.7697 171.977C38.9766 172.076 39.2109 172.102 39.4342 172.05C40.4212 171.835 40.8768 170.785 41.5853 170.114C41.8581 169.8 42.2267 169.586 42.6341 169.503C43.0414 169.421 43.4645 169.475 43.8376 169.658C44.9764 170.506 39.8138 173.454 37.6881 176.732C37.435 177.124 35.7141 178.528 35.9165 178.946C36.5998 180.287 38.4473 178.199 39.4469 176.567C40.0467 175.434 40.9157 174.465 41.9776 173.745C42.547 173.429 43.0151 174.391 42.471 174.783C42.18 174.998 41.8637 175.188 41.5727 175.378C40.7755 175.884 40.0163 177.061 40.5857 177.908C41.7134 177.038 42.6737 175.971 43.42 174.758C43.914 174.08 44.5541 173.522 45.2928 173.125C45.9255 172.822 46.5581 173.682 46.1406 174.328C45.5797 175.296 44.9135 176.2 44.154 177.023C44.2261 177.155 44.3287 177.269 44.4534 177.353C44.578 177.438 44.7211 177.492 44.8707 177.511C45.0204 177.529 45.1724 177.512 45.314 177.46C45.4556 177.408 45.5828 177.323 45.6851 177.213C46.1039 176.711 46.4257 176.136 46.6341 175.517C46.9124 174.91 47.3553 174.315 47.8994 174.252C48.2294 174.281 48.5512 174.371 48.8484 174.517C54.8588 176.833 56.5038 166.482 50.7338 164.015Z" fill="#92E3A9"/>
<path d="M50.7338 164.015C49.9187 163.662 49.0277 163.519 48.1432 163.601C47.2586 163.683 46.4088 163.986 45.6724 164.483C44.9761 164.929 44.4124 165.554 44.0401 166.293C43.8503 166.685 43.7364 167.115 43.5213 167.482C42.471 169.253 39.9024 168.633 38.5611 170.127C38.3762 170.298 38.2507 170.525 38.203 170.773C38.1552 171.021 38.1875 171.277 38.2954 171.506C38.3955 171.712 38.5628 171.878 38.7697 171.977C38.9766 172.076 39.2109 172.102 39.4342 172.05C40.4212 171.835 40.8768 170.785 41.5853 170.114C41.8581 169.8 42.2267 169.586 42.6341 169.503C43.0414 169.421 43.4645 169.475 43.8376 169.658C44.9764 170.506 39.8138 173.454 37.6881 176.732C37.435 177.124 35.7141 178.528 35.9165 178.946C36.5998 180.287 38.4473 178.199 39.4469 176.567C40.0467 175.434 40.9157 174.465 41.9776 173.745C42.547 173.429 43.0151 174.391 42.471 174.783C42.18 174.998 41.8637 175.188 41.5727 175.378C40.7755 175.884 40.0163 177.061 40.5857 177.908C41.7134 177.038 42.6737 175.971 43.42 174.758C43.914 174.08 44.5541 173.522 45.2928 173.125C45.9255 172.822 46.5581 173.682 46.1406 174.328C45.5797 175.296 44.9135 176.2 44.154 177.023C44.2261 177.155 44.3287 177.269 44.4534 177.353C44.578 177.438 44.7211 177.492 44.8707 177.511C45.0204 177.529 45.1724 177.512 45.314 177.46C45.4556 177.408 45.5828 177.323 45.6851 177.213C46.1039 176.711 46.4257 176.136 46.6341 175.517C46.9124 174.91 47.3553 174.315 47.8994 174.252C48.2294 174.281 48.5512 174.371 48.8484 174.517C54.8588 176.833 56.5038 166.482 50.7338 164.015Z" fill="#FFB748"/>
<path d="M35.6636 174.226C35.5641 174.146 35.447 174.09 35.3219 174.064C35.1968 174.038 35.0672 174.041 34.9438 174.075C34.8204 174.108 34.7066 174.17 34.6118 174.256C34.517 174.341 34.4438 174.448 34.3983 174.568C34.2939 174.834 34.2889 175.129 34.3841 175.398C34.4794 175.668 34.6686 175.894 34.917 176.036C35.1476 176.136 35.408 176.143 35.6438 176.056C35.8797 175.969 36.0726 175.794 36.1824 175.568C36.3043 175.335 36.368 175.077 36.368 174.815C36.368 174.552 36.3043 174.294 36.1824 174.062C36.0811 173.885 35.7648 173.809 35.8028 174.062L35.6636 174.226Z" fill="#92E3A9"/>
<path d="M35.6636 174.226C35.5641 174.146 35.447 174.09 35.3219 174.064C35.1968 174.038 35.0672 174.041 34.9438 174.075C34.8204 174.108 34.7066 174.17 34.6118 174.256C34.517 174.341 34.4438 174.448 34.3983 174.568C34.2939 174.834 34.2889 175.129 34.3841 175.398C34.4794 175.668 34.6686 175.894 34.917 176.036C35.1476 176.136 35.408 176.143 35.6438 176.056C35.8797 175.969 36.0726 175.794 36.1824 175.568C36.3043 175.335 36.368 175.077 36.368 174.815C36.368 174.552 36.3043 174.294 36.1824 174.062C36.0811 173.885 35.7648 173.809 35.8028 174.062L35.6636 174.226Z" fill="#92E3A9"/>
<path d="M35.6636 174.226C35.5641 174.146 35.447 174.09 35.3219 174.064C35.1968 174.038 35.0672 174.041 34.9438 174.075C34.8204 174.108 34.7066 174.17 34.6118 174.256C34.517 174.341 34.4438 174.448 34.3983 174.568C34.2939 174.834 34.2889 175.129 34.3841 175.398C34.4794 175.668 34.6686 175.894 34.917 176.036C35.1476 176.136 35.408 176.143 35.6438 176.056C35.8797 175.969 36.0726 175.794 36.1824 175.568C36.3043 175.335 36.368 175.077 36.368 174.815C36.368 174.552 36.3043 174.294 36.1824 174.062C36.0811 173.885 35.7648 173.809 35.8028 174.062L35.6636 174.226Z" fill="#92E3A9"/>
<path d="M35.6636 174.226C35.5641 174.146 35.447 174.09 35.3219 174.064C35.1968 174.038 35.0672 174.041 34.9438 174.075C34.8204 174.108 34.7066 174.17 34.6118 174.256C34.517 174.341 34.4438 174.448 34.3983 174.568C34.2939 174.834 34.2889 175.129 34.3841 175.398C34.4794 175.668 34.6686 175.894 34.917 176.036C35.1476 176.136 35.408 176.143 35.6438 176.056C35.8797 175.969 36.0726 175.794 36.1824 175.568C36.3043 175.335 36.368 175.077 36.368 174.815C36.368 174.552 36.3043 174.294 36.1824 174.062C36.0811 173.885 35.7648 173.809 35.8028 174.062L35.6636 174.226Z" fill="#FFB748"/>
<path d="M69.499 146.325C67.6263 146.515 65.4625 147.312 64.9817 149.412C64.945 149.966 64.8033 150.507 64.5641 151.007C64.1212 151.652 63.1469 151.753 62.9571 152.563L63.4 153.019C61.6864 153.005 59.9803 153.248 58.3386 153.74H62.5523L59.4141 154.778C61.0188 154.432 62.6706 154.364 64.2984 154.575C63.7184 155.133 63.0032 155.529 62.2232 155.727C62.5902 156.549 63.7037 156.233 64.3364 156.802C64.6091 157.12 64.831 157.479 64.9944 157.865C65.1978 158.22 65.4998 158.508 65.8636 158.694C66.2274 158.88 66.6376 158.957 67.0442 158.915C67.4502 158.833 67.8252 158.639 68.127 158.355C68.4288 158.071 68.6453 157.708 68.7524 157.308C70.1063 158.371 71.979 157.764 73.2317 156.6C73.5938 156.166 74.0206 155.79 74.4971 155.486C75.7624 154.879 76.4837 154.651 75.4967 154.55C76.2559 154.259 75.9396 153.284 75.0159 153.095C76.2812 152.993 76.4711 151.994 75.2816 152.057C75.1249 151.598 74.8893 151.17 74.5856 150.792C77.0278 147.692 71.0048 146.186 69.499 146.325Z" fill="#92E3A9"/>
<path d="M62.2359 147.11C62.1391 146.931 61.9769 146.797 61.7834 146.736C61.5899 146.675 61.3802 146.691 61.1983 146.781C60.8409 146.979 60.537 147.261 60.3125 147.603C60.1869 147.737 60.0918 147.897 60.0341 148.071C60.005 148.325 60.0535 148.582 60.1732 148.808C60.2929 149.034 60.4783 149.218 60.7048 149.337C60.9179 149.496 61.1616 149.61 61.4207 149.671C61.6798 149.732 61.9487 149.739 62.2106 149.691C62.4829 149.622 62.7263 149.469 62.9059 149.253C63.0855 149.037 63.192 148.769 63.2101 148.489C63.2101 147.894 62.7673 147.224 62.2611 147.35L62.2359 147.11Z" fill="#92E3A9"/>
<path d="M69.499 146.325C67.6263 146.515 65.4625 147.312 64.9817 149.412C64.945 149.966 64.8033 150.507 64.5641 151.007C64.1212 151.652 63.1469 151.753 62.9571 152.563L63.4 153.019C61.6864 153.005 59.9803 153.248 58.3386 153.74H62.5523L59.4141 154.778C61.0188 154.432 62.6706 154.364 64.2984 154.575C63.7184 155.133 63.0032 155.529 62.2232 155.727C62.5902 156.549 63.7037 156.233 64.3364 156.802C64.6091 157.12 64.831 157.479 64.9944 157.865C65.1978 158.22 65.4998 158.508 65.8636 158.694C66.2274 158.88 66.6376 158.957 67.0442 158.915C67.4502 158.833 67.8252 158.639 68.127 158.355C68.4288 158.071 68.6453 157.708 68.7524 157.308C70.1063 158.371 71.979 157.764 73.2317 156.6C73.5938 156.166 74.0206 155.79 74.4971 155.486C75.7624 154.879 76.4837 154.651 75.4967 154.55C76.2559 154.259 75.9396 153.284 75.0159 153.095C76.2812 152.993 76.4711 151.994 75.2816 152.057C75.1249 151.598 74.8893 151.17 74.5856 150.792C77.0278 147.692 71.0048 146.186 69.499 146.325Z" fill="#FFB748"/>
<path d="M62.2359 147.11C62.1391 146.932 61.9769 146.798 61.7834 146.736C61.5899 146.675 61.3802 146.691 61.1983 146.781C60.8409 146.98 60.537 147.262 60.3125 147.603C60.1869 147.737 60.0918 147.897 60.0341 148.072C60.005 148.326 60.0535 148.582 60.1732 148.808C60.2929 149.034 60.4783 149.218 60.7048 149.337C60.9179 149.496 61.1616 149.61 61.4207 149.671C61.6798 149.732 61.9487 149.739 62.2106 149.691C62.4829 149.622 62.7263 149.469 62.9059 149.253C63.0855 149.037 63.192 148.769 63.2101 148.489C63.2101 147.894 62.7673 147.224 62.2611 147.35L62.2359 147.11Z" fill="#FFB748"/>
<path d="M77.6351 127.839C76.992 127.664 76.3184 127.634 75.6622 127.75C75.0061 127.866 74.3836 128.125 73.8391 128.509C72.6805 129.333 71.6742 130.352 70.8655 131.521C70.5336 131.858 70.2933 132.275 70.1671 132.731C70.0409 133.187 70.0331 133.667 70.1443 134.127C70.2329 134.355 70.3973 134.558 70.4732 134.811C70.5176 135.172 70.5176 135.537 70.4732 135.899C70.4732 136.266 70.6504 136.709 70.9667 136.709C71.3843 136.468 71.4222 135.823 71.5108 135.292C71.6056 134.617 71.8869 133.983 72.3228 133.46C72.7588 132.936 73.3321 132.545 73.9783 132.331C73.8951 132.346 73.8165 132.38 73.7485 132.431C73.6805 132.481 73.625 132.546 73.586 132.622C74.3738 133.551 75.4232 134.221 76.5975 134.545C75.8692 134.747 75.1119 134.824 74.3579 134.773L76.0028 135.355C75.8622 135.564 75.6744 135.737 75.4546 135.86C75.2348 135.983 74.9891 136.053 74.7374 136.063L76.2053 137.405C75.0959 138.28 73.6886 138.689 72.2827 138.543C72.4512 139.003 72.7674 139.394 73.1818 139.655C73.5962 139.916 74.0855 140.033 74.573 139.986C74.8589 139.894 75.1584 139.851 75.4587 139.859C75.7506 139.943 76.0312 140.062 76.2939 140.214C76.8519 140.37 77.4446 140.347 77.9894 140.15C79.8368 139.695 81.9373 138.822 82.4688 136.709C82.8914 134.895 82.6324 132.989 81.7412 131.353C80.8499 129.718 79.3886 128.467 77.6351 127.839Z" fill="#FFB748"/>
<path d="M79.4953 139.454C79.3948 139.377 79.2778 139.323 79.1534 139.298C79.0289 139.274 78.9003 139.278 78.7778 139.311C78.6552 139.344 78.542 139.405 78.4469 139.489C78.3519 139.573 78.2776 139.678 78.2299 139.796C78.1373 140.065 78.1381 140.358 78.2322 140.626C78.3264 140.895 78.5083 141.124 78.7487 141.276C78.9793 141.377 79.2397 141.384 79.4756 141.297C79.7114 141.21 79.9043 141.034 80.0141 140.808C80.1382 140.574 80.203 140.314 80.203 140.049C80.203 139.784 80.1382 139.524 80.0141 139.29C79.9129 139.113 79.5965 139.049 79.6345 139.29L79.4953 139.454Z" fill="#FFB748"/>
<path d="M72.852 139.201C72.7525 139.123 72.6362 139.069 72.5124 139.044C72.3885 139.018 72.2605 139.021 72.138 139.053C72.0156 139.085 71.9022 139.144 71.8066 139.227C71.711 139.31 71.6357 139.414 71.5867 139.53C71.4952 139.801 71.4979 140.094 71.5944 140.363C71.6909 140.632 71.8756 140.86 72.1182 141.011C72.3488 141.111 72.6092 141.118 72.845 141.031C73.0808 140.944 73.2738 140.769 73.3835 140.543C73.5055 140.308 73.5692 140.048 73.5692 139.783C73.5692 139.519 73.5055 139.259 73.3835 139.024C73.2823 138.847 72.9659 138.784 73.0039 139.024L72.852 139.201Z" fill="#FFB748"/>
<path d="M67.0442 136.19C66.9796 136.138 66.904 136.103 66.8233 136.086C66.7426 136.069 66.659 136.071 66.5792 136.092C66.4994 136.113 66.4256 136.152 66.3635 136.206C66.3015 136.26 66.2529 136.328 66.2217 136.405C66.1561 136.576 66.1546 136.765 66.2174 136.937C66.2802 137.109 66.4031 137.253 66.5634 137.341C66.7035 137.395 66.8587 137.395 66.9989 137.341C67.1391 137.288 67.2544 137.184 67.3226 137.05C67.3972 136.901 67.436 136.736 67.436 136.569C67.436 136.402 67.3972 136.238 67.3226 136.088C67.3226 135.975 67.0568 135.937 67.0821 136.088L67.0442 136.19Z" fill="#FFB748"/>
<path d="M78.0148 107.567C75.9695 107.319 73.9046 107.837 72.2195 109.023C71.0197 109.68 70.0255 110.656 69.3472 111.844C68.995 112.491 68.8104 113.215 68.8104 113.951C68.8104 114.687 68.995 115.412 69.3472 116.058C69.579 116.34 69.7745 116.651 69.9292 116.982C70.081 117.399 70.0431 117.88 70.1949 118.31C70.3468 118.74 70.8909 119.31 70.9668 119.917C70.9765 120.177 70.9345 120.436 70.8433 120.679C70.7521 120.922 70.6134 121.145 70.4354 121.334C70.0911 121.697 69.828 122.128 69.6635 122.6C69.5496 123.119 69.8153 123.865 70.2709 123.865L72.7003 121.132C73.1052 120.676 73.6619 120.183 74.1807 120.474L72.7762 122.347C72.7835 122.416 72.8053 122.482 72.84 122.542C72.8747 122.602 72.9216 122.654 72.9777 122.694C73.0338 122.735 73.0978 122.763 73.1655 122.777C73.2333 122.792 73.3033 122.791 73.371 122.777C73.6323 122.684 73.858 122.511 74.0163 122.283C74.9021 121.258 75.7372 120.17 76.547 119.044L76.0914 118.513L77.0404 117.336C77.4738 117.538 77.8515 117.842 78.1413 118.222C77.3398 119.191 76.7107 120.291 76.2813 121.474C77.0278 121.815 77.7237 120.967 78.1666 120.208L80.2671 116.729C79.9255 117.298 81.3553 116.893 81.3426 116.893C81.7982 116.729 82.3802 115.539 82.608 115.058C83.0759 114.21 83.2325 113.226 83.0508 112.275C82.666 111.135 82.0045 110.108 81.1256 109.287C80.2467 108.465 79.1779 107.875 78.0148 107.567Z" fill="#92E3A9"/>
<path d="M69.7015 106.631C69.6246 106.566 69.5332 106.52 69.4349 106.497C69.3366 106.474 69.2342 106.475 69.1364 106.5C69.0385 106.525 68.9481 106.572 68.8725 106.639C68.7969 106.706 68.7384 106.79 68.7019 106.884C68.624 107.091 68.6218 107.319 68.6959 107.528C68.77 107.736 68.9156 107.912 69.1068 108.023C69.2772 108.09 69.4664 108.091 69.6373 108.025C69.8082 107.959 69.9484 107.832 70.0305 107.669C70.1258 107.487 70.1756 107.285 70.1756 107.08C70.1756 106.875 70.1258 106.673 70.0305 106.492C69.9546 106.353 69.7015 106.302 69.7395 106.492L69.7015 106.631Z" fill="#92E3A9"/>
<path d="M68.2082 117.159C68.1633 117.12 68.1098 117.093 68.0522 117.08C67.9947 117.067 67.9347 117.068 67.8776 117.083C67.8205 117.098 67.7678 117.126 67.7241 117.166C67.6803 117.205 67.6466 117.255 67.6261 117.31C67.5786 117.429 67.5754 117.561 67.6172 117.682C67.6591 117.803 67.7431 117.905 67.8539 117.968C67.9535 118.009 68.0646 118.01 68.1653 117.973C68.266 117.935 68.349 117.862 68.3981 117.766C68.4545 117.661 68.4841 117.544 68.4841 117.424C68.4841 117.305 68.4545 117.188 68.3981 117.083C68.3981 116.994 68.2082 116.969 68.2209 117.083L68.2082 117.159Z" fill="#92E3A9"/>
<path d="M78.0148 107.567C75.9695 107.319 73.9046 107.837 72.2195 109.023C71.0197 109.68 70.0255 110.656 69.3472 111.844C68.995 112.491 68.8104 113.215 68.8104 113.951C68.8104 114.687 68.995 115.412 69.3472 116.058C69.579 116.34 69.7745 116.651 69.9292 116.982C70.081 117.399 70.0431 117.88 70.1949 118.31C70.3468 118.74 70.8909 119.31 70.9668 119.917C70.9765 120.177 70.9345 120.436 70.8433 120.679C70.7521 120.922 70.6134 121.145 70.4354 121.334C70.0911 121.697 69.828 122.128 69.6635 122.6C69.5496 123.119 69.8153 123.865 70.2709 123.865L72.7003 121.132C73.1052 120.676 73.6619 120.183 74.1807 120.474L72.7762 122.347C72.7835 122.416 72.8053 122.482 72.84 122.542C72.8747 122.602 72.9216 122.654 72.9777 122.694C73.0338 122.735 73.0978 122.763 73.1655 122.777C73.2333 122.792 73.3033 122.791 73.371 122.777C73.6323 122.684 73.858 122.511 74.0163 122.283C74.9021 121.258 75.7372 120.17 76.547 119.044L76.0914 118.513L77.0404 117.336C77.4738 117.538 77.8515 117.842 78.1413 118.222C77.3398 119.191 76.7107 120.291 76.2813 121.474C77.0278 121.815 77.7237 120.967 78.1666 120.208L80.2671 116.729C79.9255 117.298 81.3553 116.893 81.3426 116.893C81.7982 116.729 82.3802 115.539 82.608 115.058C83.0759 114.21 83.2325 113.226 83.0508 112.275C82.666 111.135 82.0045 110.108 81.1256 109.287C80.2467 108.465 79.1779 107.875 78.0148 107.567Z" fill="#FFB748"/>
<path opacity="0.8" d="M69.7015 106.631C69.6246 106.566 69.5332 106.52 69.4349 106.497C69.3366 106.474 69.2342 106.475 69.1364 106.5C69.0385 106.525 68.9481 106.572 68.8725 106.639C68.7969 106.706 68.7384 106.79 68.7019 106.884C68.624 107.091 68.6218 107.319 68.6959 107.528C68.77 107.736 68.9156 107.912 69.1068 108.023C69.2772 108.09 69.4664 108.091 69.6373 108.025C69.8082 107.959 69.9484 107.832 70.0305 107.669C70.1258 107.487 70.1756 107.285 70.1756 107.08C70.1756 106.875 70.1258 106.673 70.0305 106.492C69.9546 106.353 69.7015 106.302 69.7395 106.492L69.7015 106.631Z" fill="#FFB748"/>
<path opacity="0.8" d="M68.2085 117.159C68.1635 117.12 68.11 117.093 68.0525 117.08C67.9949 117.067 67.935 117.068 67.8778 117.083C67.8207 117.098 67.7681 117.126 67.7243 117.166C67.6805 117.205 67.6469 117.255 67.6264 117.31C67.5788 117.429 67.5757 117.561 67.6175 117.682C67.6593 117.803 67.7433 117.905 67.8541 117.968C67.9537 118.009 68.0648 118.01 68.1655 117.973C68.2662 117.935 68.3493 117.862 68.3983 117.766C68.4548 117.661 68.4843 117.544 68.4843 117.424C68.4843 117.305 68.4548 117.188 68.3983 117.083C68.3983 116.994 68.2085 116.969 68.2211 117.083L68.2085 117.159Z" fill="#FFB748"/>
<g opacity="0.4">
<g opacity="0.2">
<path opacity="0.2" d="M69.7015 106.631C69.6246 106.566 69.5332 106.52 69.4349 106.497C69.3366 106.474 69.2342 106.475 69.1364 106.5C69.0385 106.525 68.9481 106.572 68.8725 106.639C68.7969 106.706 68.7384 106.79 68.7019 106.884C68.624 107.091 68.6218 107.319 68.6959 107.528C68.77 107.736 68.9156 107.912 69.1068 108.023C69.2772 108.09 69.4664 108.091 69.6373 108.025C69.8082 107.959 69.9484 107.832 70.0305 107.669C70.1258 107.487 70.1756 107.285 70.1756 107.08C70.1756 106.875 70.1258 106.673 70.0305 106.492C69.9546 106.353 69.7015 106.302 69.7395 106.492L69.7015 106.631Z" fill="#FFB748"/>
</g>
<g opacity="0.2">
<path opacity="0.2" d="M68.2085 117.159C68.1635 117.12 68.11 117.093 68.0525 117.08C67.9949 117.067 67.935 117.068 67.8778 117.083C67.8207 117.098 67.7681 117.126 67.7243 117.166C67.6805 117.205 67.6469 117.255 67.6264 117.31C67.5788 117.429 67.5757 117.561 67.6175 117.682C67.6593 117.803 67.7433 117.905 67.8541 117.968C67.9537 118.009 68.0648 118.01 68.1655 117.973C68.2662 117.935 68.3493 117.862 68.3983 117.766C68.4548 117.661 68.4843 117.544 68.4843 117.424C68.4843 117.305 68.4548 117.188 68.3983 117.083C68.3983 116.994 68.2085 116.969 68.2211 117.083L68.2085 117.159Z" fill="#FFB748"/>
</g>
</g>
<path d="M73.9277 93.0413C73.0359 92.0946 71.9096 91.4006 70.6631 91.0294C69.2222 90.8169 67.753 91.1314 66.5254 91.9152C66.1159 92.1038 65.7595 92.3907 65.4878 92.7503C65.1082 93.2818 65.007 94.0157 64.5388 94.4712C63.8555 95.0786 62.5522 94.8761 62.4003 95.8631C62.3768 96.0903 62.4206 96.3194 62.5264 96.5219C62.6321 96.7244 62.7952 96.8914 62.9951 97.0019C63.3891 97.1889 63.8259 97.2675 64.2604 97.2296C64.2796 97.3921 64.2439 97.5562 64.159 97.6961C64.0742 97.8359 63.9451 97.9434 63.7923 98.0015C63.5008 98.0761 63.217 98.1777 62.9445 98.3052C62.6959 98.5184 62.5296 98.8118 62.4744 99.1346C62.4192 99.4574 62.4785 99.7893 62.6421 100.073C62.8058 100.357 63.0634 100.574 63.3704 100.688C63.6775 100.802 64.0147 100.805 64.3237 100.697L61.9955 102.43C61.8256 102.526 61.6765 102.655 61.557 102.809C61.4375 102.964 61.35 103.14 61.2995 103.329C61.2807 103.597 61.3478 103.864 61.4912 104.092C61.6345 104.319 61.8466 104.495 62.0967 104.594C63.9188 105.303 65.4878 102.62 67.4111 102.633C68.3222 102.633 69.2459 103.278 70.1063 102.949C70.3875 102.797 70.6793 102.666 70.9794 102.557C71.3749 102.552 71.7671 102.629 72.1309 102.785C73.953 103.265 75.9902 101.215 76.4457 99.2289C76.9266 96.8247 75.4841 94.4585 73.9277 93.0413Z" fill="#92E3A9"/>
<path d="M73.9277 93.0413C73.0359 92.0946 71.9096 91.4006 70.6631 91.0294C69.2222 90.8169 67.753 91.1314 66.5254 91.9152C66.1159 92.1038 65.7595 92.3907 65.4878 92.7503C65.1082 93.2818 65.007 94.0157 64.5388 94.4712C63.8555 95.0786 62.5522 94.8761 62.4003 95.8631C62.3768 96.0903 62.4206 96.3194 62.5264 96.5219C62.6321 96.7244 62.7952 96.8914 62.9951 97.0019C63.3891 97.1889 63.8259 97.2675 64.2604 97.2296C64.2796 97.3921 64.2439 97.5562 64.159 97.6961C64.0742 97.8359 63.9451 97.9434 63.7923 98.0015C63.5008 98.0761 63.217 98.1777 62.9445 98.3052C62.6959 98.5184 62.5296 98.8118 62.4744 99.1346C62.4192 99.4574 62.4785 99.7893 62.6421 100.073C62.8058 100.357 63.0634 100.574 63.3704 100.688C63.6775 100.802 64.0147 100.805 64.3237 100.697L61.9955 102.43C61.8256 102.526 61.6765 102.655 61.557 102.809C61.4375 102.964 61.35 103.14 61.2995 103.329C61.2807 103.597 61.3478 103.864 61.4912 104.092C61.6345 104.319 61.8466 104.495 62.0967 104.594C63.9188 105.303 65.4878 102.62 67.4111 102.633C68.3222 102.633 69.2459 103.278 70.1063 102.949C70.3875 102.797 70.6793 102.666 70.9794 102.557C71.3749 102.552 71.7671 102.629 72.1309 102.785C73.953 103.265 75.9902 101.215 76.4457 99.2289C76.9266 96.8247 75.4841 94.4585 73.9277 93.0413Z" fill="#FFB748"/>
<path d="M59.7685 106.505C59.5716 106.647 59.4162 106.839 59.3184 107.062C59.2205 107.284 59.1837 107.529 59.2118 107.77C59.2915 108.14 59.5144 108.463 59.8318 108.668C60.0006 108.82 60.2072 108.924 60.4298 108.968C60.6524 109.013 60.8829 108.997 61.0971 108.921C61.3719 108.736 61.5628 108.449 61.6286 108.124C61.7281 107.438 61.7067 106.74 61.5653 106.062C61.2518 105.996 60.9275 106.002 60.6165 106.079C60.3055 106.155 60.0158 106.301 59.7685 106.505Z" fill="#92E3A9"/>
<path opacity="0.8" d="M59.7685 106.505C59.5716 106.647 59.4162 106.839 59.3184 107.062C59.2205 107.284 59.1837 107.529 59.2118 107.77C59.2915 108.14 59.5144 108.463 59.8318 108.668C60.0006 108.82 60.2072 108.924 60.4298 108.968C60.6524 109.013 60.8829 108.997 61.0971 108.921C61.3719 108.736 61.5628 108.449 61.6286 108.124C61.7281 107.438 61.7067 106.74 61.5653 106.062C61.2518 105.996 60.9275 106.002 60.6165 106.079C60.3055 106.155 60.0158 106.301 59.7685 106.505Z" fill="#FFB748"/>
<path d="M58.5157 102.139C58.3132 102.038 58.0855 102.304 58.1234 102.557C58.1326 102.614 58.153 102.668 58.1836 102.717C58.2142 102.766 58.2543 102.808 58.3015 102.841C58.3487 102.874 58.402 102.897 58.4584 102.909C58.5147 102.921 58.573 102.922 58.6295 102.911C58.7421 102.876 58.8436 102.812 58.9236 102.726C59.0035 102.639 59.0592 102.533 59.085 102.418L58.7435 102.152L58.5157 102.139Z" fill="#FFB748"/>
<path d="M60.9073 99.596C60.7428 99.7352 60.4898 99.7352 60.3632 99.9123C60.3277 99.9633 60.3037 100.021 60.2927 100.082C60.2818 100.144 60.2842 100.206 60.2998 100.266C60.3155 100.327 60.344 100.383 60.3833 100.431C60.4226 100.479 60.4719 100.518 60.5277 100.545C60.5277 100.747 60.2873 100.861 60.1608 101.026C60.0343 101.19 59.971 101.469 60.1608 101.595C60.3506 101.722 60.4518 101.595 60.5657 101.507L61.0718 101.14C61.2074 101.062 61.314 100.942 61.3755 100.798C61.3755 100.634 61.3755 100.418 61.1984 100.431L61.4641 100.077C61.4253 99.9939 61.369 99.9205 61.2991 99.8615C61.2292 99.8026 61.1473 99.7594 61.0592 99.7351C60.9579 99.7351 60.8187 99.5959 60.8947 99.52L60.9073 99.596Z" fill="#FFB748"/>
<path d="M49.4811 158.017C49.3396 157.9 49.1725 157.819 48.9935 157.779C48.8145 157.739 48.6286 157.742 48.451 157.788C48.2734 157.834 48.1091 157.92 47.9715 158.042C47.8339 158.163 47.7268 158.315 47.659 158.485C47.5152 158.86 47.5101 159.274 47.6447 159.652C47.7793 160.03 48.0447 160.348 48.3929 160.548C48.7038 160.665 49.047 160.665 49.3573 160.546C49.6677 160.427 49.9234 160.198 50.0758 159.902C50.2445 159.576 50.3325 159.213 50.3325 158.846C50.3325 158.478 50.2445 158.116 50.0758 157.789C49.9493 157.536 49.4938 157.435 49.5444 157.726L49.4811 158.017Z" fill="#FFB748"/>
<path d="M53.0114 155.411C52.9653 155.373 52.9108 155.346 52.8524 155.333C52.794 155.32 52.7334 155.32 52.6754 155.335C52.6174 155.35 52.5638 155.378 52.5188 155.418C52.4738 155.457 52.4388 155.507 52.4167 155.563C52.3687 155.686 52.3665 155.823 52.4106 155.949C52.4547 156.074 52.5421 156.179 52.6571 156.246C52.76 156.286 52.8742 156.286 52.9772 156.246C53.0801 156.206 53.1646 156.129 53.2139 156.031C53.2704 155.923 53.2999 155.804 53.2999 155.683C53.2999 155.561 53.2704 155.442 53.2139 155.335C53.2139 155.246 53.024 155.221 53.0367 155.335L53.0114 155.411Z" fill="#FFB748"/>
</svg>
