<svg width="203" height="154" viewBox="0 0 203 154" fill="none" xmlns="http://www.w3.org/2000/svg">
<path d="M41.1549 137.227C41.5016 138.086 42.0175 138.868 42.672 139.524C43.3265 140.181 44.1063 140.699 44.9651 141.049C46.3063 141.595 48.0986 141.476 50.164 142.639C54.8287 145.262 66.4728 142.924 74.9121 143.826C83.3514 144.728 94.7225 135.387 94.7225 135.387L128.207 137.227V103.992C128.207 103.992 93.2626 105.452 85.6897 102.532C78.1169 99.6117 69.6776 93.5107 65.8912 93.7956C62.1048 94.0805 30.947 97.582 30.947 97.582L41.143 137.227H41.1549Z" fill="white" stroke="#2E353A" stroke-width="1.18696" stroke-linecap="round" stroke-linejoin="round"/>
<path d="M32.4905 3.21839C25.5768 3.98369 19.0453 6.78193 13.7219 11.2593C8.39859 15.7367 4.52251 21.692 2.58381 28.3723C0.645101 35.0526 0.730868 42.1578 2.83027 48.7893C4.92967 55.4209 8.94839 61.281 14.3783 65.6285C19.8082 69.9761 26.4053 72.6159 33.3355 73.214C40.2656 73.8122 47.2175 72.3419 53.3121 68.9891C59.4066 65.6363 64.3701 60.5515 67.5747 54.3777C70.7794 48.204 72.0814 41.2186 71.3161 34.3049C70.8109 29.7132 69.4055 25.2662 67.1803 21.218C64.955 17.1699 61.9536 13.6002 58.3476 10.713C54.7417 7.82578 50.6019 5.67776 46.1651 4.39177C41.7283 3.10578 37.0815 2.70706 32.4905 3.21839ZM39.4699 66.2224C33.9238 66.8385 28.3196 65.7962 23.3659 63.2273C18.4122 60.6584 14.3315 56.6783 11.6398 51.7902C8.94813 46.9021 7.7664 41.3256 8.24401 35.7659C8.72163 30.2062 10.8372 24.913 14.3231 20.5556C17.809 16.1982 22.5087 12.9723 27.828 11.2859C33.1472 9.59955 38.8471 9.52835 44.2068 11.0814C49.5666 12.6344 54.3454 15.7419 57.939 20.0108C61.5327 24.2798 63.7798 29.5186 64.3961 35.0646C64.8053 38.7471 64.4852 42.4742 63.454 46.0331C62.4228 49.5919 60.7007 52.9127 58.3861 55.806C56.0715 58.6993 53.2096 61.1083 49.964 62.8956C46.7183 64.6828 43.1524 65.8133 39.4699 66.2224Z" fill="white" stroke="#2E353A" stroke-width="1.18696" stroke-linecap="round" stroke-linejoin="round"/>
<path d="M32.3003 1.21239C25.3866 1.97768 18.8551 4.77593 13.5318 9.2533C8.20845 13.7307 4.33233 19.686 2.39362 26.3663C0.454915 33.0466 0.540683 40.1518 2.64008 46.7833C4.73949 53.4149 8.75821 59.275 14.1881 63.6225C19.618 67.9701 26.2151 70.6099 33.1453 71.208C40.0755 71.8062 47.0273 70.3359 53.1219 66.9831C59.2164 63.6302 64.1799 58.5455 67.3846 52.3717C70.5892 46.198 71.8912 39.2126 71.1259 32.299C70.0966 23.0294 65.4287 14.5478 58.1483 8.71852C50.8678 2.88926 41.5706 0.189407 32.3003 1.21239ZM39.2797 64.2164C33.7336 64.8325 28.1294 63.7902 23.1757 61.2213C18.222 58.6524 14.1413 54.6723 11.4496 49.7842C8.75795 44.8961 7.57621 39.3196 8.05383 33.7599C8.53145 28.2002 10.647 22.907 14.1329 18.5496C17.6188 14.1922 22.3186 10.9663 27.6378 9.27994C32.9571 7.59355 38.6569 7.52235 44.0167 9.07537C49.3764 10.6284 54.1552 13.7359 57.7489 18.0048C61.3425 22.2738 63.5896 27.5126 64.2059 33.0586C64.6151 36.7411 64.295 40.4682 63.2638 44.027C62.2326 47.5859 60.5105 50.9067 58.1959 53.8C55.8813 56.6933 53.0195 59.1023 49.7738 60.8896C46.5281 62.6768 42.9622 63.8073 39.2797 64.2164Z" fill="white" stroke="#2E353A" stroke-width="1.18696" stroke-linecap="round" stroke-linejoin="round"/>
<path d="M41.1976 71.7775L39.5342 71.9617C37.6577 72.1695 36.305 73.8592 36.5128 75.7357L39.2123 100.109C39.4201 101.986 41.1098 103.339 42.9863 103.131L44.6497 102.946C46.5262 102.739 47.8789 101.049 47.6711 99.1725L44.9716 74.7988C44.7638 72.9224 43.0741 71.5696 41.1976 71.7775Z" fill="#FFB748" stroke="#2E353A" stroke-width="1.18696" stroke-linecap="round" stroke-linejoin="round"/>
<path d="M40.6566 92.1219L44.2175 91.742C45.7488 91.5782 47.283 92.0246 48.4873 92.9845C49.6917 93.9444 50.469 95.3404 50.6508 96.8697L55.9803 145.072C56.1969 147.043 55.6221 149.019 54.3823 150.566C53.1426 152.112 51.3393 153.104 49.3689 153.322H49.1315C48.1555 153.43 47.1677 153.346 46.2245 153.072C45.2814 152.799 44.4015 152.342 43.6352 151.728C42.8689 151.113 42.2312 150.354 41.7588 149.493C41.2864 148.632 40.9885 147.687 40.8822 146.71L35.5527 98.5196C35.4669 97.7565 35.5325 96.9839 35.7456 96.2461C35.9588 95.5083 36.3154 94.8199 36.795 94.2201C37.2746 93.6203 37.8678 93.121 38.5406 92.7508C39.2134 92.3806 39.9526 92.1467 40.716 92.0625L40.6566 92.1219Z" fill="#2E353A" stroke="#2E353A" stroke-width="1.18696" stroke-linecap="round" stroke-linejoin="round"/>
<path d="M45.8319 132.289C45.8319 132.289 37.3926 132.597 36.2056 134.057C35.0187 135.517 35.2323 140.597 37.5232 141.179C43.363 142.71 55.7787 141.82 56.2653 140.775C56.752 139.731 57.749 133.654 55.1852 133.001C52.09 132.527 48.9632 132.288 45.8319 132.289Z" fill="white" stroke="#2E353A" stroke-width="1.18696" stroke-linecap="round" stroke-linejoin="round"/>
<path d="M43.3986 120.514C43.3986 120.514 33.5824 120.146 32.0512 121.915C30.52 123.683 30.2233 130.295 32.8109 131.292C39.4104 133.82 54.2593 132.835 54.9359 131.529C55.6124 130.223 57.0843 123.446 54.1762 122.354C51.2681 121.262 43.3986 120.514 43.3986 120.514Z" fill="white" stroke="#2E353A" stroke-width="1.18696" stroke-linecap="round" stroke-linejoin="round"/>
<path d="M41.9857 107.22C41.9857 107.22 31.4929 106.817 29.8549 108.716C28.2169 110.615 27.8964 117.665 30.6621 118.734C37.7838 121.44 53.2144 121.44 53.9384 120.039C54.6625 118.639 56.6091 110.354 53.4992 109.179C50.3894 108.003 41.9857 107.22 41.9857 107.22Z" fill="white" stroke="#2E353A" stroke-width="1.18696" stroke-linecap="round" stroke-linejoin="round"/>
<path d="M35.9326 94.7806C35.9326 94.7806 25.4398 94.3889 23.8018 96.2762C22.1638 98.1634 21.7721 105.44 24.609 106.294C27.4458 107.149 47.1613 109 47.8853 107.612C48.6094 106.223 50.556 97.9142 47.4461 96.7391C44.3363 95.564 35.9326 94.7806 35.9326 94.7806Z" fill="white" stroke="#2E353A" stroke-width="1.18696" stroke-linecap="round" stroke-linejoin="round"/>
<path d="M70.2951 129.689C68.4116 129.171 66.6268 128.345 65.0131 127.244C56.5738 121.416 56.8587 108.027 56.8587 108.027L54.829 107.446C53.1525 106.808 51.5803 105.923 50.1643 104.822C50.844 107.588 51.2416 110.416 51.3512 113.262C51.3208 114.826 50.7097 116.322 49.637 117.461C48.5642 118.6 47.1064 119.299 45.547 119.422C42.9238 119.719 41.7606 120.004 40.8822 116.514C40.0039 113.024 35.6477 99.0418 35.351 97.0002C35.0898 95.1486 38.1997 91.8488 43.1493 91.0654C50.7577 91.6827 58.2594 93.8073 65.9271 93.8073C68.5951 94.0577 71.1518 94.9986 73.3457 96.5373" fill="white"/>
<path d="M70.2951 129.689C68.4116 129.171 66.6268 128.345 65.0131 127.244C56.5738 121.416 56.8587 108.027 56.8587 108.027L54.829 107.446C53.1525 106.808 51.5803 105.923 50.1643 104.822C50.844 107.588 51.2416 110.416 51.3512 113.262C51.3208 114.826 50.7097 116.322 49.637 117.461C48.5642 118.6 47.1064 119.299 45.547 119.422C42.9238 119.719 41.7606 120.004 40.8822 116.514C40.0039 113.024 35.6477 99.0418 35.351 97.0002C35.0898 95.1486 38.1997 91.8488 43.1493 91.0654C50.7577 91.6827 58.2594 93.8073 65.9271 93.8073C68.5951 94.0577 71.1518 94.9986 73.3457 96.5373" stroke="#2E353A" stroke-width="1.18696" stroke-linecap="round" stroke-linejoin="round"/>
<path d="M78.3192 130.425C77.394 130.473 76.467 130.473 75.5417 130.425H78.3192Z" fill="white"/>
<path d="M78.3192 130.425C77.394 130.473 76.467 130.473 75.5417 130.425" stroke="#2E353A" stroke-width="1.18696" stroke-linecap="round" stroke-linejoin="round"/>
<path d="M84.5269 129.274C82.5114 129.912 80.4278 130.31 78.3191 130.461L84.5269 129.274Z" fill="white"/>
<path d="M84.5269 129.274C82.5114 129.912 80.4278 130.31 78.3191 130.461" stroke="#2E353A" stroke-width="1.18696" stroke-linecap="round" stroke-linejoin="round"/>
<path d="M95.0078 125.499H105.489" stroke="#2E353A" stroke-width="1.18696" stroke-linecap="round" stroke-linejoin="round"/>
<path d="M95.8857 128.407H100.254" stroke="#2E353A" stroke-width="1.18696" stroke-linecap="round" stroke-linejoin="round"/>
<path d="M56.8586 108.027C56.8586 108.027 62.651 108.027 66.4493 104.573" stroke="#2E353A" stroke-width="1.18696" stroke-linecap="round" stroke-linejoin="round"/>
<path d="M50.0335 104.443C49.8666 102.862 49.5365 101.303 49.0483 99.7897" stroke="#2E353A" stroke-width="1.18696" stroke-linecap="round" stroke-linejoin="round"/>
<path d="M40.7992 114.983C40.7992 114.983 39.6954 111.92 41.0366 110.817C42.3779 109.713 45.9388 108.122 46.556 109.345C47.1732 110.567 48.5145 116.205 48.1465 117.309L47.7786 118.413" stroke="#2E353A" stroke-width="0.593481" stroke-linecap="round" stroke-linejoin="round"/>
<path d="M201.692 152.123H101.334V102.793H201.692" fill="#FFB748"/>
<path d="M201.692 152.123H101.334V102.793H201.692" stroke="#2E353A" stroke-width="1.18696" stroke-linecap="round" stroke-linejoin="round"/>
<path d="M108.693 148.823C109.939 148.823 110.948 147.813 110.948 146.568C110.948 145.322 109.939 144.313 108.693 144.313C107.448 144.313 106.438 145.322 106.438 146.568C106.438 147.813 107.448 148.823 108.693 148.823Z" fill="white" stroke="#2E353A" stroke-width="1.18696" stroke-linecap="round" stroke-linejoin="round"/>
</svg>
