<svg width="145" height="120" viewBox="0 0 145 120" fill="none" xmlns="http://www.w3.org/2000/svg">
<mask id="mask0_3_1710" style="mask-type:alpha" maskUnits="userSpaceOnUse" x="0" y="0" width="145" height="120">
<path d="M142.44 43.4214C137.3 26.7215 124.082 13.3534 108.447 6.29647C93.5261 -0.417483 74.6714 -3.75244 60.5264 6.60794C51.2177 13.4194 45.9477 24.3367 37.4208 31.9788C33.1827 35.7762 28.5585 37.0127 23.4942 39.2842C11.2103 44.8215 0.929971 55.4996 0.0722181 69.5851C-1.31411 93.15 17.4678 109.428 38.4274 114.774C66.1223 121.834 86.8223 121.834 105.845 114.207C115.723 110.246 125.785 105.238 132.9 97.0355C143.662 84.6333 146.647 67.0147 144.197 51.1013C143.8 48.5022 143.213 45.9354 142.44 43.4214Z" fill="white"/>
</mask>
<g mask="url(#mask0_3_1710)">
<path opacity="0.1" d="M142.44 43.4214C137.3 26.7215 124.082 13.3534 108.447 6.29647C93.5261 -0.417483 74.6714 -3.75244 60.5264 6.60794C51.2177 13.4194 45.9477 24.3367 37.4208 31.9788C33.1827 35.7762 28.5585 37.0127 23.4942 39.2842C11.2103 44.8215 0.929971 55.4996 0.0722181 69.5851C-1.31411 93.15 17.4678 109.428 38.4274 114.774C66.1223 121.834 86.8223 121.834 105.845 114.207C115.723 110.246 125.785 105.238 132.9 97.0355C143.662 84.6333 146.647 67.0147 144.197 51.1013C143.8 48.5022 143.213 45.9354 142.44 43.4214Z" fill="white"/>
<path d="M66.0406 66.6361L45.8298 76.2094L51.6602 132.983H91.9496L97.648 75.2662L78.6552 66.5L66.0406 66.6361Z" fill="#FFB748" stroke="#263238" stroke-width="0.678216" stroke-linecap="round" stroke-linejoin="round"/>
<path d="M74.1406 83.9594C74.5188 83.9594 74.8254 83.6546 74.8254 83.2787C74.8254 82.9028 74.5188 82.598 74.1406 82.598C73.7624 82.598 73.4558 82.9028 73.4558 83.2787C73.4558 83.6546 73.7624 83.9594 74.1406 83.9594Z" fill="#263238"/>
<path d="M74.8254 87.3628C74.8254 87.4974 74.7852 87.629 74.71 87.741C74.6347 87.8529 74.5278 87.9401 74.4026 87.9917C74.2775 88.0432 74.1398 88.0567 74.007 88.0304C73.8742 88.0041 73.7521 87.9393 73.6564 87.8441C73.5606 87.7489 73.4954 87.6276 73.469 87.4956C73.4425 87.3636 73.4561 87.2267 73.5079 87.1023C73.5598 86.9779 73.6475 86.8716 73.7601 86.7968C73.8728 86.722 74.0052 86.6821 74.1406 86.6821C74.3222 86.6821 74.4964 86.7538 74.6248 86.8815C74.7532 87.0091 74.8254 87.1823 74.8254 87.3628Z" fill="#263238"/>
<path d="M81.1496 69.5339L75.6273 75.6551L73.2697 81.6014L70.7312 75.5676L65.3899 69.5339V58.8181H81.1496V69.5339Z" fill="white" stroke="#263238" stroke-width="0.678216" stroke-linecap="round" stroke-linejoin="round"/>
<path d="M65.3899 63.5829C66.4295 64.839 67.7364 65.8504 69.2166 66.544C70.6967 67.2376 72.3132 67.5962 73.9496 67.594C76.5907 67.5972 79.1454 66.6588 81.1496 64.9491V58.8181H65.3899V63.5829Z" fill="#263238" stroke="#263238" stroke-width="0.678216" stroke-linecap="round" stroke-linejoin="round"/>
<path d="M75.0602 28.8293H72.8395C67.3233 28.8293 62.8516 33.2743 62.8516 38.7575V54.6513C62.8516 60.1345 67.3233 64.5795 72.8395 64.5795H75.0602C80.5764 64.5795 85.0482 60.1345 85.0482 54.6513V38.7575C85.0482 33.2743 80.5764 28.8293 75.0602 28.8293Z" fill="white" stroke="#263238" stroke-width="0.678216" stroke-linecap="round" stroke-linejoin="round"/>
<path d="M76.0776 44.6794L75.7499 52.4926C75.7435 52.8312 75.6326 53.1597 75.4323 53.4336C75.2319 53.7075 74.9518 53.9137 74.6298 54.0242C74.0379 54.2041 73.3629 54.0242 72.9961 52.6968" stroke="#263238" stroke-width="0.678216" stroke-linecap="round" stroke-linejoin="round"/>
<path d="M69.6602 55.5752H78.4644C78.4644 55.5752 76.9237 58.9105 73.9351 58.9105C70.9466 58.9105 69.6602 55.5752 69.6602 55.5752Z" fill="#263238" stroke="#263238" stroke-width="0.678216" stroke-linecap="round" stroke-linejoin="round"/>
<path d="M70.2862 56.7469H77.7014C77.9833 56.3807 78.229 55.9883 78.4351 55.5752H69.6602C69.8273 55.9864 70.0371 56.3791 70.2862 56.7469Z" fill="white" stroke="#263238" stroke-width="0.678216" stroke-linecap="round" stroke-linejoin="round"/>
<path d="M69.5572 48.1947C69.9084 48.1947 70.1931 47.5286 70.1931 46.7069C70.1931 45.8852 69.9084 45.2191 69.5572 45.2191C69.2061 45.2191 68.9214 45.8852 68.9214 46.7069C68.9214 47.5286 69.2061 48.1947 69.5572 48.1947Z" fill="#263238"/>
<path d="M79.066 48.1947C79.4172 48.1947 79.7019 47.5286 79.7019 46.7069C79.7019 45.8852 79.4172 45.2191 79.066 45.2191C78.7149 45.2191 78.4302 45.8852 78.4302 46.7069C78.4302 47.5286 78.7149 48.1947 79.066 48.1947Z" fill="#263238"/>
<path d="M77.0752 42.7881C77.0752 42.7881 79.2469 41.4365 81.6974 43.6" stroke="#263238" stroke-width="0.678216" stroke-linecap="round" stroke-linejoin="round"/>
<path d="M73.9499 28.8293C71.0064 28.8293 68.1835 29.9916 66.1022 32.0605C64.0208 34.1294 62.8516 36.9354 62.8516 39.8612V49.9109H62.9445H63.8494V45.7685C63.8494 45.7685 68.3787 45.7685 73.7249 42.8902C79.071 40.0119 80.421 35.3152 80.421 35.3152C80.421 35.3152 81.5998 40.9892 82.8667 42.0685L84.1384 43.1479V49.9935H85.0433V39.8612C85.0433 36.9362 83.8747 34.1309 81.7944 32.0622C79.7141 29.9935 76.8925 28.8306 73.9499 28.8293Z" fill="#263238" stroke="#263238" stroke-width="0.678216" stroke-linecap="round" stroke-linejoin="round"/>
<path d="M45.8299 76.2094L28.7349 112.164L35.7881 118.28L48.5396 102.372L45.8299 76.2094Z" fill="#FFB748" stroke="#263238" stroke-width="0.678216" stroke-linecap="round" stroke-linejoin="round"/>
<path d="M44.4259 87.2316L48.5786 101.156L43.6482 93.1583" stroke="#263238" stroke-width="0.678216" stroke-miterlimit="10"/>
<path d="M97.648 75.2662L113.926 111.405L103.889 115.723L94.9333 101.429L97.648 75.2662Z" fill="#FFB748" stroke="#263238" stroke-width="0.678216" stroke-linecap="round" stroke-linejoin="round"/>
<path d="M37.9597 111.269L52.6091 124.887L48.5395 129.608L27.2429 116.476L29.6886 110.005" fill="#FFB748"/>
<path d="M37.9597 111.269L52.6091 124.887L48.5395 129.608L27.2429 116.476L29.6886 110.005" stroke="#263238" stroke-width="0.678216" stroke-linecap="round" stroke-linejoin="round"/>
<path d="M101.429 107.827L92.8398 125.845L98.367 128.748L114.611 111.639L109.95 106.509" fill="#92E3A9"/>
<path d="M101.429 107.827L92.8398 125.845L98.367 128.748L114.611 111.639L109.95 106.509" stroke="#263238" stroke-width="0.678216" stroke-linecap="round" stroke-linejoin="round"/>
<path d="M110.223 127.294H60.8118L66.1384 89.7937H115.55L110.223 127.294Z" fill="white" stroke="#263238" stroke-width="0.678216" stroke-linecap="round" stroke-linejoin="round"/>
<path d="M112.268 127.294H62.8561L68.1827 89.7937H117.594L112.268 127.294Z" fill="#263238" stroke="#263238" stroke-width="0.678216" stroke-linecap="round" stroke-linejoin="round"/>
<path d="M97.1292 109.864L102.084 133.892H89.3325L84.3777 109.864H97.1292ZM88.4766 116.997C88.5015 117.094 88.5584 117.18 88.6381 117.242C88.7178 117.303 88.8158 117.337 88.9168 117.337L96.1412 117.269C96.209 117.268 96.2757 117.251 96.3364 117.221C96.3971 117.191 96.4502 117.148 96.492 117.095C96.5337 117.042 96.5629 116.98 96.5776 116.914C96.5922 116.848 96.5918 116.78 96.5765 116.715L95.9211 114.021C95.8978 113.922 95.8416 113.835 95.7617 113.772C95.6817 113.709 95.5827 113.675 95.4809 113.676L88.2565 113.744C88.1888 113.745 88.1222 113.761 88.0616 113.791C88.0011 113.821 87.9481 113.865 87.9068 113.918C87.8654 113.971 87.8366 114.033 87.8227 114.099C87.8087 114.165 87.8098 114.233 87.826 114.298L88.4766 116.997Z" fill="white" stroke="#263238" stroke-width="0.678216" stroke-linecap="round" stroke-linejoin="round"/>
</g>
</svg>
