<svg width="144" height="183" viewBox="0 0 144 183" fill="none" xmlns="http://www.w3.org/2000/svg">
<path d="M142.334 126.621C142.436 125.341 142.5 124.06 142.5 122.78C142.5 121.499 142.436 120.218 142.334 118.938L130.424 117.401C129.798 112.878 128.38 108.5 126.237 104.468L135.034 96.1442C133.667 93.936 132.134 91.8342 130.45 89.8568L119.898 95.6064C116.728 92.3215 113.01 89.6133 108.911 87.603L111.127 75.7964C108.726 74.807 106.251 74.0063 103.725 73.4018L98.603 84.2608C94.1097 83.4582 89.5097 83.4582 85.0164 84.2608L79.8943 73.4018C77.3686 74.0063 74.8939 74.807 72.4927 75.7964L74.7081 87.603C70.6092 89.6133 66.8914 92.3215 63.721 95.6064L53.0797 89.8312C51.3812 91.8125 49.8399 93.9232 48.4697 96.1442L57.2031 104.391C55.0501 108.42 53.628 112.799 53.0029 117.324L41.0938 118.861C40.9914 120.142 40.9274 121.422 40.9274 122.703C40.9274 123.983 40.9914 125.264 41.0938 126.544L53.0029 128.094C53.63 132.615 55.052 136.989 57.2031 141.014L48.4697 149.274C49.8287 151.485 51.3572 153.587 53.0413 155.561L63.5929 149.799C66.7599 153.088 70.4784 155.797 74.58 157.802L72.3647 169.609C74.7655 170.603 77.2402 171.408 79.7662 172.016L84.8884 161.145C89.3817 161.947 93.9817 161.947 98.4749 161.145L103.597 172.016C106.123 171.408 108.598 170.603 110.999 169.609L108.783 157.802C112.885 155.797 116.603 153.088 119.77 149.799L130.322 155.561C132.006 153.584 133.539 151.482 134.906 149.274L126.173 141.014C128.33 137.01 129.769 132.659 130.424 128.158L142.334 126.621ZM91.7137 93.7112C96.161 93.7189 100.547 94.751 104.531 96.7275C108.515 98.7039 111.99 101.572 114.687 105.108L96.0163 113.726C94.6724 113.086 93.2024 112.753 91.7137 112.753C90.2249 112.753 88.755 113.086 87.411 113.726L68.7407 105.108C71.4388 101.573 74.9142 98.7064 78.8979 96.7301C82.8816 94.7538 87.2667 93.7208 91.7137 93.7112ZM62.6966 122.728C62.6956 118.983 63.4219 115.273 64.8351 111.805L81.7254 123.714C81.8669 125.147 82.3152 126.533 83.04 127.777C83.7647 129.021 84.7489 130.094 85.9256 130.924L87.7952 151.412C80.8517 150.472 74.4838 147.048 69.8697 141.775C65.2556 136.501 62.7074 129.735 62.6966 122.728ZM95.6321 151.451L97.5017 130.962C98.6808 130.135 99.6667 129.062 100.392 127.818C101.117 126.573 101.564 125.186 101.702 123.753L118.592 111.844C120.269 115.942 120.985 120.37 120.685 124.788C120.384 129.206 119.075 133.496 116.858 137.329C114.641 141.162 111.575 144.436 107.895 146.9C104.216 149.363 100.021 150.951 95.6321 151.54V151.451Z" fill="#FFB748" stroke="#263238" stroke-width="1.61224" stroke-linecap="round" stroke-linejoin="round"/>
<path d="M95.9395 122.728C95.942 123.565 95.6963 124.383 95.2335 125.08C94.7708 125.776 94.1116 126.32 93.3397 126.642C92.5678 126.963 91.7177 127.049 90.8971 126.887C90.0766 126.726 89.3224 126.324 88.7302 125.734C88.1379 125.143 87.7342 124.39 87.5701 123.57C87.406 122.75 87.4889 121.9 87.8083 121.127C88.1278 120.354 88.6694 119.693 89.3646 119.228C90.0598 118.763 90.8774 118.515 91.7137 118.515C92.8322 118.515 93.9051 118.959 94.6973 119.748C95.4894 120.538 95.9361 121.61 95.9395 122.728Z" fill="white" stroke="#263238" stroke-width="1.61224" stroke-linecap="round" stroke-linejoin="round"/>
<path d="M142.167 39.0704C142.244 38.1484 142.282 37.2265 142.282 36.2789C142.282 35.3312 142.282 34.4221 142.167 33.5001L133.652 32.3988C133.205 29.1645 132.191 26.0345 130.655 23.1533L136.904 17.25C135.927 15.671 134.831 14.1684 133.626 12.7553L126.071 16.8786C123.806 14.5239 121.145 12.5863 118.208 11.1546L119.796 2.70303C118.091 2.00511 116.336 1.43581 114.546 0.999908L110.858 8.75999C107.644 8.17949 104.352 8.17949 101.139 8.75999L97.4634 0.999908C95.6479 1.41831 93.867 1.97484 92.1363 2.66462L93.7242 11.1162C90.7915 12.548 88.1342 14.4857 85.8744 16.8402L78.3321 12.7169C77.1231 14.1268 76.027 15.6297 75.0539 17.2116L81.2517 23.1533C79.7217 26.0369 78.7076 29.1659 78.2552 32.3988L69.7396 33.5001C69.6756 34.4221 69.6244 35.3441 69.6244 36.2789C69.6244 37.2136 69.6244 38.1484 69.7396 39.0704L78.2552 40.1717C78.7076 43.4046 79.7217 46.5336 81.2517 49.4172L75.0155 55.3205C75.9918 56.8962 77.0878 58.3946 78.2936 59.8024L85.836 55.6919C88.1026 58.0387 90.7584 59.9753 93.6858 61.4159L92.0979 69.8547C93.8168 70.5662 95.5895 71.14 97.3993 71.5706L101.075 63.8105C104.29 64.3736 107.579 64.3736 110.794 63.8105L114.482 71.5706C116.287 71.1381 118.055 70.5643 119.77 69.8547L118.183 61.4159C121.114 59.9755 123.774 58.0389 126.045 55.6919L133.587 59.8024C134.789 58.3914 135.885 56.8933 136.866 55.3205L130.617 49.4172C132.152 46.536 133.167 43.406 133.613 40.1717L142.167 39.0704ZM105.979 15.5341C109.154 15.5353 112.286 16.2671 115.132 17.6727C117.979 19.0782 120.464 21.12 122.396 23.6399L109.052 29.7993C108.092 29.3437 107.042 29.1074 105.979 29.1074C104.916 29.1074 103.866 29.3437 102.906 29.7993L89.5496 23.6399C91.4828 21.119 93.9701 19.0767 96.8191 17.6711C99.668 16.2656 102.802 15.5343 105.979 15.5341ZM85.2214 36.2789C85.2212 33.6 85.7432 30.9467 86.758 28.4675L98.8336 36.9832C98.9368 38.0033 99.259 38.989 99.7784 39.8731C100.298 40.7571 101.002 41.5186 101.843 42.1053L103.123 56.7803C98.1693 56.095 93.6296 53.643 90.3402 49.8759C87.0507 46.1087 85.2329 41.28 85.2214 36.2789ZM108.771 56.7675L110.115 42.0925C110.952 41.5021 111.654 40.7398 112.173 39.8564C112.692 38.9731 113.016 37.9891 113.124 36.9703L125.187 28.4547C126.383 31.3831 126.892 34.5465 126.675 37.7022C126.459 40.8579 125.522 43.922 123.937 46.6593C122.352 49.3966 120.161 51.7345 117.532 53.4933C114.903 55.2522 111.906 56.3854 108.771 56.8059V56.7675Z" fill="white" stroke="#263238" stroke-width="1.61224" stroke-linecap="round" stroke-linejoin="round"/>
<path d="M105.979 39.3009C107.648 39.3009 109.001 37.9478 109.001 36.2788C109.001 34.6097 107.648 33.2567 105.979 33.2567C104.31 33.2567 102.957 34.6097 102.957 36.2788C102.957 37.9478 104.31 39.3009 105.979 39.3009Z" fill="white" stroke="#263238" stroke-width="1.61224" stroke-linecap="round" stroke-linejoin="round"/>
<path d="M49.3277 160.466C49.3277 159.851 49.4173 159.185 49.4173 158.622C49.4173 158.058 49.4173 157.341 49.3277 156.765L43.6549 156.022C43.3599 153.867 42.6835 151.781 41.6572 149.863L45.819 145.932C45.1709 144.879 44.4432 143.877 43.6421 142.935L38.6096 145.675C37.099 144.102 35.3269 142.802 33.3721 141.834L34.4222 136.212C33.2811 135.735 32.1035 135.349 30.9007 135.06L28.4421 140.182C27.3733 139.986 26.2889 139.887 25.2023 139.887C24.1157 139.888 23.0314 139.987 21.9625 140.182L19.5167 135.06C18.3103 135.351 17.1285 135.736 15.9824 136.212L17.0452 141.834C15.0885 142.799 13.3159 144.099 11.8078 145.675L6.77526 142.935C5.97007 143.874 5.24208 144.876 4.59836 145.932L8.76012 149.863C7.72969 151.78 7.0489 153.866 6.74966 156.022L1.07687 156.765C1.07687 157.38 1 158.046 1 158.622C1 159.198 1.00004 159.902 1.07687 160.466L6.74966 161.208C7.0489 163.365 7.72969 165.45 8.76012 167.368L4.58554 171.299C5.2381 172.352 5.97012 173.354 6.77526 174.296L11.8078 171.555C13.3123 173.136 15.0857 174.437 17.0452 175.397L15.9824 181.018C17.1285 181.494 18.3103 181.88 19.5167 182.171L21.9625 176.985C23.0314 177.18 24.1157 177.278 25.2023 177.279C26.2889 177.279 27.3733 177.181 28.4421 176.985L30.9007 182.171C32.1035 181.882 33.2811 181.496 34.4222 181.018L33.3721 175.397C35.3297 174.433 37.1025 173.133 38.6096 171.555L43.6421 174.296C44.4432 173.354 45.1709 172.352 45.819 171.299L41.6572 167.368C42.6835 165.45 43.3599 163.364 43.6549 161.208L49.3277 160.466ZM25.2023 144.805C27.3198 144.804 29.409 145.291 31.3078 146.228C33.2066 147.165 34.8639 148.527 36.1509 150.209L27.2511 154.319C26.6115 154.013 25.9112 153.856 25.2023 153.858C24.4937 153.859 23.794 154.016 23.1534 154.319L14.2536 150.209C15.5426 148.529 17.2003 147.169 19.0987 146.232C20.997 145.295 23.0853 144.807 25.2023 144.805ZM11.3724 158.647C11.3733 156.86 11.7212 155.09 12.3969 153.436L20.4387 159.108C20.5082 159.793 20.7236 160.454 21.0704 161.049C21.4172 161.643 21.8873 162.156 22.4491 162.553L23.3455 172.336C20.0278 171.887 16.9858 170.249 14.784 167.727C12.5822 165.205 11.37 161.97 11.3724 158.622V158.647ZM27.0719 172.336L27.9683 162.553C28.5282 162.155 28.9963 161.642 29.341 161.048C29.6856 160.453 29.8987 159.792 29.9659 159.108L38.0205 153.436C38.8125 155.388 39.1477 157.497 39.0006 159.599C38.8535 161.701 38.2278 163.742 37.1715 165.565C36.1152 167.389 34.6562 168.947 32.9058 170.12C31.1554 171.294 29.1599 172.052 27.0719 172.336Z" fill="white" stroke="#263238" stroke-width="1.61224" stroke-linecap="round" stroke-linejoin="round"/>
<path d="M27.2128 158.622C27.2128 159.02 27.0949 159.408 26.874 159.739C26.6531 160.069 26.3391 160.327 25.9717 160.479C25.6044 160.631 25.2001 160.671 24.8101 160.594C24.4201 160.516 24.0619 160.325 23.7808 160.043C23.4996 159.762 23.3081 159.404 23.2305 159.014C23.1529 158.624 23.1928 158.22 23.3449 157.853C23.4971 157.485 23.7548 157.171 24.0854 156.95C24.416 156.729 24.8047 156.611 25.2024 156.611C25.7356 156.611 26.2469 156.823 26.624 157.2C27.001 157.577 27.2128 158.089 27.2128 158.622V158.622Z" stroke="#263238" stroke-width="1.61224" stroke-linecap="round" stroke-linejoin="round"/>
</svg>
