<svg width="145" height="120" viewBox="0 0 145 120" fill="none" xmlns="http://www.w3.org/2000/svg">
<mask id="mask0_3_1616" style="mask-type:alpha" maskUnits="userSpaceOnUse" x="0" y="0" width="145" height="120">
<path d="M142.44 43.4214C137.3 26.7215 124.082 13.3534 108.447 6.29647C93.5261 -0.417483 74.6714 -3.75244 60.5264 6.60794C51.2177 13.4194 45.9477 24.3367 37.4208 31.9788C33.1827 35.7762 28.5585 37.0127 23.4942 39.2842C11.2103 44.8215 0.929971 55.4996 0.0722181 69.5851C-1.31411 93.15 17.4678 109.428 38.4274 114.774C66.1223 121.834 86.8223 121.834 105.845 114.207C115.723 110.246 125.785 105.238 132.9 97.0355C143.662 84.6333 146.647 67.0147 144.197 51.1013C143.8 48.5022 143.213 45.9354 142.44 43.4214Z" fill="white"/>
</mask>
<g mask="url(#mask0_3_1616)">
<path opacity="0.1" d="M142.44 43.4214C137.3 26.7215 124.082 13.3534 108.447 6.29647C93.5261 -0.417483 74.6714 -3.75244 60.5264 6.60794C51.2177 13.4194 45.9477 24.3367 37.4208 31.9788C33.1827 35.7762 28.5585 37.0127 23.4942 39.2842C11.2103 44.8215 0.929971 55.4996 0.0722181 69.5851C-1.31411 93.15 17.4678 109.428 38.4274 114.774C66.1223 121.834 86.8223 121.834 105.845 114.207C115.723 110.246 125.785 105.238 132.9 97.0355C143.662 84.6333 146.647 67.0147 144.197 51.1013C143.8 48.5022 143.213 45.9354 142.44 43.4214Z" fill="white"/>
<path d="M69.1506 70.7279L61.4771 73.7173C61.4771 73.7173 64.2537 90.8578 67.9678 99.7041C71.682 108.55 85.2116 122.594 85.2116 122.594C85.2116 122.594 92.2217 112.422 94.6665 104.349C97.1114 96.2774 94.5584 73.6026 94.5584 73.6026C92.809 72.5902 90.8835 71.9141 88.8825 71.6097C85.3992 71.0577 69.1506 70.7279 69.1506 70.7279Z" fill="white" stroke="#263238" stroke-linecap="round" stroke-linejoin="round"/>
<path d="M76.6079 82.7858L80.1562 89.5603L74.2712 102.471L83.7261 116.622L89.5101 103.683L82.5001 89.3094L86.171 83.0008L80.9423 77.8035L76.6079 82.7858Z" fill="#263238" stroke="#263238" stroke-linecap="round" stroke-linejoin="round"/>
<path d="M70.2685 69.9536L67.8164 70.6203L65.4797 74.7065L71.2493 90.9653L80.7114 81.2373L91.0534 91.7395C91.0534 91.7395 92.2794 75.3732 92.2794 73.495C92.2794 71.6168 90.6135 70.9501 89.3946 70.6275C88.1758 70.3049 70.2685 69.9536 70.2685 69.9536Z" fill="white" stroke="#263238" stroke-linecap="round" stroke-linejoin="round"/>
<path d="M67.8165 70.6204C67.8165 70.6204 68.8766 85.3235 75.0285 98.2632C78.2089 104.93 84.1516 114.3 84.1516 113.97C84.1516 113.64 90.0438 96.2774 90.2673 90.4134C90.4909 84.5493 91.6016 72.0541 91.6016 72.0541C91.6016 72.0541 103.011 76.5705 105.737 78.1404C109.963 80.5706 115.3 81.1226 115.192 83.9973C115.149 85.0439 115.87 91.883 116.786 100.22C116.93 101.546 124.091 112.923 124.243 114.3C125.779 128.186 120.565 134.035 120.305 134.1C119.865 134.207 110.627 134.1 110.627 134.1C110.627 134.1 115.639 156.768 116.396 157.986L117.175 159.198H77.43L75.7713 154.223L74.2928 159.198H33.437L38.8893 134.537H32.8817C32.8817 134.537 31.3239 131.44 33.437 119.827C35.5501 108.213 42.6756 79.1297 42.6756 78.1404C42.6756 77.1511 65.4798 73.0506 67.8165 70.6204Z" fill="#FFB748" stroke="#263238" stroke-linecap="round" stroke-linejoin="round"/>
<path d="M91.6232 118.171C98.1933 112.092 101.085 99.9263 101.085 99.9263L95.1859 97.3814L100.862 94.6142L95.9576 73.8248C93.181 71.4447 91.551 71.5093 91.6304 72.0326C91.6304 72.0326 90.5197 84.5278 90.2962 90.3918C90.0726 96.2559 84.166 113.64 84.166 113.97C84.166 114.3 77.6247 105.181 75.0428 98.2632C69.0281 82.1621 67.8741 72.4555 67.7011 70.5988C67.6992 70.5681 67.689 70.5384 67.6717 70.5129C67.6543 70.4874 67.6304 70.467 67.6024 70.4538C67.5744 70.4406 67.5434 70.4352 67.5125 70.438C67.4817 70.4408 67.4521 70.4518 67.427 70.4698C66.5976 70.9573 64.5422 71.3587 63.0998 72.6204C62.6959 75.4879 62.1767 79.6458 61.8161 84.2195C61.1526 92.736 61.1526 96.4925 61.1526 96.4925L68.8261 98.3778L63.3739 101.475C63.3739 101.475 69.3814 107.554 74.3866 112.092C79.3917 116.63 82.7236 118.278 82.7236 118.278L76.3122 128.078C76.3122 128.078 85.0603 124.257 91.6232 118.171Z" fill="#FFB748" stroke="#263238" stroke-linecap="round" stroke-linejoin="round"/>
<path d="M69.1506 62.6559V72.1689C69.1506 72.1689 71.6027 80.1262 80.2787 80.6782C89.4018 81.266 90.9596 72.4986 90.9596 72.4986V64.0896C90.9596 64.0896 74.0692 68.183 69.1506 62.6559Z" fill="white" stroke="#263238" stroke-linecap="round" stroke-linejoin="round"/>
<path d="M93.0727 49.8237C93.0727 49.8237 93.4044 45.5225 96.0729 45.5225C98.7413 45.5225 98.7485 50.4976 98.0778 52.4905C97.4071 54.4834 93.9598 55.9172 92.8491 54.3687" fill="white"/>
<path d="M93.0727 49.8237C93.0727 49.8237 93.4044 45.5225 96.0729 45.5225C98.7413 45.5225 98.7485 50.4976 98.0778 52.4905C97.4071 54.4834 93.9598 55.9172 92.8491 54.3687" stroke="#263238" stroke-linecap="round" stroke-linejoin="round"/>
<path d="M82.0024 28.296C82.0024 28.296 72.1724 27.9376 68.7756 30.4467C65.3788 32.9557 66.0928 39.6872 66.0928 41.8163C66.0928 43.9455 67.701 62.2474 68.7756 64.9142C69.8502 67.5809 77.6752 71.6385 84.4977 70.0757C91.3202 68.5129 93.4333 63.6811 93.7867 61.1936C94.1401 58.706 94.1473 39.6872 93.7867 34.7264C93.4261 29.7656 86.82 28.8265 82.0024 28.296Z" fill="white" stroke="#263238" stroke-linecap="round" stroke-linejoin="round"/>
<path d="M93.8876 36.6692C93.8876 35.8806 93.8299 35.2354 93.7867 34.6906C93.4333 29.7154 86.8199 28.8265 81.9951 28.296C81.9951 28.296 72.1652 27.9376 68.7683 30.4467C65.3715 32.9557 66.0855 39.6872 66.0855 41.8163C66.0855 42.6694 66.3451 46.1176 66.7274 50.1034C66.8994 50.1999 67.0917 50.2551 67.289 50.2646C67.4863 50.2742 67.6831 50.2378 67.8638 50.1585C68.0445 50.0791 68.204 49.959 68.3298 49.8075C68.4555 49.6561 68.5439 49.4776 68.588 49.2862C69.3092 47.3291 68.2347 45.5584 69.1289 43.0709C70.0232 40.5833 70.3766 38.9847 72.5258 37.7373C73.873 36.97 75.3124 36.375 76.8097 35.9666C76.8097 35.9666 72.3455 41.1138 82.1754 40.9346C88.558 40.7912 92.1568 39.4721 93.8876 36.6692Z" fill="#263238" stroke="#263238" stroke-linecap="round" stroke-linejoin="round"/>
<path d="M83.9496 45.7375C83.9496 45.7375 85.6156 53.5874 84.0578 54.3401C82.5 55.0928 81.5048 55.3365 80.1633 52.6841" stroke="#263238" stroke-linecap="round" stroke-linejoin="round"/>
<path d="M75.2736 54.2469C75.2736 54.2469 74.9346 57.903 82.3918 57.3439" stroke="#263238" stroke-linecap="round" stroke-linejoin="round"/>
<path d="M77.6104 45.9024C77.6104 46.6623 77.2858 47.2859 76.8892 47.2859C76.4925 47.2859 76.168 46.6623 76.168 45.9024C76.168 45.1425 76.4925 44.5188 76.8892 44.5188C77.2858 44.5188 77.6104 45.1353 77.6104 45.9024Z" fill="#263238"/>
<path d="M88.7888 45.9024C88.7888 46.6623 88.4643 47.2859 88.0676 47.2859C87.671 47.2859 87.3464 46.6623 87.3464 45.9024C87.3464 45.1425 87.671 44.5188 88.0676 44.5188C88.4643 44.5188 88.7888 45.1353 88.7888 45.9024Z" fill="#263238"/>
<path d="M79.3123 49.1642H73.2686C72.9556 49.1631 72.6527 49.0537 72.4119 48.8549C72.1711 48.6561 72.0074 48.3802 71.9488 48.0746L71.1555 43.8522H81.1657L80.6465 47.9957C80.6045 48.3182 80.446 48.6145 80.2005 48.8295C79.9551 49.0445 79.6394 49.1635 79.3123 49.1642V49.1642Z" stroke="#263238" stroke-width="2" stroke-linecap="round" stroke-linejoin="round"/>
<path d="M92.2218 49.1642H86.1782C85.8648 49.1645 85.5612 49.0556 85.3201 48.8566C85.079 48.6575 84.9157 48.3809 84.8584 48.0746L84.0579 43.8522H94.0753L93.5416 47.9957C93.5 48.3158 93.3436 48.6102 93.1011 48.8248C92.8587 49.0395 92.5465 49.16 92.2218 49.1642V49.1642Z" stroke="#263238" stroke-width="2" stroke-linecap="round" stroke-linejoin="round"/>
<path d="M81.1658 43.8522H84.0578" stroke="#263238" stroke-width="2" stroke-linecap="round" stroke-linejoin="round"/>
<path d="M71.1556 43.8522L66.374 45.9526" stroke="#263238" stroke-width="2" stroke-linecap="round" stroke-linejoin="round"/>
<path d="M67.4846 49.8237C67.4846 49.8237 67.1529 45.5225 64.4772 45.5225C61.8016 45.5225 61.8088 50.4976 62.4795 52.4905C63.1502 54.4834 66.5903 55.9172 67.7082 54.3687" fill="white"/>
<path d="M67.4846 49.8237C67.4846 49.8237 67.1529 45.5225 64.4772 45.5225C61.8016 45.5225 61.8088 50.4976 62.4795 52.4905C63.1502 54.4834 66.5903 55.9172 67.7082 54.3687" stroke="#263238" stroke-linecap="round" stroke-linejoin="round"/>
<path d="M96.2965 105.009C94.7918 103.598 92.9579 102.58 90.9596 102.048C90.3133 101.827 89.6208 101.772 88.9475 101.891C88.0532 101.891 83.6179 100.299 82.5072 99.9693C81.3966 99.6396 80.7259 100.744 81.0648 101.962C81.4038 103.181 83.7765 104.213 84.6708 104.435C85.5651 104.658 85.1829 104.679 85.1829 104.679C85.1829 104.679 86.6252 108.221 85.9617 109.547C85.2982 110.873 82.9543 113.848 83.7332 115.963C84.5121 118.078 85.7382 119.167 88.183 119.167C90.6279 119.167 92.0775 119.275 92.6328 119.167C93.1881 119.06 103.09 123.92 102.008 124.035C100.927 124.15 101.561 114.192 101.561 114.192L96.2965 105.009Z" fill="white" stroke="#263238" stroke-linecap="round" stroke-linejoin="round"/>
<path d="M73.824 110.873C73.824 110.873 79.0527 108.328 81.6129 105.783C84.1732 103.238 85.0602 102.579 85.9401 102.357C86.8199 102.134 90.3899 101.138 91.2769 100.364C92.164 99.5894 92.8347 101.03 91.5005 102.134C90.525 102.923 89.4826 103.625 88.3849 104.235C87.8296 104.572 87.2743 106.12 87.2743 106.12C87.2743 106.12 92.7265 103.797 94.6161 104.349C96.5056 104.901 98.3807 106.579 98.2653 107.568C98.1499 108.558 97.8038 108.084 96.5777 107.97C95.3517 107.855 93.6136 107.332 92.2505 107.884C90.8875 108.436 89.3658 109.769 89.3658 110.321C89.3658 110.873 90.9236 111.203 92.1496 111.095C93.3756 110.988 94.2627 110.651 95.4815 110.873C96.7003 111.095 97.71 111.755 97.8182 112.421C97.9264 113.088 97.3783 113.081 96.0368 113.196C94.6954 113.31 92.366 113.418 91.5871 113.97C90.8082 114.522 86.8055 116.4 87.4762 117.067C88.1469 117.734 88.5436 117.734 89.8778 117.734C91.212 117.734 92.64 116.716 93.4189 116.773C94.4646 116.852 95.0272 116.931 95.0272 116.931C95.0272 116.931 96.8806 117.009 96.7148 117.734C96.4551 118.895 95.8349 118.931 93.1448 119.053C91.039 119.153 90.4764 118.945 88.5869 119.39C86.9665 119.908 85.2827 120.205 83.5818 120.271C80.3508 120.494 74.5668 118.945 74.5668 118.945L73.824 110.873Z" fill="white" stroke="#263238" stroke-linecap="round" stroke-linejoin="round"/>
<path d="M94.8181 103.654C94.8181 103.654 92.568 101.568 91.2771 101.503C89.9861 101.439 86.0484 104.866 85.5075 106.149C84.9666 107.432 86.2287 106.945 87.2744 106.629C88.3202 106.314 91.14 105.023 92.1064 104.629C92.8963 104.242 93.7989 104.148 94.6523 104.364" fill="white"/>
<path d="M94.8181 103.654C94.8181 103.654 92.568 101.568 91.2771 101.503C89.9861 101.439 86.0484 104.866 85.5075 106.149C84.9666 107.432 86.2287 106.945 87.2744 106.629C88.3202 106.314 91.14 105.023 92.1064 104.629C92.8963 104.242 93.7989 104.148 94.6523 104.364" stroke="#263238" stroke-linecap="round" stroke-linejoin="round"/>
<path d="M97.7174 108.214C97.7174 108.214 94.5008 106.615 92.4887 107.497C90.4766 108.378 87.9812 110.142 87.9812 110.938C87.9812 111.733 88.3851 111.583 90.1448 111.497C91.9045 111.411 95.085 110.902 95.5105 110.88C96.1478 110.953 96.7775 111.08 97.3928 111.26" fill="white"/>
<path d="M97.7174 108.214C97.7174 108.214 94.5008 106.615 92.4887 107.497C90.4766 108.378 87.9812 110.142 87.9812 110.938C87.9812 111.733 88.3851 111.583 90.1448 111.497C91.9045 111.411 95.085 110.902 95.5105 110.88C96.1478 110.953 96.7775 111.08 97.3928 111.26" stroke="#263238" stroke-linecap="round" stroke-linejoin="round"/>
<path d="M52.5777 98.6001L49.7938 113.418C49.7938 113.418 73.9395 108.658 74.8266 109.325C75.7137 109.991 76.5214 127.576 76.5214 127.576C76.5214 127.576 45.3441 132.989 41.6732 134.207C38.0023 135.426 34.216 135.641 32.8818 134.537C31.5476 133.433 31.4394 130.666 32.4346 125.218C33.4299 119.769 43.0074 80.2122 43.0074 80.2122" fill="#FFB748"/>
<path d="M52.5777 98.6001L49.7938 113.418C49.7938 113.418 73.9395 108.658 74.8266 109.325C75.7137 109.991 76.5214 127.576 76.5214 127.576C76.5214 127.576 45.3441 132.989 41.6732 134.207C38.0023 135.426 34.216 135.641 32.8818 134.537C31.5476 133.433 31.4394 130.666 32.4346 125.218C33.4299 119.769 43.0074 80.2122 43.0074 80.2122" stroke="#263238" stroke-linecap="round" stroke-linejoin="round"/>
<path d="M108.535 97.6036L109.538 114.522L101.525 114.192L100.753 128.214C100.753 128.214 122.836 133.326 124.063 133.949C125.289 134.573 125.065 133.29 126.507 131.182C127.95 129.075 129.183 124.551 129.068 122.58C128.952 120.608 124.394 113.977 124.286 114.285" fill="#FFB748"/>
<path d="M108.535 97.6036L109.538 114.522L101.525 114.192L100.753 128.214C100.753 128.214 122.836 133.326 124.063 133.949C125.289 134.573 125.065 133.29 126.507 131.182C127.95 129.075 129.183 124.551 129.068 122.58C128.952 120.608 124.394 113.977 124.286 114.285" stroke="#263238" stroke-linecap="round" stroke-linejoin="round"/>
<path d="M109.538 114.522H116.995" stroke="#263238" stroke-linecap="round" stroke-linejoin="round"/>
<path d="M49.7939 113.418L39.8918 116.845" stroke="#263238" stroke-linecap="round" stroke-linejoin="round"/>
</g>
</svg>
